SplineFontDB: 3.2
FontName: Natsume-Regular
FullName: Natsume
FamilyName: Natsume
Weight: Regular
Copyright: SIL Open Font License (OFL)
UComments: "Created for Xymyric 9. Drawn in Inkscape and compiled using FontForge."
FontLog: "Sorazora is a serif font designed for the 9th Edition of the Xymyric alphabet. It includes two styles (Roman, Italic) for one weight (Regular). The design of the serifs is inspired by Han characters and is descended from Xymyric 8. The most noticeable feature compared to V8 is the thin headline and shallow pen angle. This font can be regarded as a transitional style. The direction of the serifs is flipped to reflect the pen angle, which is opposite that of V8.+AAoACgAA-Xymyric 9 specification: https://docs.google.com/document/d/10HuhhSWbcs7u7IWC0UuAK0fY2e_X8Z23sTPiJAIG3fo/edit?usp+AD0A-sharing+AAoACgAA-This font:+AAoA    sorazora_serif_w4.otf+AAoACgAA-Designer:+AAoA    Kegfeng"
Version: 0.2
DefaultBaseFilename: natsume-w4
ItalicAngle: 0
UnderlinePosition: -100
UnderlineWidth: 50
Ascent: 726
Descent: 274
InvalidEm: 0
LayerCount: 2
Layer: 0 0 "Back" 1
Layer: 1 0 "Fore" 0
XUID: [1021 177 139733406 4461]
FSType: 0
OS2Version: 0
OS2_WeightWidthSlopeOnly: 0
OS2_UseTypoMetrics: 1
CreationTime: 1673642421
ModificationTime: 1677874858
PfmFamily: 17
TTFWeight: 400
TTFWidth: 5
LineGap: 72
VLineGap: 0
OS2TypoAscent: 0
OS2TypoAOffset: 1
OS2TypoDescent: 0
OS2TypoDOffset: 1
OS2TypoLinegap: 150
OS2WinAscent: 0
OS2WinAOffset: 1
OS2WinDescent: 0
OS2WinDOffset: 1
HheadAscent: 0
HheadAOffset: 1
HheadDescent: 0
HheadDOffset: 1
OS2CapHeight: 621
OS2XHeight: 483
OS2FamilyClass: 256
OS2Vendor: 'PfEd'
MarkAttachClasses: 1
DEI: 91125
LangName: 1033
GaspTable: 3 9 14 16 5 65535 15 1
OtfFeatName: 'ss01' 1033 "All disconnected"
OtfFeatName: 'ss02' 1033 "Override punctuation substitution"
OtfFeatName: 'ss03' 1033 "Traditional Xymyric figures"
OtfFeatName: 'ss04' 1033 "Double isolate K ligature"
OtfFeatName: 'ss05' 1033 "Use ideographic comma"
Encoding: ISO8859-1

StartChar: a
Encoding: 97 97 26
GlifName: a
Width: 887
Flags: W
HStem: -22.3877 46.5508<383.591 537.119> 440.025 43.0703<208.885 313.938 358.587 405.371 448.018 519.424 630.406 811.369> 543.429 20G<109.741 154.948> 543.429 20G<109.741 154.948> 674.893 21G<349.317 354.595> 677.423 51.4902<378.15 435.988>
VStem: 177.068 101.977<142.934 331.848> 460.691 100.694<553.737 651.959> 622.558 102.915<138.477 328.835>
LayerCount: 2
Fore
SplineSet
377.3046875 677.422851562 m 0xe780
 355.526768334 677.422851562 358.058008968 674.892611477 351.131104831 674.892611477 c 0xcb80
 347.503031577 674.892611477 343.303710938 676.185512295 343.303710938 682.202148438 c 0
 343.303710938 690.378867049 343.303710938 696.002496245 437.151367188 728.913085938 c 1
 494.318359375 728.913085938 561.385742188 699.971679688 561.385742188 620.271484375 c 0
 561.385742188 552.475585938 505.041992188 506.810546875 448.017578125 487.051757812 c 1
 448.017578125 483.095703125 l 1
 717.091796875 483.095703125 l 2
 756.15234375 483.095703125 807.85546875 490.890625 868.8203125 499.893554688 c 1
 858.609375 462.1484375 834.901367188 418.54296875 812.224609375 418.54296875 c 0
 794.4453125 418.54296875 746.83203125 440.025390625 645.403320312 440.025390625 c 2
 630.406345926 440.025390625 l 1
 690.486183754 399.69132506 725.47265625 332.755282424 725.47265625 246.603515625 c 0
 725.47265625 107.287109375 625.720703125 -22.3876953125 445.413085938 -22.3876953125 c 0
 296.590820312 -22.3876953125 177.068359375 78.0615234375 177.068359375 230.495117188 c 0
 177.068359375 343.84727981 241.30797246 414.41754364 313.937748868 440.025390625 c 1
 70.384765625 440.025390625 l 2
 34.2783203125 440.025390625 26.3701171875 442.705078125 26.3701171875 449.533203125 c 0
 26.3701171875 463.736328125 82.4130859375 520.692382812 137.068359375 563.428710938 c 1
 208.884765625 483.095703125 l 1
 311.325195312 483.095703125 l 2
 398.141601562 483.095703125 460.69140625 520.596679688 460.69140625 600.161132812 c 0
 460.69140625 645.0078125 422.611328125 677.422851562 377.3046875 677.422851562 c 0xe780
435.69140625 440.025390625 m 0
 351.129882812 440.025390625 279.044921875 379.258789062 279.044921875 254.154296875 c 0
 279.044921875 108.8984375 368.740234375 24.1630859375 463.232421875 24.1630859375 c 0
 551.813476562 24.1630859375 622.557617188 106.452148438 622.557617188 219.970703125 c 0
 622.557617188 351.598632812 545.131835938 440.025390625 435.69140625 440.025390625 c 0
EndSplineSet
Validated: 1
EndChar

StartChar: b
Encoding: 98 98 27
GlifName: b
Width: 533
Flags: W
HStem: -22.3887 74.1455<252.16 392.571> 253 43.4971<173.513 402.831> 253 32.0273<169.85 384.774> 402.798 21G<383.12 423.993> 448.224 57.6133<261.283 370.744>
VStem: 45.4043 95.4404<163.87 346.194>
LayerCount: 2
Fore
SplineSet
340.1015625 51.7568359375 m 0x9c
 428.681540749 51.7568359375 477.258575074 120.340619918 494.217400394 120.340619918 c 0
 502.965419206 120.340619918 511.566349309 113.823413608 511.566349309 105.025865008 c 0
 511.566349309 85.1692858457 407.21266176 9.52253432073 406.049804688 8.6923828125 c 0
 391.754882812 -1.5126953125 365.396484375 -22.388671875 294.873046875 -22.388671875 c 0
 169.04296875 -22.388671875 45.404296875 73.4453125 45.404296875 245.484375 c 0
 45.404296875 386.141601562 145.21484375 435.943359375 166.612304688 445.916015625 c 0
 184.143554688 454.087890625 237.408203125 475.40625 272.836914062 488.532226562 c 0
 300.758789062 498.876953125 326.23046875 505.836914062 354.842773438 505.836914062 c 0
 420.127929688 505.836914062 472.295898438 477.376953125 472.295898438 455.84375 c 0
 472.295898438 439.307617188 448.104492188 423.630859375 399.881835938 402.797851562 c 1
 366.357421875 437.692382812 333.715820312 448.223632812 292.875 448.223632812 c 0
 230.016601562 448.223632812 140.844726562 402.115234375 140.844726562 269.049804688 c 0
 140.844726562 124.415039062 242.1796875 51.7568359375 340.1015625 51.7568359375 c 0x9c
402.936901854 236.938979774 m 0
 401.70988142 236.938979774 334 253 281 253 c 2
 212 253 l 2xdc
 189 253 169.724609375 257.977539062 169.724609375 267.67578125 c 0
 169.724609375 272.897460938 173.0546875 276.55859375 192.34765625 285.02734375 c 0xbc
 211.827148438 293.579101562 233.211914062 296.497070312 286.02734375 296.497070312 c 0xdc
 366.881835938 296.497070312 445.040039062 307.161132812 450.91796875 308.08984375 c 1
 437.091912617 266.676668068 419.772734624 236.938979774 402.936901854 236.938979774 c 0
EndSplineSet
Validated: 1
EndChar

StartChar: c
Encoding: 99 99 28
GlifName: c
Width: 572
Flags: W
HStem: -268.899 269.643<190.378 279.729> 455.24 50.3496<179.129 322.433>
VStem: 186.469 106.876<-262.222 -46.9225> 431.918 102.645<155.259 343.01>
LayerCount: 2
Fore
SplineSet
20.728515625 363.02734375 m 0
 20.728515625 425.880395803 185.631771355 505.58984375 289.227539062 505.58984375 c 0
 405.212890625 505.58984375 534.5625 416.801757812 534.5625 264.450195312 c 0
 534.5625 114.372070312 430.9140625 13.5263671875 291.509765625 -17.9921875 c 1
 289.2734375 -42.248046875 287.49609375 -69.7392578125 287.49609375 -105.728515625 c 0
 287.49609375 -162.501953125 293.344726562 -234.974609375 293.344726562 -245.071289062 c 0
 293.344726562 -263.033203125 245.56640625 -268.899414062 219.712890625 -268.899414062 c 0
 193.380859375 -268.899414062 186.46875 -263.432617188 186.46875 -255.833984375 c 0
 186.46875 -246.673828125 190.305664062 -192.44140625 190.305664062 -58.48828125 c 1
 156.94921875 -45.8779296875 138.275390625 -31.1806640625 138.275390625 -19.072265625 c 0
 138.275390625 -9.435546875 148.422851562 -3.07421875 190.823242188 0.7431640625 c 0
 325.196289062 12.8388671875 431.91796875 108.086914062 431.91796875 242.168945312 c 0
 431.91796875 378.65234375 332.989257812 455.240234375 230.971679688 455.240234375 c 0
 187.08203125 455.240234375 144.126953125 439.743164062 119.241210938 369.966796875 c 1
 63.630859375 350.750976562 47.0390625 346.200195312 38.08203125 346.200195312 c 0
 26.4541015625 346.200195312 20.728515625 351.62890625 20.728515625 363.02734375 c 0
EndSplineSet
Validated: 1
EndChar

StartChar: d
Encoding: 100 100 29
GlifName: d
Width: 632
Flags: W
HStem: -22.5752 53.8008<246.778 399.648> 452.046 44.8945<227.266 391.792> 598.618 20G<165.031 242.452> 598.618 20G<165.031 242.452>
VStem: 38.0889 102.193<149.888 343.895> 491.742 102.149<150.657 342.405>
LayerCount: 2
Fore
SplineSet
304.930664062 452.045898438 m 0xcc
 230.57421875 452.045898438 140.282226562 393.434570312 140.282226562 265.559570312 c 0
 140.282226562 106.143554688 239.701171875 31.2255859375 323.243164062 31.2255859375 c 0
 407.754882812 31.2255859375 491.7421875 103.087890625 491.7421875 230.688476562 c 0
 491.7421875 379.625 402.361328125 452.045898438 304.930664062 452.045898438 c 0xcc
  Spiro
    304.931 452.046 o
    229.27 432.154 o
    166.397 370.658 o
    140.282 265.56 o
    169.098 134.059 o
    238.76 56.5021 o
    323.243 31.2256 o
    404.414 54.5364 o
    466.884 122.353 o
    491.742 230.688 o
    465.011 354.173 o
    396.583 427.803 o
    0 0 z
  EndSpiro
399.00000314 483.792471774 m 1
 321.419870606 532.639535168 65.34765625 545.865949975 65.34765625 561.13671875 c 0
 65.34765625 582.001385579 128.200487533 574.96660645 201.862304688 618.618164062 c 1xec
 283.041992188 582.572265625 292.153320312 582.719726562 354.779296875 559.1171875 c 0
 503.9140625 502.911132812 593.891601562 412.106445312 593.891601562 264.342773438 c 0
 593.891601562 86.0205078125 458.998046875 -22.5751953125 312.938476562 -22.5751953125 c 0
 166.0859375 -22.5751953125 38.0888671875 71.55859375 38.0888671875 231.918945312 c 0
 38.0888671875 398.478515625 153.461914062 496.940429688 311.560546875 496.940429688 c 0
 328.824664305 496.940429688 362.472963809 493.440859515 396.99999852 480.274898249 c 1
 399.00000314 483.792471774 l 1
  Spiro
    201.862 618.618 v
    263.623 592.435 o
    305.381 577.009 o
    354.779 559.117 o
    482.947 490.632 o
    565.097 393.836 o
    593.892 264.343 o
    553.586 110.83 o
    450.569 12.1157 o
    312.938 -22.5752 o
    176.536 7.70951 o
    76.6391 94.7808 o
    38.0889 231.919 o
    73.7871 374.537 o
    170.516 465.307 o
    311.561 496.94 o
    336.972 495.152 o
    371.369 488.471 o
    409.677 475 o
    410 475.747 o
    345.555 506.092 o
    241.986 528.533 o
    107.729 549.649 o
    82.1026 553.779 o
    68.9989 557.077 o
    65.3477 561.137 o
    67.2796 565.669 o
    73.3635 570.847 o
    83.959 575.492 o
    122.511 586.089 o
    159.256 597.632 o
    0 0 z
  EndSpiro
EndSplineSet
Validated: 1
EndChar

StartChar: e
Encoding: 101 101 30
GlifName: e
Width: 529
Flags: W
HStem: 303.687 29.8438<360.223 468.603> 511.223 20G<140.294 206.788> 511.223 20G<140.294 206.788>
VStem: 49.4355 110.937<-1.74692 70.1949>
LayerCount: 2
Fore
SplineSet
473.256098842 287.854551545 m 0xd0
 465.54985308 287.854551545 443.742626394 303.686523438 405.853515625 303.686523438 c 0
 351.625976562 303.686523438 246.388671875 227.875 160.372070312 27.818359375 c 0
 146.329101562 -4.84375 120.3515625 -17.52734375 96.09375 -17.52734375 c 0
 74.513671875 -17.52734375 49.435546875 -1.884765625 49.435546875 37.732421875 c 0
 49.435546875 152.749023438 223.66015625 274.786132812 337.254882812 317.66796875 c 1
 256.38671875 342.837890625 168.767578125 378.970703125 96.3837890625 442.966796875 c 1
 39.5654296875 443.357421875 31.310546875 453.930664062 31.310546875 463.115234375 c 0
 31.310546875 476.770507812 94.0224609375 499.15234375 186.56640625 531.22265625 c 1
 227.009765625 413.29296875 337.15625 351.779296875 394.653320312 333.530273438 c 1
 416.522460938 333.530273438 466.700195312 339.189453125 519.1640625 354.700195312 c 1
 511.926794098 330.3237349 491.379038575 287.854551545 473.256098842 287.854551545 c 0xd0
EndSplineSet
Validated: 1
EndChar

StartChar: f
Encoding: 102 102 31
GlifName: f
Width: 853
Flags: W
HStem: -271 21G<90.9805 115.501> -22.5762 53.8008<469.745 627.26> 326.703 35.3929<169.61 219.568> 326.703 27.4234<168.422 215.085> 452.045 53.6045<445.834 606.572> 486.559 20G<90.9253 172.202>
VStem: 66.1914 106.183<-261.768 326.67 354.126 436.168> 712.645 102.149<139.987 333.44>
LayerCount: 2
Fore
SplineSet
168.144330876 326.670348887 m 0xeb
 167.623732231 268.253777768 167.369140625 193.693078546 167.369140625 98.96875 c 0
 167.369140625 -92.79296875 172.374023438 -206.663085938 172.374023438 -243.2421875 c 0
 172.374023438 -259.458007812 127.919921875 -271 103.08203125 -271 c 0
 78.87890625 -271 66.19140625 -268.978515625 66.19140625 -259.91796875 c 0
 66.19140625 -246.979492188 69.859375 -143.711914062 69.859375 257.936523438 c 2
 69.859375 427.383789062 l 1
 27.5 443.079101562 8.4697265625 449.170898438 8.4697265625 465.090820312 c 0
 8.4697265625 479.066547721 8.4697265625 499.078312282 173.380859375 506.55859375 c 1
 171.024069639 483.997048426 169.386278967 438.527556431 168.421979928 354.126445864 c 1xd7
 193.813673824 359.602590759 215.928978714 362.095925356 235.554975034 362.095925356 c 0
 257.793480332 362.095925356 276.835840467 358.894610979 293.827148438 353.204101562 c 1
 340.26171875 445.725585938 436.37109375 505.649414062 542.787109375 505.649414062 c 0
 694.857421875 505.649414062 814.793945312 408.33203125 814.793945312 251.94921875 c 0
 814.793945312 73.6279296875 679.900390625 -22.576171875 533.840820312 -22.576171875 c 0
 432.235351562 -22.576171875 317.192382812 43.4970703125 267.951171875 204.030273438 c 0
 239.752036673 295.962485034 221.741841397 326.703029878 171.263484655 326.703029878 c 0
 170.200913711 326.703029878 169.159233776 326.670348887 168.144330876 326.670348887 c 0xeb
525.834960938 452.044921875 m 0xcb
 451.477539062 452.044921875 361.185546875 397.99609375 361.185546875 270.120117188 c 0
 361.185546875 110.704101562 460.609375 31.224609375 544.151367188 31.224609375 c 0
 628.662109375 31.224609375 712.64453125 90.6953125 712.64453125 218.294921875 c 0
 712.64453125 367.232421875 623.264648438 452.044921875 525.834960938 452.044921875 c 0xcb
EndSplineSet
Validated: 1
EndChar

StartChar: g
Encoding: 103 103 32
GlifName: g
Width: 572
Flags: W
HStem: -268.899 269.643<190.379 279.729> 455.24 50.3496<179.129 322.434> 597.069 131.896<199.463 297.078>
VStem: 182.322 131.896<614.211 711.825> 186.469 106.876<-262.222 -46.9225> 431.918 102.645<155.258 343.01>
LayerCount: 2
Fore
SplineSet
314.21875 663.017578125 m 0xf4
 314.21875 626.620117188 284.66796875 597.069335938 248.270507812 597.069335938 c 0
 211.873046875 597.0703125 182.323242188 626.620117188 182.322265625 663.017578125 c 0
 182.322265625 699.415039062 211.873046875 728.965820312 248.270507812 728.965820312 c 0
 284.66796875 728.965820312 314.21875 699.415039062 314.21875 663.017578125 c 0xf4
20.728515625 363.02734375 m 0
 20.728515625 425.880371432 185.631901301 505.58984375 289.227539062 505.58984375 c 0
 405.212890625 505.58984375 534.5625 416.801757812 534.5625 264.450195312 c 0
 534.5625 114.372070312 430.915039062 13.5263671875 291.510742188 -17.9921875 c 1
 289.274414062 -42.248046875 287.49609375 -69.7392578125 287.49609375 -105.728515625 c 0
 287.49609375 -153.799928055 293.344726562 -243.676634445 293.344726562 -245.071289062 c 0
 293.344726562 -263.033203125 245.567382812 -268.899414062 219.712890625 -268.899414062 c 0
 193.381835938 -268.899414062 186.46875 -263.432617188 186.46875 -255.833984375 c 0xec
 186.46875 -253.860154381 190.305664062 -185.255079994 190.305664062 -58.48828125 c 1
 156.950195312 -45.8779296875 138.275390625 -31.1806640625 138.275390625 -19.072265625 c 0
 138.275390625 -9.435546875 148.422851562 -3.07421875 190.823242188 0.7431640625 c 0
 325.196289062 12.837890625 431.91796875 108.086914062 431.91796875 242.168945312 c 0
 431.91796875 378.65234375 332.990234375 455.240234375 230.97265625 455.240234375 c 0
 187.08203125 455.240234375 144.127929688 439.743164062 119.241210938 369.966796875 c 1
 63.630859375 350.750976562 47.0390625 346.200195312 38.0830078125 346.200195312 c 0
 26.4541015625 346.200195312 20.728515625 351.62890625 20.728515625 363.02734375 c 0
EndSplineSet
Validated: 1
EndChar

StartChar: h
Encoding: 104 104 33
GlifName: h
Width: 853
Flags: W
HStem: -271 21G<90.98 115.501> -223.263 131.896<484.249 581.864> -22.5762 53.7998<469.745 627.26> 326.703 35.3929<169.61 219.568> 326.703 27.4236<168.422 215.085> 452.045 53.6045<445.834 606.571> 486.559 20G<90.9253 172.202>
VStem: 66.1904 106.183<-261.768 326.67 354.127 436.168> 467.108 131.896<-206.122 -108.508> 712.645 102.149<139.987 333.439>
LayerCount: 2
Fore
SplineSet
599.00390625 -157.315429688 m 0xe1c0
 599.00390625 -193.712890625 569.454101562 -223.262695312 533.056640625 -223.262695312 c 0
 496.659179688 -223.262695312 467.108398438 -193.712890625 467.108398438 -157.315429688 c 0
 467.108398438 -120.91796875 496.659179688 -91.3671875 533.056640625 -91.3671875 c 0
 569.454101562 -91.3671875 599.00390625 -120.91796875 599.00390625 -157.315429688 c 0xe1c0
525.833984375 452.044921875 m 0xe5c0
 451.477539062 452.044921875 361.185546875 397.99609375 361.185546875 270.120117188 c 0
 361.185546875 110.704101562 460.609375 31.2236328125 544.151367188 31.2236328125 c 0
 628.662109375 31.2236328125 712.64453125 90.6953125 712.64453125 218.294921875 c 0
 712.64453125 367.231445312 623.264648438 452.044921875 525.833984375 452.044921875 c 0xe5c0
168.144084372 326.670356861 m 0
 167.623603085 268.253784553 167.369140625 193.693082856 167.369140625 98.96875 c 0
 167.369140625 -92.79296875 172.373046875 -206.663085938 172.373046875 -243.2421875 c 0
 172.373046875 -259.458007812 127.919921875 -271 103.08203125 -271 c 0
 78.8779296875 -271 66.1904296875 -268.978515625 66.1904296875 -259.91796875 c 0
 66.1904296875 -246.979492188 69.859375 -143.711914062 69.859375 257.936523438 c 2
 69.859375 427.383789062 l 1
 27.5 443.079101562 8.4697265625 449.170898438 8.4697265625 465.090820312 c 0
 8.4697265625 479.067213127 8.4697265625 499.078312282 173.380859375 506.55859375 c 1
 171.023507788 483.99706087 169.385803973 438.527606589 168.421678755 354.12658552 c 1xebc0
 193.813175795 359.60263315 215.928484688 362.095925356 235.554519557 362.095925356 c 0
 257.793257585 362.095925356 276.835840467 358.894610979 293.827148438 353.204101562 c 1
 340.26171875 445.725585938 436.370117188 505.649414062 542.787109375 505.649414062 c 0
 694.857421875 505.649414062 814.793945312 408.33203125 814.793945312 251.94921875 c 0
 814.793945312 73.6279296875 679.900390625 -22.576171875 533.840820312 -22.576171875 c 0
 432.234375 -22.576171875 317.19140625 43.4970703125 267.951171875 204.030273438 c 0
 239.752036673 295.962485034 221.741046504 326.703029878 171.262534286 326.703029878 c 0xf5c0
 170.200219664 326.703029878 169.158775066 326.691408609 168.144084372 326.670356861 c 0
EndSplineSet
Validated: 1
EndChar

StartChar: i
Encoding: 105 105 34
GlifName: i
Width: 527
Flags: W
HStem: -270.998 21G<381.193 409.19> -22.3994 70.1416<169.253 263.339> 249.452 52.4098<284.446 363.268> 451.584 54.0635<210.364 328.494>
VStem: 40.2119 96.9385<77.8726 168.29> 363.239 97.6938<-265.672 54.4341 91.4151 249.452 296.785 417.123>
LayerCount: 2
Fore
SplineSet
320.31640625 505.647460938 m 0
 462.28110626 505.647460938 462.28110626 408.888597375 462.28110626 331.780457742 c 0
 462.28110626 296.879250035 460.932617188 247.352848451 460.932617188 145.685546875 c 0
 460.932617188 -46.076171875 465.936523438 -207.694335938 465.936523438 -244.2734375 c 0
 465.936523438 -264.69140625 421.731445312 -270.998046875 396.6484375 -270.998046875 c 0
 365.737304688 -270.998046875 359.754882812 -267.895507812 359.754882812 -260.952148438 c 0
 359.754882812 -250.550405705 362.125555282 -181.096448853 363.055149232 54.4340679306 c 1
 283.41233769 8.06445879787 231.804127031 -22.3994140626 198.010742188 -22.3994140625 c 0
 90.3994140625 -22.3994140625 40.2119140625 38.1806640625 40.2119140625 106.084960938 c 0
 40.2119140625 147.915636768 46.4894422521 195.086686861 238.178710938 264.5390625 c 0
 271.969594263 276.781958023 323.459197032 293.244957719 363.268467835 301.8617273 c 1
 363.025931219 327.723370863 362.433405929 347.064176669 361.06640625 365.685546875 c 0
 355.747070312 438.15234375 299.318359375 451.583984375 256.078125 451.583984375 c 0
 238.163085938 451.583984375 214.173828125 445.303710938 201.646484375 435.955078125 c 0
 181.471679688 420.899414062 181.887695312 410.666015625 179.0859375 376.827148438 c 1
 164.930664062 371.08984375 120.186523438 354.396484375 93.2080078125 354.396484375 c 0
 78.6337890625 354.396484375 72.6630859375 356.828125 72.6630859375 368.528320312 c 0
 72.6630859375 422.529296875 204.813476562 505.647460938 320.31640625 505.647460938 c 0
363.422302429 249.451955304 m 1
 206.97590135 228.211533809 137.150390627 196.04504632 137.150390625 134.981445312 c 0
 137.150390625 82.5517578125 176.654296875 47.7421875 234.427734375 47.7421875 c 0
 272.953252924 47.7421875 317.173320973 65.7463554554 363.23883163 110.445949715 c 1
 363.349327498 152.186215436 363.415674275 198.375834055 363.422302429 249.451955304 c 1
EndSplineSet
Validated: 1
EndChar

StartChar: j
Encoding: 106 106 35
GlifName: j
Width: 620
Flags: W
HStem: -270.974 21G<294.758 319.279> 440.025 43.0703<208.884 257.696 374.588 544.845> 543.429 20G<109.741 154.948> 543.429 20G<109.741 154.948>
VStem: 269.969 106.183<-261.741 423.566>
LayerCount: 2
Fore
SplineSet
137.068359375 563.428710938 m 1xe8
 208.883789062 483.095703125 l 1
 450.567382812 483.095703125 l 2
 489.626953125 483.095703125 541.331054688 490.890625 602.295898438 499.893554688 c 1
 592.083984375 462.147460938 568.375976562 418.54296875 545.700195312 418.54296875 c 0
 527.920898438 418.54296875 480.307617188 440.025390625 378.87890625 440.025390625 c 2
 374.588304968 440.025390625 l 1
 372.259229727 389.740387527 371.147460938 296.991587127 371.147460938 98.99609375 c 0
 371.147460938 -92.765625 376.151367188 -206.635742188 376.151367188 -243.215820312 c 0
 376.151367188 -259.430664062 331.698242188 -270.973632812 306.860351562 -270.973632812 c 0
 282.65625 -270.973632812 269.96875 -268.952148438 269.96875 -259.890625 c 0
 269.96875 -246.952148438 273.637695312 -143.684570312 273.637695312 257.963867188 c 2
 273.637695312 411.897460938 l 1
 251.117435726 421.455684132 232.984295713 429.757028127 227.321031718 440.025390625 c 1
 70.384765625 440.025390625 l 2
 34.2783203125 440.025390625 26.3701171875 442.705078125 26.3701171875 449.532226562 c 0
 26.3701171875 463.736328125 82.4130859375 520.692382812 137.068359375 563.428710938 c 1xe8
EndSplineSet
Validated: 1
EndChar

StartChar: k
Encoding: 107 107 36
GlifName: k
Width: 530
Flags: W
HStem: 31.7522 31.2849<104.39 185.682> 440.02 43.0879<208.113 401.52> 537.805 20G<101.108 150.956 461.351 501.532> 537.805 20G<101.108 150.956 461.351 501.532> 610.411 71.147<276.821 431.25> 626.896 43.0703<272.114 420.689>
LayerCount: 2
Fore
SplineSet
421.093866015 610.410615395 m 0xc8
 413.385062465 610.410615395 346.472051495 626.892590736 293.022460938 626.895507812 c 2
 112.903320312 626.904296875 l 2
 90.193359375 626.904296875 84.4365234375 631.567382812 84.4365234375 635.525492272 c 0
 84.4365234375 651.709960938 180.6875 738.21875 195.791015625 749.01171875 c 1
 272.114282979 669.965820251 l 1xc4
 372.783459435 669.965820251 456.973869519 681.557617188 462.59375 681.557617188 c 1
 448.767793836 640.144740941 431.447908287 610.410615395 421.093866015 610.410615395 c 0xc8
130.056640625 557.8046875 m 1xe0
 208.11328125 483.107421875 l 1
 369.957251213 483.096776774 l 1
 372.249302003 494.470781789 417.799386661 514.274233345 504.90234375 541.20703125 c 1
 498.161132812 510.166015625 478.014648438 474.326171875 467.415764416 383.927995827 c 0
 447.198242188 211.4921875 371.794921875 63.1796875 261.09765625 -22.4140625 c 1
 228.484375 18.1806640625 204.354492188 29.2978515625 146.778791736 31.7522367723 c 0
 107.94519677 33.4076678027 103.429877008 38.1898520911 103.429877008 43.6124989798 c 0
 103.429877008 49.81022669 109.328231164 56.8445895534 139.429816343 63.0371369059 c 0
 310.107980983 98.1493281831 415.329563411 306.92866621 424.209895779 440.01953125 c 1
 46.06640625 440.01953125 l 2
 31.2900390625 440.01953125 26.0390625 443.5 26.0390625 448.604754322 c 0
 26.0390625 463.733398438 72.1591796875 509.313476562 130.056640625 557.8046875 c 1xe0
EndSplineSet
Validated: 1
EndChar

StartChar: l
Encoding: 108 108 37
GlifName: l
Width: 511
Flags: W
HStem: 33.0039 26.1318<84.7247 144.166> 440.021 43.0703<186.48 382.455> 522.71 20G<108.732 149.46 442.291 482.479> 522.71 20G<108.732 149.46 442.291 482.479> 596.981 131.896<215.206 312.838>
VStem: 198.074 131.896<614.114 711.746>
LayerCount: 2
Fore
SplineSet
329.970703125 662.930664062 m 0xcc
 329.970703125 626.5078125 300.444335938 596.981445312 264.022460938 596.981445312 c 0
 227.600585938 596.981445312 198.07421875 626.5078125 198.07421875 662.930664062 c 0
 198.07421875 699.352539062 227.600585938 728.877929688 264.022460938 728.877929688 c 0
 300.444335938 728.877929688 329.970703125 699.352539062 329.970703125 662.930664062 c 0xcc
130.772460938 542.709960938 m 1xec
 186.48046875 483.090820312 l 1
 350.903320312 483.090820312 l 1
 353.1796875 494.46484375 398.731445312 514.26953125 485.849609375 541.20703125 c 1
 479.107421875 510.166992188 458.961914062 474.327148438 449.063476562 389.908203125 c 0
 428.14453125 211.493164062 352.741210938 63.1806640625 242.044921875 -22.4140625 c 1
 209.430664062 18.1806640625 185.30078125 29.298828125 98.3662109375 33.00390625 c 0
 88.891723829 33.4076576606 84.376605563 38.1896118453 84.376605563 43.6121895742 c 0
 84.376605563 49.8101301364 90.2752520953 56.8449949219 101.409179688 59.1357421875 c 0
 291.0546875 98.1494140625 396.276367188 306.9296875 405.15625 440.020507812 c 1
 61.7392578125 440.020507812 l 2
 46.962890625 440.020507812 41.712890625 443.500976562 41.712890625 448.456054688 c 0
 41.712890625 463.734375 86.69140625 505.790039062 130.772460938 542.709960938 c 1xec
EndSplineSet
Validated: 1
EndChar

StartChar: m
Encoding: 109 109 38
GlifName: m
Width: 511
Flags: W
HStem: -223.353 131.896<228.325 325.94> 33.0039 26.1318<88.2604 144.166> 440.021 43.0703<186.48 382.455> 522.71 20G<108.732 149.46 442.291 482.479> 522.71 20G<108.732 149.46 442.291 482.479>
VStem: 211.185 131.896<-206.212 -108.598>
LayerCount: 2
Fore
SplineSet
343.080078125 -157.405273438 m 0xe4
 343.080078125 -193.802734375 313.530273438 -223.352539062 277.1328125 -223.352539062 c 0
 240.735351562 -223.352539062 211.184570312 -193.802734375 211.184570312 -157.405273438 c 0
 211.184570312 -121.0078125 240.735351562 -91.45703125 277.1328125 -91.45703125 c 0
 313.530273438 -91.45703125 343.080078125 -121.0078125 343.080078125 -157.405273438 c 0xe4
130.772460938 542.709960938 m 1xf4
 186.48046875 483.090820312 l 1
 350.903320312 483.090820312 l 1
 353.1796875 494.46484375 398.731445312 514.26953125 485.849609375 541.20703125 c 1
 479.107421875 510.166992188 458.961914062 474.326171875 449.063476562 389.908203125 c 0
 428.14453125 211.4921875 352.741210938 63.1806640625 242.044921875 -22.4140625 c 1
 209.430664062 18.1806640625 185.30078125 29.298828125 98.3662109375 33.00390625 c 0
 78.0625 33.869140625 80.5341796875 54.8408203125 101.409179688 59.1357421875 c 0
 291.0546875 98.1494140625 396.276367188 306.9296875 405.15625 440.020507812 c 1
 61.7392578125 440.020507812 l 2
 46.962890625 440.020507812 41.712890625 443.500976562 41.712890625 448.456054688 c 0
 41.712890625 463.734375 86.69140625 505.790039062 130.772460938 542.709960938 c 1xf4
EndSplineSet
Validated: 1
EndChar

StartChar: n
Encoding: 110 110 39
GlifName: n
Width: 233
Flags: W
HStem: -271 21G<90.9795 115.5> 486.559 20G<90.9248 171.337> 486.559 20G<90.9248 171.337>
VStem: 66.1904 106.183<-261.768 436.509>
LayerCount: 2
Fore
SplineSet
173.380859375 506.55859375 m 1xb0
 169.29296875 467.434570312 167.369140625 359.423828125 167.369140625 98.96875 c 0
 167.369140625 -92.79296875 172.373046875 -206.663085938 172.373046875 -243.2421875 c 0
 172.373046875 -259.458007812 127.919921875 -271 103.081054688 -271 c 0
 78.8779296875 -271 66.1904296875 -268.978515625 66.1904296875 -259.91796875 c 0
 66.1904296875 -246.979492188 69.8583984375 -143.711914062 69.8583984375 257.936523438 c 2
 69.8583984375 427.383789062 l 1
 27.5 443.079101562 8.46875 449.170898438 8.46875 465.091796875 c 0
 8.46875 479.066215234 8.46875 499.078267986 173.380859375 506.55859375 c 1xb0
EndSplineSet
Validated: 1
EndChar

StartChar: o
Encoding: 111 111 40
GlifName: o
Width: 511
Flags: W
HStem: 33.0039 26.1309<84.7239 144.166> 281.349 43.0703<204.91 360.15> 440.021 43.0703<204.272 382.454> 529.553 20G<116.944 158.631 442.29 482.478> 529.553 20G<116.944 158.631 442.29 482.478>
LayerCount: 2
Fore
SplineSet
149.202148438 384.038085938 m 1xf0
 204.91015625 324.418945312 l 1
 378.618630837 324.418945312 l 1
 393.916126192 365.203158212 402.833143197 405.202008899 405.15625 440.020507812 c 1
 61.73828125 440.020507812 l 2
 46.962890625 440.020507812 41.7119140625 443.500976562 41.7119140625 448.456054688 c 0
 41.7119140625 463.734375 94.9033203125 512.6328125 138.984375 549.552734375 c 1
 204.272460938 483.090820312 l 1
 350.90234375 483.090820312 l 1
 353.1796875 494.463867188 398.73046875 514.26953125 485.848632812 541.20703125 c 1
 479.107421875 510.166992188 458.9609375 474.326171875 449.0625 389.908203125 c 0
 428.143554688 211.4921875 352.740234375 63.1796875 242.043945312 -22.4140625 c 1
 209.430664062 18.1806640625 185.30078125 29.2978515625 98.3662109375 33.00390625 c 0
 88.8911321113 33.4076634566 84.3757771696 38.1897491397 84.3757771696 43.6123238701 c 0
 84.3757771696 49.8100941909 90.2744153695 56.8445679846 101.408203125 59.134765625 c 0
 224.015297821 84.3579979108 311.336094277 180.538327284 360.149579076 281.348632812 c 1
 80.16796875 281.348632812 l 2
 65.392578125 281.348632812 60.142578125 284.829101562 60.142578125 289.784179688 c 0
 60.142578125 305.0625 105.12109375 347.118164062 149.202148438 384.038085938 c 1xf0
EndSplineSet
Validated: 1
EndChar

StartChar: p
Encoding: 112 112 41
GlifName: p
Width: 553
Flags: W
HStem: -271.823 100.885<101.165 230.073> -187.513 20.333<14.3892 39.9678> 499.635 16.0234G<102.028 169.545 462.491 510.339> 499.635 16.0234G<102.028 169.545 462.491 510.339>
VStem: 18.4795 140.026<254.534 485.266> 441.062 50.1592<151.453 416.887>
LayerCount: 2
Fore
SplineSet
518.364257812 519.634765625 m 1x9c
 502.314453125 456.817382812 491.221679688 405.133789062 491.221679688 351.415039062 c 0
 491.221679688 -125.255859375 333.206054688 -271.823242188 113.741210938 -271.823242188 c 1x9c
 98.2470703125 -238.118164062 62.4248046875 -205.344726562 21.02734375 -187.512695312 c 0
 8.4638671875 -182.100585938 13.8466796875 -166.20703125 25.1044921875 -167.1796875 c 0x4c
 61.990234375 -170.364257812 81.6533203125 -170.938476562 107.015625 -170.938476562 c 0
 226.201623071 -170.938476562 327.668291051 -125.127252053 386.517678624 9.6823897654 c 1
 188.973378045 21.0244249063 91.7766056762 129.753688167 66.9677734375 328.124023438 c 0
 62.5888671875 363.133789062 61.123046875 405.762695312 59.4697265625 431.458984375 c 1
 30.462890625 451.13671875 18.4794921875 462.079101562 18.4794921875 474.609375 c 0
 18.4794921875 492.806640625 27.4912109375 501.111328125 176.564453125 515.658203125 c 1
 162.526367188 453.30859375 158.505859375 414.6640625 158.505859375 358.831054688 c 0
 158.505859375 150.236938236 220.474038641 52.6704955141 397.324124938 36.7740085303 c 1
 425.283201553 113.621869562 441.0625 215.7491336 441.0625 349.399414062 c 0
 441.0625 377.434570312 439.86328125 402.126953125 437.487304688 417.620117188 c 1
 398.01171875 427.764648438 373.590820312 443.083984375 373.590820312 455.790039062 c 0
 373.590820312 472.630859375 406.618164062 487.524414062 518.364257812 519.634765625 c 1x9c
EndSplineSet
Validated: 1
EndChar

StartChar: q
Encoding: 113 113 42
GlifName: q
Width: 887
Flags: W
HStem: -22.3887 46.5518<383.591 537.119> 440.024 43.0703<208.885 313.935 358.587 519.425 630.407 811.369> 543.428 20G<109.741 154.949> 543.428 20G<109.741 154.949> 610.481 71.147<423.531 613.302> 627 43<423 598.965>
VStem: 177.069 101.976<142.934 331.847> 622.558 102.915<138.477 328.835>
LayerCount: 2
Fore
SplineSet
435.69140625 440.024414062 m 0xc3
 351.129882812 440.024414062 279.044921875 379.2578125 279.044921875 254.153320312 c 0
 279.044921875 108.897460938 368.740234375 24.1630859375 463.232421875 24.1630859375 c 0
 551.813476562 24.1630859375 622.557617188 106.451171875 622.557617188 219.969726562 c 0
 622.557617188 351.598632812 545.1328125 440.024414062 435.69140625 440.024414062 c 0xc3
599.070262841 610.480927895 m 0xcb
 597.838433761 610.480927895 530.750600685 627 477 627 c 2
 264 627 l 2
 241 627 235.270507812 631.620117188 235.270507812 637.322265625 c 0
 235.270507812 651.762695312 331.520507812 738.271484375 346.625 749.064453125 c 1
 423 670 l 1
 457 670 l 2xc7
 558 670 641.432617188 681.627929688 647.052734375 681.627929688 c 1
 633.226778211 640.215053441 615.906892662 610.480927895 599.070262841 610.480927895 c 0xcb
137.069335938 563.427734375 m 1xe3
 208.884765625 483.094726562 l 1
 717.092773438 483.094726562 l 2
 756.15234375 483.094726562 807.85546875 490.890625 868.821289062 499.892578125 c 1
 858.609375 462.147460938 834.901367188 418.541992188 812.224609375 418.541992188 c 0
 794.446289062 418.541992188 746.83203125 440.024414062 645.404296875 440.024414062 c 2
 630.407136445 440.024414062 l 1
 690.486183933 399.690352697 725.47265625 332.754372249 725.47265625 246.603515625 c 0
 725.47265625 107.287109375 625.720703125 -22.388671875 445.413085938 -22.388671875 c 0
 296.590820312 -22.388671875 177.069335938 78.0615234375 177.069335938 230.495117188 c 0
 177.069335938 343.845155769 241.306793186 414.415604466 313.935287465 440.024414062 c 1
 70.384765625 440.024414062 l 2
 34.279296875 440.024414062 26.37109375 442.704101562 26.37109375 449.532226562 c 0
 26.37109375 463.736328125 82.4130859375 520.692382812 137.069335938 563.427734375 c 1xe3
EndSplineSet
Validated: 1
EndChar

StartChar: r
Encoding: 114 114 43
GlifName: r
Width: 533
Flags: W
HStem: -22.3887 74.1455<252.16 392.571> 402.798 21G<383.12 423.993> 448.224 57.6133<261.283 370.744>
VStem: 45.4043 95.4404<163.87 346.194>
LayerCount: 2
Fore
SplineSet
340.1015625 51.7568359375 m 0
 428.681540749 51.7568359375 477.258575074 120.340619918 494.217400394 120.340619918 c 0
 502.965419206 120.340619918 511.566349309 113.823413608 511.566349309 105.025865008 c 0
 511.566349309 85.1699631141 407.21266176 9.52253432073 406.049804688 8.6923828125 c 0
 391.754882812 -1.5126953125 365.396484375 -22.388671875 294.873046875 -22.388671875 c 0
 169.04296875 -22.388671875 45.404296875 73.4453125 45.404296875 245.484375 c 0
 45.404296875 386.141601562 145.21484375 435.943359375 166.612304688 445.916015625 c 0
 184.143554688 454.087890625 237.408203125 475.40625 272.836914062 488.532226562 c 0
 300.758789062 498.876953125 326.229492188 505.836914062 354.842773438 505.836914062 c 0
 420.127929688 505.836914062 472.295898438 477.376953125 472.295898438 455.84375 c 0
 472.295898438 439.307617188 448.104492188 423.630859375 399.881835938 402.797851562 c 1
 366.357421875 437.692382812 333.715820312 448.223632812 292.875 448.223632812 c 0
 230.016601562 448.223632812 140.844726562 402.115234375 140.844726562 269.049804688 c 0
 140.844726562 124.415039062 242.1796875 51.7568359375 340.1015625 51.7568359375 c 0
EndSplineSet
Validated: 1
EndChar

StartChar: s
Encoding: 115 115 44
GlifName: s
Width: 511
Flags: HMW
HStem: 33.0039 26.1309<84.7247 144.166> 440.021 43.0703<214.765 382.454>
LayerCount: 2
Fore
SplineSet
143.08984375 565.063476562 m 1
 214.764648438 483.090820312 l 1
 350.90234375 483.090820312 l 1
 353.1796875 494.463867188 398.73046875 514.268554688 485.848632812 541.20703125 c 1
 479.107421875 510.166015625 458.9609375 474.326171875 449.0625 389.907226562 c 0
 428.143554688 211.4921875 352.740234375 63.1796875 242.043945312 -22.4140625 c 1
 209.430664062 18.1796875 185.30078125 29.2978515625 98.3662109375 33.00390625 c 0
 88.891723829 33.4076576606 84.376605563 38.1896118453 84.376605563 43.6120903447 c 0
 84.376605563 49.8099174888 90.2752520953 56.8445392205 101.409179688 59.134765625 c 0
 291.053710938 98.1494140625 396.276367188 306.9296875 405.15625 440.020507812 c 1
 61.73828125 440.020507812 l 2
 46.962890625 440.020507812 41.712890625 443.500976562 41.712890625 448.456054688 c 0
 41.712890625 463.734375 99.0087890625 528.143554688 143.08984375 565.063476562 c 1
EndSplineSet
Validated: 1
EndChar

StartChar: t
Encoding: 116 116 45
GlifName: t
Width: 632
Flags: W
HStem: -22.5752 53.8008<246.778 399.648> 182.122 131.896<267.553 365.167> 452.046 44.8945<227.267 390.458> 598.618 20G<165.032 242.452> 598.618 20G<165.032 242.452>
VStem: 38.0889 102.194<149.888 343.895> 250.411 131.896<199.262 296.877> 491.742 102.149<150.657 342.405>
LayerCount: 2
Fore
SplineSet
393.000003439 487.330431902 m 1xf7
 310.918609766 532.753531099 65.3486328125 546.395936867 65.3486328125 561.13671875 c 0
 65.3486328125 582.001179933 128.201026984 574.966926126 201.862304688 618.618164062 c 1
 283.041992188 582.572265625 292.153320312 582.719726562 354.779296875 559.1171875 c 0
 503.915039062 502.911132812 593.891601562 412.106445312 593.891601562 264.342773438 c 0
 593.891601562 86.0205078125 458.998046875 -22.5751953125 312.938476562 -22.5751953125 c 0
 166.086914062 -22.5751953125 38.0888671875 71.55859375 38.0888671875 231.918945312 c 0
 38.0888671875 398.478515625 153.461914062 496.940429688 311.561523438 496.940429688 c 0
 327.822816598 496.940429688 358.622247934 493.835305309 390.999998527 482.470897945 c 1
 393.000003439 487.330431902 l 1xf7
304.931640625 452.045898438 m 0
 230.575195312 452.045898438 140.283203125 393.434570312 140.283203125 265.559570312 c 0
 140.283203125 106.143554688 239.701171875 31.2255859375 323.243164062 31.2255859375 c 0
 407.754882812 31.2255859375 491.7421875 103.087890625 491.7421875 230.688476562 c 0
 491.7421875 379.625 402.361328125 452.045898438 304.931640625 452.045898438 c 0
382.307617188 248.069335938 m 0
 382.307617188 211.671875 352.7578125 182.122070312 316.360351562 182.122070312 c 0
 279.962890625 182.122070312 250.412109375 211.671875 250.411132812 248.069335938 c 0
 250.411132812 284.466796875 279.961914062 314.017578125 316.360351562 314.017578125 c 0
 352.7578125 314.017578125 382.307617188 284.466796875 382.307617188 248.069335938 c 0
EndSplineSet
Validated: 1
EndChar

StartChar: u
Encoding: 117 117 46
GlifName: u
Width: 233
Flags: W
HStem: -271 21G<90.9795 115.5> 486.559 20G<90.9248 171.337> 486.559 20G<90.9248 171.337> 596.997 131.896<66.1797 163.794>
VStem: 49.0381 131.896<614.138 711.753> 66.1904 106.183<-261.767 436.509>
LayerCount: 2
Fore
SplineSet
173.380859375 506.55859375 m 1xb4
 169.29296875 467.434570312 167.369140625 359.423828125 167.369140625 98.9697265625 c 0
 167.369140625 -92.79296875 172.373046875 -206.663085938 172.373046875 -243.2421875 c 0
 172.373046875 -259.45703125 127.919921875 -271 103.081054688 -271 c 0
 78.8779296875 -271 66.1904296875 -268.978515625 66.1904296875 -259.916992188 c 0
 66.1904296875 -246.978515625 69.8583984375 -143.7109375 69.8583984375 257.936523438 c 2
 69.8583984375 427.383789062 l 1
 27.5 443.080078125 8.46875 449.170898438 8.46875 465.091796875 c 0
 8.46875 479.057975736 8.46875 499.083195736 173.380859375 506.55859375 c 1xb4
180.934570312 662.9453125 m 0x98
 180.934570312 626.547851562 151.384765625 596.998046875 114.987304688 596.997070312 c 0
 78.58984375 596.997070312 49.0390625 626.547851562 49.0380859375 662.9453125 c 0
 49.0380859375 699.342773438 78.5888671875 728.893554688 114.987304688 728.893554688 c 0
 151.384765625 728.893554688 180.934570312 699.342773438 180.934570312 662.9453125 c 0x98
EndSplineSet
Validated: 1
EndChar

StartChar: v
Encoding: 118 118 47
GlifName: v
Width: 853
Flags: MW
HStem: -271 21G<90.9795 115.5> -22.5762 53.7998<469.744 627.259> 326.703 35.3929<168.902 246.674> 326.703 27.4235<168.421 215.085> 452.045 53.6045<445.833 606.571> 568.257 21G<440.296 445.586 637.08 642.37> 568.257 21G<440.296 445.586 637.08 642.37> 632.782 114.527<525.456 557.21>
VStem: 66.1904 106.182<-261.768 326.642 354.127 436.168> 712.644 102.149<139.987 333.439>
LayerCount: 2
Fore
SplineSet
541.333007812 632.782226562 m 0xccc0
 516.185546875 632.782226562 485.975585938 620.874023438 455.655273438 580.896484375 c 0
 449.37890625 572.622070312 448.349609375 568.256835938 442.822265625 568.256835938 c 0
 437.770507812 568.256835938 434.58203125 575.141601562 434.58203125 581.87890625 c 0
 434.58203125 599.364257812 452.266601562 633.022460938 541.333007812 747.309570312 c 1
 630.399414062 633.022460938 648.083984375 599.364257812 648.083984375 581.87890625 c 0
 648.083984375 575.141601562 644.895507812 568.256835938 639.84375 568.256835938 c 0
 634.31640625 568.256835938 633.287109375 572.622070312 627.01171875 580.896484375 c 0
 596.690429688 620.874023438 566.48046875 632.782226562 541.333007812 632.782226562 c 0xccc0
525.833984375 452.044921875 m 0
 451.477539062 452.044921875 361.184570312 397.99609375 361.184570312 270.120117188 c 0
 361.184570312 110.704101562 460.609375 31.2236328125 544.150390625 31.2236328125 c 0
 628.661132812 31.2236328125 712.643554688 90.6953125 712.643554688 218.294921875 c 0
 712.643554688 367.231445312 623.263671875 452.044921875 525.833984375 452.044921875 c 0
168.420701536 354.126528045 m 1xd8c0
 193.812638852 359.602615704 215.928188861 362.095925356 235.554273945 362.095925356 c 0
 257.79299107 362.095925356 276.835330301 358.894610979 293.826171875 353.204101562 c 1
 340.26171875 445.725585938 436.370117188 505.649414062 542.786132812 505.649414062 c 0
 694.856445312 505.649414062 814.79296875 408.33203125 814.79296875 251.94921875 c 0
 814.79296875 73.6279296875 679.899414062 -22.576171875 533.83984375 -22.576171875 c 0
 432.234375 -22.576171875 317.19140625 43.4970703125 267.950195312 204.030273438 c 0
 239.751941168 295.962485034 221.741037164 326.703029878 171.262533372 326.703029878 c 0xe8c0
 170.324779077 326.703029878 169.26834801 326.680706384 168.142854225 326.641892013 c 0
 167.622543871 268.229564138 167.368164062 193.677697994 167.368164062 98.96875 c 0
 167.368164062 -92.79296875 172.372070312 -206.663085938 172.372070312 -243.2421875 c 0
 172.372070312 -259.458007812 127.919921875 -271 103.081054688 -271 c 0
 78.8779296875 -271 66.1904296875 -268.978515625 66.1904296875 -259.91796875 c 0
 66.1904296875 -246.979492188 69.8583984375 -143.711914062 69.8583984375 257.936523438 c 2
 69.8583984375 427.383789062 l 1
 27.4990234375 443.079101562 8.46875 449.170898438 8.46875 465.090820312 c 0
 8.46875 479.067213127 8.46875 499.078312282 173.379882812 506.55859375 c 1
 171.02253069 483.997055749 169.384826667 438.527585947 168.420701536 354.126528045 c 1xd8c0
EndSplineSet
Validated: 1
EndChar

StartChar: w
Encoding: 119 119 48
GlifName: w
Width: 631
Flags: W
HStem: -277.739 20.2754<92.4598 115.29> 452.048 53.6025<227.921 384.964>
VStem: 37.3848 102.193<153.355 338.629> 491.037 102.149<139.052 333.443>
LayerCount: 2
Fore
SplineSet
304.227539062 452.047851562 m 0
 229.870117188 452.047851562 139.578125 393.434570312 139.578125 265.55859375 c 0
 139.578125 106.142578125 239 31.224609375 322.541992188 31.224609375 c 0
 407.052734375 31.224609375 491.037109375 90.6982421875 491.037109375 218.298828125 c 0
 491.037109375 367.235351562 401.658203125 452.047851562 304.227539062 452.047851562 c 0
37.384765625 231.918945312 m 0
 37.384765625 398.478515625 163.079101562 505.650390625 321.178710938 505.650390625 c 0
 473.25 505.650390625 593.186523438 408.3359375 593.186523438 251.953125 c 0
 593.186523438 108.463658672 505.845766938 18.1443716921 395.626117931 -11.6658671383 c 1
 318.310432871 -218.859199327 109.589022068 -277.73928062 105.603427263 -277.739280187 c 0
 97.3060292524 -277.739280187 92.4562193037 -272.865259129 92.4562193037 -267.575184996 c 0
 92.4562193037 -263.910349391 94.7838292281 -260.045833948 99.9052734375 -257.463867188 c 0
 211.887610014 -201.005579795 268.571929708 -114.315622506 286.578142575 -21.6048997295 c 1
 150.789066359 -11.2884139463 37.384765625 80.9754535393 37.384765625 231.918945312 c 0
EndSplineSet
Validated: 1
EndChar

StartChar: x
Encoding: 120 120 49
GlifName: x
Width: 587
Flags: W
HStem: 38.2373 66.0127<174.434 288.558> 454.474 51.1748<206.49 340.573> 597.009 131.896<234.553 332.183>
VStem: 217.419 131.896<614.141 711.773> 442.268 98.5049<147.109 336.466>
LayerCount: 2
Fore
SplineSet
58.7109375 366.278320312 m 0
 58.7109375 428.18734896 221.238112105 505.6484375 306.465820312 505.6484375 c 0
 447.662109375 505.6484375 540.772460938 408.305664062 540.772460938 256.923828125 c 0
 540.772460938 149.38671875 489.874023438 89.615234375 458.567382812 70.4892578125 c 0
 383.56640625 24.669921875 304.8828125 -22.4150390625 277.333984375 -22.4150390625 c 0
 253.916381546 -22.4150390625 249.84207578 38.2373046875 196.38671875 38.2373046875 c 0
 128.259180802 38.2373046875 65.0781623142 -24.5312690791 50.300020415 -24.5312690791 c 0
 43.650132388 -24.5312690791 39.3436823442 -19.8715220599 39.3436823442 -14.1337974277 c 0
 39.3436823442 -11.1993981756 40.4700454514 -7.98305110069 42.9853515625 -4.9638671875 c 0
 98.078125 61.15625 211.68359375 104.25 266.814453125 104.25 c 0
 310.30078125 104.25 336.15625 92.3056640625 360.59375 62.88671875 c 1
 404.408203125 84.15625 442.267578125 134.625 442.267578125 224.599609375 c 0
 442.267578125 357.578125 364.916015625 454.473632812 264.350585938 454.473632812 c 0
 227.749023438 454.473632812 184.116210938 445.092773438 155.291015625 386.423828125 c 1
 126.461914062 375.017578125 96.6171875 364.8046875 68.5107421875 355.67578125 c 0
 64.521484375 354.380859375 58.7109375 355.928710938 58.7109375 366.278320312 c 0
349.315429688 662.958007812 m 0
 349.315429688 626.53515625 319.7890625 597.008789062 283.366210938 597.008789062 c 0
 246.944938235 597.008789062 217.418945288 626.534179722 217.418945288 662.956200879 c 0
 217.419433687 699.387775987 246.950580002 728.905273438 283.366210938 728.905273438 c 0
 319.7890625 728.905273438 349.314453125 699.379882812 349.315429688 662.958007812 c 0
EndSplineSet
Validated: 1
EndChar

StartChar: y
Encoding: 121 121 50
GlifName: y
Width: 700
Flags: W
HStem: -271.001 21G<90.98 115.501> 442.803 62.8896<213.555 280.397 483.847 592.706> 486.559 20G<90.9253 172.944> 486.559 20G<90.9253 172.944>
VStem: 66.1914 106.183<-261.768 436.509> 309.177 170.369<56.5387 314.149>
LayerCount: 2
Fore
SplineSet
410.720623421 432.912865144 m 1x9c
 486.717592518 502.62720441 549.076923585 505.692382812 579.31640625 505.692382812 c 0
 649.389648438 505.692382812 704.439453125 463.165039062 704.439453125 440.974609375 c 0
 704.439453125 425.8046875 691.404296875 415.676757812 617.916015625 395.286132812 c 1
 600.16015625 429.14453125 548.592773438 442.802734375 521.46484375 442.802734375 c 0xcc
 489.904195451 442.802734375 461.347845234 428.54501921 431.30735953 402.099688779 c 1
 461.400393573 349.160283552 479.545898438 276.327194822 479.545898438 187.9453125 c 0
 479.545898438 63.5654296875 431.408203125 -22.3740234375 391.869140625 -22.3740234375 c 0
 356.758789062 -22.3740234375 309.176757812 50.62890625 309.176757812 185.96875 c 0
 309.176757812 247.730824328 321.361804265 298.683146029 341.820537127 341.044479727 c 1
 317.839871723 407.868142872 261.023897718 443.740234376 216.493164062 443.740234375 c 0
 198.381786496 443.740234375 184.4187543 441.773334485 169.908575194 437.882062762 c 1
 168.193170739 374.591540499 167.369140625 269.428260199 167.369140625 98.96875 c 0
 167.369140625 -92.79296875 172.374023438 -206.663085938 172.374023438 -243.2421875 c 0
 172.374023438 -259.458007812 127.919921875 -271.000976562 103.08203125 -271.000976562 c 0
 78.8779296875 -271.000976562 66.19140625 -268.978515625 66.19140625 -259.91796875 c 0
 66.19140625 -246.979492188 69.859375 -143.711914062 69.859375 257.936523438 c 2
 69.859375 427.383789062 l 1
 27.5 443.079101562 8.4697265625 449.170898438 8.4697265625 465.090820312 c 0
 8.4697265625 479.067213127 8.4697265625 499.078312282 173.380859375 506.55859375 c 1
 172.507259 498.197616246 171.732490466 486.690610712 171.054209137 471.22207205 c 1
 217.132260394 485.990757233 263.393817129 499.266601562 285.231445312 499.266601562 c 0
 333.281260152 499.266601562 376.983804362 475.83581096 410.720623421 432.912865144 c 1x9c
EndSplineSet
Validated: 1
EndChar

StartChar: z
Encoding: 122 122 51
GlifName: z
Width: 587
Flags: W
HStem: 38.2373 66.0137<174.435 288.558> 454.475 51.1738<206.49 340.574>
VStem: 442.269 98.5049<147.109 336.466>
LayerCount: 2
Fore
SplineSet
58.7119140625 366.278320312 m 0
 58.7119140625 428.188787739 221.237647104 505.6484375 306.465820312 505.6484375 c 0
 447.662109375 505.6484375 540.7734375 408.305664062 540.7734375 256.923828125 c 0
 540.7734375 149.38671875 489.875 89.615234375 458.567382812 70.4892578125 c 0
 383.56640625 24.669921875 304.8828125 -22.4150390625 277.333984375 -22.4150390625 c 0
 253.916974036 -22.4150390625 249.841940212 38.2373046875 196.387695312 38.2373046875 c 0
 128.260470578 38.2373046875 65.0781032741 -24.5312690791 50.3000403242 -24.5312690791 c 0
 43.6503935047 -24.5312690791 39.344101055 -19.8718109817 39.344101055 -14.1343310736 c 0
 39.344101055 -11.1997881256 40.4706293512 -7.98323412332 42.986328125 -4.9638671875 c 0
 98.0791015625 61.15625 211.68359375 104.250976562 266.814453125 104.250976562 c 0
 310.30078125 104.250976562 336.15625 92.3056640625 360.594726562 62.8876953125 c 1
 404.409179688 84.15625 442.268554688 134.625 442.268554688 224.600585938 c 0
 442.268554688 357.578125 364.916992188 454.474609375 264.3515625 454.474609375 c 0
 227.749023438 454.474609375 184.116210938 445.092773438 155.291992188 386.423828125 c 1
 126.461914062 375.017578125 96.6171875 364.8046875 68.5107421875 355.67578125 c 0
 64.5224609375 354.380859375 58.7119140625 355.928710938 58.7119140625 366.278320312 c 0
EndSplineSet
Validated: 1
EndChar

StartChar: zero
Encoding: 48 48 52
GlifName: zero
Width: 473
VWidth: 800
Flags: HW
HStem: 93.9197 15.2251<209.947 263.322> 292.895 15.2256<209.453 263.817>
VStem: 133.063 34.8233<152.6 250.643> 305.38 34.8233<152.6 250.643>
LayerCount: 2
Fore
SplineSet
236.634765625 292.89453125 m 0
 201.05078125 292.89453125 167.88671875 259.923828125 167.88671875 201.01953125 c 0
 167.88671875 142.115234375 201.348632812 109.14453125 236.634765625 109.14453125 c 0
 271.921875 109.14453125 305.379882812 142.115234375 305.379882812 201.01953125 c 0
 305.379882812 259.923828125 272.219726562 292.89453125 236.634765625 292.89453125 c 0
236.634765625 308.120117188 m 0
 290.280273438 308.120117188 340.203125 268.094726562 340.203125 201.01953125 c 0
 340.203125 133.9453125 287.845703125 93.919921875 236.634765625 93.919921875 c 0
 185.424804688 93.919921875 133.063476562 133.9453125 133.063476562 201.01953125 c 0
 133.063476562 268.094726562 182.989257812 308.120117188 236.634765625 308.120117188 c 0
EndSplineSet
Validated: 1
EndChar

StartChar: one
Encoding: 49 49 53
GlifName: one
Width: 270
VWidth: 800
Flags: HW
HStem: 100.5 12<79.75 114.634 156.428 191.25> 289.5 12<79.75 114.802 156.245 191.25>
VStem: 115.25 40.5<112.7 289.339>
LayerCount: 2
Fore
SplineSet
79.75 100.5 m 1
 79.75 112.5 l 1
 99.25 112.5 l 2
 111.25 112.5 115.25 114.5 115.25 123 c 2
 115.25 279.5 l 2
 115.25 288 111.25 289.5 99.25 289.5 c 2
 79.75 289.5 l 1
 79.75 301.5 l 1
 191.25 301.5 l 1
 191.25 289.5 l 1
 172.25 289.5 l 2
 160.25 289.5 155.75 288 155.75 279.5 c 2
 155.75 123 l 2
 155.75 114.5 160.25 112.5 172.25 112.5 c 2
 191.25 112.5 l 1
 191.25 100.5 l 1
 79.75 100.5 l 1
EndSplineSet
Validated: 1
EndChar

StartChar: two
Encoding: 50 50 54
GlifName: two
Width: 335
VWidth: 800
Flags: HW
HStem: 103.5 32.5<131.25 238.767> 284.5 26<126.83 180.623>
VStem: 193.75 39<224.031 272.092>
LayerCount: 2
Fore
SplineSet
94.75 112 m 1
 103.60546875 141.728515625 127.413085938 161.989257812 149.461914062 180.752929688 c 0
 172.572265625 200.420898438 193.75 218.443359375 193.75 244 c 0
 193.75 268.5 175.25 284.5 151.75 284.5 c 0
 133.25 284.5 115.25 275 109.75 260 c 1
 97.75 260 l 1
 105.25 290.5 132.75 310.5 167.25 310.5 c 0
 203.25 310.5 232.75 288 232.75 254.5 c 0
 232.75 228.577148438 215.353515625 215.080078125 186.5078125 192.700195312 c 0
 186.421875 192.633789062 186.3359375 192.56640625 186.25 192.5 c 0
 184.51953125 191.202148438 182.883789062 189.717773438 181.21875 188.208007812 c 0
 179.03515625 186.2265625 176.803710938 184.202148438 174.25 182.5 c 0
 149.25 162.5 137.75 151.5 131.25 136 c 1
 224.25 136 l 2
 233.75 136 235.75 139 239.25 148 c 1
 248.25 148 l 1
 239.25 113.5 l 2
 239.096679688 112.8125 238.956054688 112.182617188 238.82421875 111.59765625 c 0
 238.096679688 108.353515625 237.673828125 106.46484375 237.25 103.5 c 1
 94.75 103.5 l 1
 94.75 112 l 1
EndSplineSet
Validated: 1
EndChar

StartChar: three
Encoding: 51 51 55
GlifName: three
Width: 325
VWidth: 800
Flags: HW
HStem: -78.75 9.5<77.1579 86.198> 123.25 8.5<109 120.606> 225.25 24.5<108.629 154.506>
VStem: 165.5 40.5<164.487 214.57> 177 41<10.8515 86.7941>
LayerCount: 2
Fore
SplineSet
80.5 214.25 m 1xf0
 96 234.25 120 249.75 148 249.75 c 0
 182 249.75 206 227.75 206 197.25 c 0xf0
 206 171.25 188 151.25 164.5 137.75 c 1
 195 128.75 218 103.25 218 59.25 c 0
 218 -9.75 162 -61.75 79 -78.75 c 1
 74 -69.25 l 1
 141 -48.25 177 -5.75 177 44.75 c 0xe8
 177 89.75 148 117.75 109 123.25 c 1
 109 131.75 l 1
 136.5 139.25 165.5 158.25 165.5 187.75 c 0
 165.5 212.25 146 225.25 127.5 225.25 c 0
 112.5 225.25 98.5 216.25 90 207.75 c 1
 80.5 214.25 l 1xf0
EndSplineSet
Validated: 1
EndChar

StartChar: four
Encoding: 52 52 56
GlifName: four
Width: 478
VWidth: 800
Flags: HW
HStem: 48.25 10.5G<115 124.75> 53.75 27<162 250.5 291 352.602> 241.75 10G<271.708 291>
VStem: 250.5 40.5<-52.558 53.75 80.75 186.75>
LayerCount: 2
Fore
SplineSet
291 -35.75 m 2x70
 291 -42.9951171875 293.924804688 -52.099609375 294 -52.25 c 2
 254.5 -74.75 l 1
 249.5 -71.75 l 1
 250.5 -64.75 250.5 -57.75 250.5 -50.25 c 2
 250.5 53.75 l 1
 143 53.75 l 2x70
 130 53.75 128.5 53.25 121 48.25 c 1xb0
 115 52.75 l 1
 280 251.75 l 1
 291 251.75 l 1
 291 80.75 l 1
 327.5 80.75 l 2
 338.5 80.75 352 80.75 361 81.75 c 1
 365 78.25 l 1
 351.5 52.25 l 1
 344 53.25 336 53.75 323 53.75 c 2
 291 53.75 l 1
 291 -35.75 l 2x70
250.5 80.75 m 1
 250.5 186.75 l 1
 162 80.75 l 1
 250.5 80.75 l 1
EndSplineSet
Validated: 1
EndChar

StartChar: five
Encoding: 53 53 57
GlifName: five
Width: 350
VWidth: 800
Flags: HW
HStem: -77.5 9.5<98.1579 104.143> 213 32<142.5 226.531>
VStem: 196.5 42.5<14.1299 87.6165>
LayerCount: 2
Fore
SplineSet
135.5 245 m 1
 210.5 245 l 2
 222.5 245 226 247 229 253.5 c 1
 238 253.5 l 1
 226.5 223.5 l 2
 226.18359375 222.549804688 225.81640625 221.650390625 225.431640625 220.705078125 c 0
 224.600585938 218.666015625 223.68359375 216.416992188 223 213 c 1
 142.5 213 l 1
 130 168.5 l 1
 205.5 161.5 239 115 239 63.5 c 0
 239 0.5 189 -59.5 100 -77.5 c 1
 95 -68 l 1
 154 -48 196.5 -10 196.5 45 c 0
 196.5 86 172 128.5 103 136 c 1
 135.5 245 l 1
EndSplineSet
Validated: 1
EndChar

StartChar: six
Encoding: 54 54 58
GlifName: six
Width: 450
VWidth: 800
Flags: HW
HStem: 142 18<210.116 261.342> 288 25.5<210.906 265.22> 436 10<295.88 306.95>
VStem: 133.25 43<205.421 267.452> 286.25 39.5<193.753 265.434>
LayerCount: 2
Fore
SplineSet
176.25 258 m 1
 177.25 192.5 204.75 160 235.75 160 c 0
 264.25 160 286.25 187.5 286.25 224 c 0
 286.25 253.5 271.75 288 236.25 288 c 0
 215.25 288 193.75 276 176.25 258 c 1
177.25 278 m 1
 197.75 299 224.75 313.5 253.75 313.5 c 0
 302.75 313.5 325.75 272 325.75 236 c 0
 325.75 188.5 285.75 142 231.75 142 c 0
 180.75 142 133.25 184 133.25 263.5 c 0
 133.25 335 171.75 419 306.25 446 c 1
 308.25 436 l 1
 217.75 411.5 181.75 349 177.25 278 c 1
EndSplineSet
Validated: 1
EndChar

StartChar: seven
Encoding: 55 55 59
GlifName: seven
Width: 398
VWidth: 800
Flags: HW
HStem: 216.5 32<130.875 270.75>
VStem: 153.75 31<-58.5 -23.639>
LayerCount: 2
Fore
SplineSet
131.25 248.5 m 1
 301.25 248.5 l 1
 301.25 241 l 1
 248.25 130 l 2
 216.75 63 191.25 -17 184.75 -58.5 c 1
 153.75 -58.5 l 1
 162.75 -17.5 190.75 47.5 228.25 126.5 c 2
 270.75 216.5 l 1
 155.75 216.5 l 2
 142.75 216.5 136.25 215 131.75 207 c 2
 127.75 200.5 l 1
 119.75 200.5 l 1
 128.25 234 l 1
 128.25 234.5 l 1
 128.633789062 236.420898438 129.091796875 238.268554688 129.5390625 240.0703125 c 0
 130.254882812 242.958007812 130.942382812 245.729492188 131.25 248.5 c 1
EndSplineSet
Validated: 1
EndChar

StartChar: eight
Encoding: 56 56 60
GlifName: eight
Width: 433
VWidth: 800
Flags: HW
HStem: 143 17<195.005 250.288> 430 15<188.082 238.043>
VStem: 126 36<191.549 262.285> 135 32<361.489 408.272> 262.5 33.5<350.383 408.815> 276 34<190.566 251.585>
LayerCount: 2
Fore
SplineSet
221 445 m 0xd0
 264 445 296 416.5 296 383.5 c 0xd8
 296 358.5 278.5 334.5 245.5 314 c 1
 257.5 306 l 1
 287.5 287.5 310 269.5 310 232 c 0
 310 181 268 143 215.5 143 c 0
 166 143 126 177 126 224.5 c 0xe4
 126 265 155 290 194 302 c 1
 186 306.5 l 1
 155.5 325 135 348.5 135 375.5 c 0
 135 413.5 175 445 221 445 c 0xd0
206.5 294 m 1
 177.5 280 162 258.5 162 230 c 0
 162 192.5 189 160 222 160 c 0
 250 160 276 183 276 218.5 c 0xe4
 276 242 264.5 258.5 237.5 275.5 c 1
 206.5 294 l 1
232 322 m 1
 247.5 335 262.5 348 262.5 374 c 0
 262.5 404 242 430 214 430 c 0
 193 430 167 415.5 167 388 c 0xd8
 167 366.5 183 353 210 336 c 2
 232 322 l 1
EndSplineSet
Validated: 1
EndChar

StartChar: nine
Encoding: 57 57 61
GlifName: nine
Width: 450
VWidth: 800
Flags: HW
HStem: -73.5 10<133.125 144.195> 79 27<190.575 241.982> 232 17.5<182.777 234.975>
VStem: 122.5 40<136.246 202.303>
LayerCount: 2
Fore
SplineSet
273 139 m 1
 269.5 200 240 232 208.5 232 c 0
 181.5 232 162.5 208.5 162.5 177 c 0
 162.5 142 185.5 106 222.5 106 c 0
 244.5 106 259.5 118.5 273 139 c 1
273 115.5 m 1
 257.5 95 230 79 199.5 79 c 0
 148.5 79 122.5 123.5 122.5 161.5 c 0
 122.5 207 160 249.5 212.5 249.5 c 0
 265.5 249.5 315.5 206 315.5 129.5 c 0
 315.5 54.5 268.5 -46.5 134 -73.5 c 1
 131.5 -63.5 l 1
 224 -38.5 269 37.5 273 115.5 c 1
EndSplineSet
Validated: 1
EndChar

StartChar: period
Encoding: 46 46 62
GlifName: period
Width: 178
VWidth: 800
Flags: HW
HStem: 10.75 59.5<66.8727 113.127>
VStem: 60 60<17.6227 63.5807>
LayerCount: 2
Fore
SplineSet
120 40.75 m 0
 120 24.25 106.5 10.75 90 10.75 c 0
 73.5 10.75 60 24.25 60 40.75 c 0
 60 57.25 73.5 70.25 90 70.25 c 0
 106.5 70.25 120 57.25 120 40.75 c 0
EndSplineSet
Validated: 1
EndChar

StartChar: comma
Encoding: 44 44 63
GlifName: comma
Width: 173
VWidth: 800
Flags: HW
HStem: -9.5 51<65.4333 94.5045>
VStem: 95.25 29<-37.4906 11.5>
LayerCount: 2
Fore
SplineSet
86.75 41.5 m 0
 111.75 41.5 124.25 25 124.25 -2 c 0
 124.25 -31 104.25 -58 69.75 -75.5 c 1
 58.75 -63.5 l 1
 85.25 -48 95.25 -31.5 95.25 -18.5 c 0
 95.25 -13 93.25 -10.5 88.25 -9.5 c 0
 68.75 -6 59.75 3 59.75 17.5 c 0
 59.75 29 70.75 41.5 86.75 41.5 c 0
EndSplineSet
Validated: 1
EndChar

StartChar: colon
Encoding: 58 58 64
GlifName: colon
Width: 179
VWidth: 800
Flags: HW
HStem: 81.5 59.5<66.8727 113.127> 223 59.5<66.8727 113.127>
VStem: 60 60<88.3727 134.331 229.669 275.627>
LayerCount: 2
Fore
SplineSet
120 111.5 m 0
 120 95 106.5 81.5 90 81.5 c 0
 73.5 81.5 60 95 60 111.5 c 0
 60 128 73.5 141 90 141 c 0
 106.5 141 120 128 120 111.5 c 0
120 252.5 m 0
 120 236 106.5 223 90 223 c 0
 73.5 223 60 236 60 252.5 c 0
 60 269 73.5 282.5 90 282.5 c 0
 106.5 282.5 120 269 120 252.5 c 0
EndSplineSet
Validated: 1
EndChar

StartChar: semicolon
Encoding: 59 59 65
GlifName: semicolon
Width: 178
VWidth: 800
Flags: HW
HStem: 61.25 51<67.2183 97.539> 194.25 59.5<68.6227 114.877>
VStem: 61.75 60<200.919 246.877> 97.75 28.5<33.2594 82.25>
LayerCount: 2
Fore
SplineSet
121.75 223.75 m 0xe0
 121.75 207.25 108.25 194.25 91.75 194.25 c 0
 75.25 194.25 61.75 207.25 61.75 223.75 c 0
 61.75 240.25 75.25 253.75 91.75 253.75 c 0
 108.25 253.75 121.75 240.25 121.75 223.75 c 0xe0
88.75 112.25 m 0
 113.75 112.25 126.25 95.75 126.25 68.75 c 0
 126.25 39.75 106.25 12.75 71.75 -4.75 c 1
 60.75 7.25 l 1
 87.25 22.75 97.75 39.25 97.75 52.25 c 0xd0
 97.75 57.75 94.75 60.25 89.75 61.25 c 0
 70.25 64.75 61.75 73.75 61.75 88.25 c 0
 61.75 99.75 72.75 112.25 88.75 112.25 c 0
EndSplineSet
Validated: 1
EndChar

StartChar: exclam
Encoding: 33 33 66
GlifName: exclam
Width: 236
VWidth: 800
Flags: HW
HStem: 139.25 59.5<94.8727 141.127>
VStem: 88 60<146.123 192.081 346.812 448.031>
LayerCount: 2
Fore
SplineSet
118 455.75 m 0
 133.5 455.75 146 443.25 146 427.75 c 0
 146 420.75 144.5 406.25 143.5 397.75 c 2
 123 234.75 l 1
 113 234.75 l 1
 92.5 397.75 l 2
 91 408.75 90 419.75 90 427.75 c 0
 90 443.25 102.5 455.75 118 455.75 c 0
148 169.25 m 0
 148 152.75 134.5 139.25 118 139.25 c 0
 101.5 139.25 88 152.75 88 169.25 c 0
 88 185.75 101.5 198.75 118 198.75 c 0
 134.5 198.75 148 185.75 148 169.25 c 0
EndSplineSet
Validated: 1
EndChar

StartChar: question
Encoding: 63 63 67
GlifName: question
Width: 280
VWidth: 800
Flags: HW
HStem: 144.75 59.5<82.6227 128.877> 424.25 48<75.2673 99.4613>
VStem: 75.75 60<151.623 197.581> 98.75 10.5<235.25 253.25> 168.25 19.5<332.988 385.071>
LayerCount: 2
Fore
SplineSet
135.75 174.75 m 0xe8
 135.75 158.25 122.25 144.75 105.75 144.75 c 0
 89.25 144.75 75.75 158.25 75.75 174.75 c 0
 75.75 191.25 89.25 204.25 105.75 204.25 c 0
 122.25 204.25 135.75 191.25 135.75 174.75 c 0xe8
72.75 472.25 m 1
 116.102539062 462.766601562 187.75 407.171875 187.75 345.75 c 0
 187.75 320.227539062 175.913085938 309.831054688 146.75 295.25 c 0
 130.75 287.25 115.25 279.25 113.75 267.25 c 2
 109.25 235.25 l 1
 98.75 235.25 l 1xd8
 96.25 253.25 l 2
 91.25 292.75 89.25 301.75 86.75 308.75 c 1
 112.25 321.75 141.75 338.75 159.25 350.75 c 0
 165.25 354.75 168.25 357.75 168.25 368.25 c 0
 168.25 390.75 128.25 409.25 80.75 424.25 c 1
 74.25 433.75 71.25 446.75 71.25 458.75 c 0
 71.25 463.75 71.75 468.25 72.75 472.25 c 1
EndSplineSet
Validated: 1
EndChar

StartChar: quotesingle
Encoding: 39 39 68
GlifName: quotesingle
Width: 149
VWidth: 800
Flags: HW
HStem: 508.163 99.4525<67.3174 78.7534>
VStem: 51.5112 47.3175<547.839 603.833> 68.7627 9.9907<508.163 522.248>
LayerCount: 2
Fore
SplineSet
68.7626953125 508.163085938 m 1xa0
 57.00390625 585.59375 52.603515625 598.719726562 51.697265625 601.421875 c 0
 51.5693359375 601.802734375 51.51171875 601.9765625 51.51171875 602.09375 c 0
 51.51171875 605.09375 59.8544921875 607.615234375 70.8115234375 607.615234375 c 0
 81.8857421875 607.615234375 98.8291015625 601.86328125 98.8291015625 590.450195312 c 0xc0
 98.8291015625 589.470703125 98.7041015625 588.44921875 98.4404296875 587.38671875 c 2
 78.75390625 508.163085938 l 1
 68.7626953125 508.163085938 l 1xa0
EndSplineSet
Validated: 1
EndChar

StartChar: quotedbl
Encoding: 34 34 69
GlifName: quotedbl
Width: 268
VWidth: 800
Flags: HW
HStem: 508.163 99.4525<96.8439 108.28 155.985 167.42>
VStem: 81.0377 47.3175<547.839 603.833> 98.2891 9.9907<508.163 522.248> 140.179 47.3171<547.831 603.833> 157.43 9.99025<508.163 522.248>
LayerCount: 2
Fore
SplineSet
157.430664062 508.163085938 m 1x88
 145.673828125 585.57421875 141.271484375 598.713867188 140.365234375 601.420898438 c 0
 140.237304688 601.801757812 140.178710938 601.9765625 140.178710938 602.09375 c 0
 140.178710938 605.09375 148.521484375 607.615234375 159.479492188 607.615234375 c 0
 170.552734375 607.615234375 187.49609375 601.86328125 187.49609375 590.450195312 c 0x90
 187.49609375 589.470703125 187.37109375 588.44921875 187.107421875 587.38671875 c 2
 167.420898438 508.163085938 l 1
 157.430664062 508.163085938 l 1x88
98.2890625 508.163085938 m 1xa0
 86.5302734375 585.59375 82.1298828125 598.719726562 81.2236328125 601.421875 c 0
 81.095703125 601.802734375 81.0380859375 601.9765625 81.0380859375 602.09375 c 0
 81.0380859375 605.09375 89.380859375 607.615234375 100.337890625 607.615234375 c 0
 111.412109375 607.615234375 128.35546875 601.86328125 128.35546875 590.450195312 c 0xc0
 128.35546875 589.470703125 128.23046875 588.44921875 127.966796875 587.38671875 c 2
 108.280273438 508.163085938 l 1
 98.2890625 508.163085938 l 1xa0
EndSplineSet
Validated: 1
EndChar

StartChar: quoteleft
Encoding: 256 8216 70
GlifName: quoteleft
Width: 172
VWidth: 800
Flags: HW
HStem: 497 52<78.4955 107.389>
VStem: 48.75 29<527.5 576.695>
LayerCount: 2
Fore
SplineSet
86.25 497 m 0
 61.25 497 48.75 514 48.75 541 c 0
 48.75 570 69.25 597.5 103.75 615 c 1
 114.25 602 l 1
 87.75 586.5 77.75 570 77.75 557 c 0
 77.75 551.5 80.25 550 85.25 549 c 0
 104.75 545.5 113.25 535.5 113.25 521 c 0
 113.25 509.5 102.25 497 86.25 497 c 0
EndSplineSet
Validated: 1
EndChar

StartChar: quoteright
Encoding: 257 8217 71
GlifName: quoteright
Width: 172
VWidth: 800
Flags: HW
HStem: 563 52<65.564 94.5045>
VStem: 95.25 29<535.169 584.5>
LayerCount: 2
Fore
SplineSet
86.75 615 m 0
 111.75 615 124.25 598 124.25 571 c 0
 124.25 542 104.25 514.5 69.75 497 c 1
 58.75 510 l 1
 85.25 525.5 95.25 541.5 95.25 554.5 c 0
 95.25 560 93.25 562 88.25 563 c 0
 68.75 566.5 59.75 576 59.75 590.5 c 0
 59.75 602 70.75 615 86.75 615 c 0
EndSplineSet
Validated: 1
EndChar

StartChar: quotedblleft
Encoding: 258 8220 72
GlifName: quotedblleft
Width: 315
VWidth: 800
Flags: HW
HStem: 497 52<114.245 143.139 184.69 214.282>
VStem: 84.5 29<527.5 576.695> 155.5 29<527.5 576.695>
LayerCount: 2
Fore
SplineSet
122 497 m 0
 97 497 84.5 514 84.5 541 c 0
 84.5 570 105 597.5 139.5 615 c 1
 150 602 l 1
 123.5 586.5 113.5 570 113.5 557 c 0
 113.5 551.5 116 550 121 549 c 0
 140.5 545.5 149 535.5 149 521 c 0
 149 509.5 138 497 122 497 c 0
193.5 497 m 0
 168.5 497 155.5 514 155.5 541 c 0
 155.5 570 176 597.5 210.5 615 c 1
 221.5 602 l 1
 195 586.5 184.5 570 184.5 557 c 0
 184.5 551.5 187 550 192 549 c 0
 211.5 545.5 220.5 535.5 220.5 521 c 0
 220.5 509.5 209.5 497 193.5 497 c 0
EndSplineSet
Validated: 1
EndChar

StartChar: quotedblright
Encoding: 259 8221 73
GlifName: quotedblright
Width: 315
VWidth: 800
Flags: HW
HStem: 563 52<101.064 130.005 172.064 202.039>
VStem: 130.75 29<535.169 584.5> 202.25 28.5<535.169 584.5>
LayerCount: 2
Fore
SplineSet
193.25 615 m 0
 218.25 615 230.75 598 230.75 571 c 0
 230.75 542 210.75 514.5 176.25 497 c 1
 165.75 510 l 1
 192.25 525.5 202.25 541.5 202.25 554.5 c 0
 202.25 560 199.75 562 194.75 563 c 0
 175.25 566.5 166.25 576 166.25 590.5 c 0
 166.25 602 177.25 615 193.25 615 c 0
122.25 615 m 0
 147.25 615 159.75 598 159.75 571 c 0
 159.75 542 139.75 514.5 105.25 497 c 1
 94.25 510 l 1
 120.75 525.5 130.75 541.5 130.75 554.5 c 0
 130.75 560 128.75 562 123.75 563 c 0
 104.25 566.5 95.25 576 95.25 590.5 c 0
 95.25 602 106.25 615 122.25 615 c 0
EndSplineSet
Validated: 1
EndChar

StartChar: hyphen
Encoding: 45 45 74
GlifName: hyphen
Width: 493
VWidth: 800
Flags: HW
HStem: 161.5 31<170.75 324.25>
VStem: 170.75 153.5<161.5 192.5>
LayerCount: 2
Fore
SplineSet
170.75 192.5 m 1
 324.25 192.5 l 1
 324.25 161.5 l 1
 170.75 161.5 l 1
 170.75 192.5 l 1
EndSplineSet
Validated: 1
EndChar

StartChar: endash
Encoding: 260 8211 75
GlifName: endash
Width: 392
VWidth: 800
Flags: HW
HStem: 161.5 31<98.25 294.75>
LayerCount: 2
Fore
SplineSet
98.25 192.5 m 1
 294.75 192.5 l 1
 294.75 161.5 l 1
 98.25 161.5 l 1
 98.25 192.5 l 1
EndSplineSet
Validated: 1
EndChar

StartChar: emdash
Encoding: 261 8212 76
GlifName: emdash
Width: 780
VWidth: 800
Flags: HW
HStem: 161.5 31<195.25 585.75>
LayerCount: 2
Fore
SplineSet
195.25 192.5 m 1
 585.75 192.5 l 1
 585.75 161.5 l 1
 195.25 161.5 l 1
 195.25 192.5 l 1
EndSplineSet
Validated: 1
EndChar

StartChar: ellipsis
Encoding: 262 8230 77
GlifName: ellipsis
Width: 626
Flags: HW
HStem: 10.6978 59.753<178.147 224.247 289.756 335.854 401.365 447.462>
VStem: 171.322 59.7515<17.524 63.6246> 282.931 59.748<17.5251 63.6233> 394.54 59.7475<17.5251 63.6233>
LayerCount: 2
Fore
SplineSet
454.287109375 40.57421875 m 0
 454.287109375 24.0859375 440.900390625 10.6982421875 424.412109375 10.6982421875 c 0
 407.924804688 10.7001953125 394.540039062 24.0869140625 394.540039062 40.57421875 c 0
 394.540039062 57.0625 407.924804688 70.4482421875 424.412109375 70.451171875 c 0
 440.900390625 70.4501953125 454.287109375 57.0634765625 454.287109375 40.57421875 c 0
342.678710938 40.57421875 m 0
 342.678710938 24.0869140625 329.293945312 10.7001953125 312.806640625 10.6982421875 c 0
 296.318359375 10.6982421875 282.930664062 24.0859375 282.930664062 40.57421875 c 0
 282.930664062 57.0634765625 296.318359375 70.4501953125 312.806640625 70.451171875 c 0
 329.293945312 70.4482421875 342.678710938 57.0625 342.678710938 40.57421875 c 0
231.073242188 40.57421875 m 0
 231.073242188 24.0859375 217.686523438 10.6982421875 201.197265625 10.6982421875 c 0
 184.708007812 10.6982421875 171.321289062 24.0859375 171.321289062 40.57421875 c 0
 171.321289062 57.0634765625 184.708007812 70.4501953125 201.197265625 70.451171875 c 0
 217.686523438 70.4501953125 231.073242188 57.0634765625 231.073242188 40.57421875 c 0
EndSplineSet
Validated: 1
EndChar

StartChar: at
Encoding: 64 64 78
GlifName: at
Width: 784
Flags: HW
HStem: 22.9688 14.6313<346.38 437.688> 97.4019 19.7505<369.893 432.444> 224.646 23.2467<347.717 398.177> 281.921 17.9458<372.33 507.393> 356.669 14.7276<346.595 438.394>
VStem: 216.04 19.0098<142.544 250.732> 295.184 42.4594<147.146 214.887> 454.479 41.6206<148.165 216.672> 548.712 19.0132<140.49 240.18>
LayerCount: 2
Fore
SplineSet
392.874023438 371.396484375 m 0
 432.372070312 371.396484375 469.77734375 360.42578125 507.182617188 329.791992188 c 1
 493.330078125 317.897460938 l 1
 460.283203125 345.897460938 426.409179688 356.668945312 392.259765625 356.668945312 c 0
 315.032226562 356.668945312 235.049804688 295.895507812 235.049804688 196.41015625 c 0
 235.049804688 96.9248046875 315.381835938 37.599609375 391.880859375 37.599609375 c 0
 468.383789062 37.599609375 548.711914062 96.1767578125 548.711914062 196.41015625 c 0
 548.711914062 251.420898438 517.110351562 281.920898438 465.282226562 281.920898438 c 2
 372.330078125 281.920898438 l 1
 389.743164062 279.240234375 406.803710938 274.74609375 429.973632812 268.538085938 c 0
 474.595703125 256.583007812 496.099609375 227.530273438 496.099609375 191.8515625 c 0
 496.099609375 142.0234375 457.634765625 97.4013671875 393.193359375 97.4013671875 c 0
 334.09375 97.4013671875 295.18359375 137.123046875 295.18359375 180.31640625 c 0
 295.18359375 225.46484375 329.188476562 247.893554688 361.856445312 247.893554688 c 0
 384.291992188 247.893554688 406.095703125 237.315429688 415.823242188 216.25390625 c 1
 403.853515625 208.8828125 l 1
 397.448242188 218.798828125 384.989257812 224.646484375 372.58984375 224.646484375 c 0
 355.055664062 224.646484375 337.643554688 212.952148438 337.643554688 184.528320312 c 0
 337.643554688 138.291015625 376.666992188 117.15234375 401.05859375 117.15234375 c 0
 435.880859375 117.15234375 454.479492188 141.348632812 454.479492188 176.580078125 c 0
 454.479492188 233.1953125 414.744140625 243.64453125 355.404296875 259.25 c 0
 331.204101562 265.61328125 304.901367188 272.530273438 276.725585938 281.920898438 c 1
 276.725585938 287.760742188 l 1
 313.71875 301.672851562 l 1
 321.2265625 300.706054688 334.177734375 299.8671875 345.2578125 299.8671875 c 2
 460.456054688 299.8671875 l 2
 526.196289062 299.8671875 567.724609375 266.26953125 567.724609375 196.748046875 c 0
 567.724609375 99.0625 492.249023438 22.96875 392.208007812 22.96875 c 0
 292.166992188 22.96875 216.040039062 98.34375 216.040039062 196.748046875 c 0
 216.040039062 295.15234375 292.08984375 371.396484375 392.874023438 371.396484375 c 0
EndSplineSet
Validated: 1
EndChar

StartChar: numbersign
Encoding: 35 35 79
GlifName: numbersign
Width: 590
Flags: HW
HStem: 147.179 10.5G<225.335 245.187 326.976 346.827> 208.793 34.3062<189.721 238.385 263.385 340.026 365.026 418.019> 353.405 34.3062<216.228 269.016 294.016 370.657 395.657 444.536>
LayerCount: 2
Fore
SplineSet
389.32421875 441.538085938 m 1
 407.057617188 441.538085938 l 1
 395.65625 387.7109375 l 1
 451.797851562 387.7109375 l 1
 444.536132812 353.405273438 l 1
 388.389648438 353.405273438 l 1
 365.025390625 243.098632812 l 1
 425.291015625 243.098632812 l 1
 418.018554688 208.79296875 l 1
 357.759765625 208.79296875 l 1
 344.708984375 147.1796875 l 1
 326.975585938 147.1796875 l 1
 340.026367188 208.79296875 l 1
 256.119140625 208.79296875 l 1
 243.068359375 147.1796875 l 1
 225.334960938 147.1796875 l 1
 238.385742188 208.79296875 l 1
 182.44921875 208.79296875 l 1
 189.721679688 243.098632812 l 1
 245.651367188 243.098632812 l 1
 269.015625 353.405273438 l 1
 208.965820312 353.405273438 l 1
 216.227539062 387.7109375 l 1
 276.282226562 387.7109375 l 1
 287.682617188 441.538085938 l 1
 305.416992188 441.538085938 l 1
 294.015625 387.7109375 l 1
 377.922851562 387.7109375 l 1
 389.32421875 441.538085938 l 1
370.65625 353.405273438 m 1
 286.749023438 353.405273438 l 1
 263.384765625 243.098632812 l 1
 347.291992188 243.098632812 l 1
 370.65625 353.405273438 l 1
EndSplineSet
Validated: 1
EndChar

StartChar: percent
Encoding: 37 37 80
GlifName: percent
Width: 615
Flags: HW
HStem: 141.453 10.312<368.153 400.333> 147.179 10.5G<192.281 223.422> 261.691 10.312<368.191 400.326> 316.714 10.313<214.307 246.453> 436.953 10.313<214.301 246.482>
VStem: 165.113 27.6762<345.001 418.98> 267.979 27.6909<344.91 418.584> 318.964 27.6944<170.131 243.336> 421.841 27.6797<169.739 243.717>
LayerCount: 2
Fore
SplineSet
398.208007812 441.538085938 m 5x7f80
 422.352539062 441.538085938 l 5
 216.426757812 147.1796875 l 5
 192.28125 147.1796875 l 5
 398.208007812 441.538085938 l 5x7f80
230.393554688 447.266601562 m 4
 269.740234375 447.266601562 295.669921875 418.040039062 295.669921875 381.991210938 c 4
 295.658203125 345.930664062 269.936523438 316.71484375 230.380859375 316.713867188 c 4
 190.828125 316.713867188 165.11328125 345.94140625 165.11328125 381.989257812 c 4
 165.124023438 418.041992188 191.052734375 447.266601562 230.393554688 447.266601562 c 4
230.393554688 436.953125 m 4
 209.360351562 436.953125 192.7890625 416.071289062 192.7890625 381.98828125 c 4
 192.799804688 347.912109375 209.576171875 327.02734375 230.379882812 327.02734375 c 4
 251.172851562 327.02734375 267.978515625 347.473632812 267.978515625 381.9921875 c 4
 267.978515625 416.510742188 251.415039062 436.953125 230.393554688 436.953125 c 4
384.241210938 141.453125 m 4xbf80
 344.893554688 141.453125 318.96484375 170.6796875 318.96484375 206.725585938 c 4
 318.975585938 242.780273438 344.694335938 272.000976562 384.251953125 272.002929688 c 4
 423.801757812 272.002929688 449.520507812 242.776367188 449.520507812 206.73046875 c 4
 449.509765625 170.67578125 423.581054688 141.453125 384.241210938 141.453125 c 4xbf80
384.241210938 151.765625 m 4
 405.2734375 151.765625 421.840820312 172.6484375 421.840820312 206.73046875 c 4
 421.830078125 240.805664062 405.05859375 261.69140625 384.258789062 261.69140625 c 4
 363.509765625 261.690429688 346.659179688 241.330078125 346.659179688 206.702148438 c 4
 346.659179688 172.19921875 363.223632812 151.765625 384.241210938 151.765625 c 4
EndSplineSet
Validated: 1
EndChar

StartChar: ampersand
Encoding: 38 38 81
GlifName: ampersand
Width: 705
Flags: HW
HStem: 132.893 10.5G<279.319 286.457> 141.962 6.80615<359.211 368.915> 312.072 43.1377<217.769 242.991> 334.14 20.9561<359.533 427.601>
VStem: 192.837 38.0496<181.079 204.219> 295.26 46.3261<398.659 426.752> 463.097 44.4053<210.792 298.476>
LayerCount: 2
Fore
SplineSet
282.265625 352.653320312 m 1x9e
 256.025390625 336.634765625 245.578125 325.467773438 239.489257812 318.958984375 c 0
 235.171875 314.344726562 233.045898438 312.072265625 229.036132812 312.072265625 c 0
 221.693359375 312.072265625 201.6796875 347.290039062 201.6796875 355.3125 c 0
 201.6796875 358.786132812 202.478515625 361.918945312 204.140625 364.736328125 c 1
 208.984375 357.990234375 213.513671875 355.209960938 221.749023438 355.209960938 c 0xae
 236.788085938 355.209960938 260.33203125 361.564453125 286.39453125 371.643554688 c 1
 290.829101562 391.967773438 295.260742188 414.344726562 295.260742188 423.005859375 c 0
 295.260742188 433.0234375 292.188476562 441.224609375 282.453125 447.860351562 c 1
 284.629882812 449.009765625 287.127929688 449.529296875 289.840820312 449.529296875 c 0
 309.874023438 449.529296875 341.586914062 421.197265625 341.586914062 409.159179688 c 0
 341.586914062 406.727539062 339.791015625 405.392578125 336.595703125 403.017578125 c 0
 331.346679688 399.115234375 322.319335938 392.405273438 311.276367188 373.41015625 c 1
 319.366210938 363.956054688 326.556640625 350.912109375 326.556640625 346.0234375 c 0
 326.556640625 343.282226562 324.9453125 342.336914062 321.529296875 340.333007812 c 0
 315.97265625 337.073242188 305.639648438 331.01171875 289.700195312 309.853515625 c 1
 289.150390625 305.1015625 288.852539062 300.327148438 288.846679688 295.571289062 c 1
 328.946289062 332.9609375 363.92578125 355.095703125 410.422851562 355.095703125 c 0
 463.391601562 355.095703125 507.502929688 325.536132812 507.502929688 259.323242188 c 0
 507.502929688 186.319335938 449.407226562 146.921875 360.688476562 141.962890625 c 1
 357.815429688 148.768554688 l 1x5e
 423.209960938 163.493164062 463.09765625 198.14453125 463.09765625 256.5078125 c 0
 463.09765625 301.673828125 433.512695312 334.139648438 389.942382812 334.139648438 c 0
 352.927734375 334.139648438 324.356445312 310.102539062 290.560546875 257.884765625 c 1
 291.122070312 251.2265625 295.502929688 216.017578125 298.431640625 192.481445312 c 0
 299.952148438 180.263671875 301.080078125 171.19140625 301.081054688 170.892578125 c 0
 301.081054688 155.213867188 289.578125 132.892578125 283.3359375 132.892578125 c 0
 275.301757812 132.892578125 268.639648438 146.161132812 264.046875 159.129882812 c 0
 261.434570312 166.506835938 255.8359375 182.318359375 237.23046875 204.61328125 c 1
 234.43359375 196.173828125 232.473632812 189.202148438 230.88671875 183.559570312 c 0
 227.028320312 169.837890625 225.37890625 163.975585938 219.288085938 163.975585938 c 0
 211.681640625 163.975585938 192.836914062 195.067382812 192.836914062 214.125976562 c 0
 192.836914062 219.284179688 199.017578125 227.36328125 210.813476562 242.780273438 c 0
 225.604492188 262.112304688 249.223632812 292.984375 280.5546875 344.107421875 c 0
 281.109375 347.015625 281.681640625 349.85546875 282.265625 352.653320312 c 1x9e
269.876953125 200.056640625 m 1
 269.879882812 200.138671875 269.943359375 200.958984375 270.05078125 202.3671875 c 0
 270.815429688 212.361328125 273.842773438 251.923828125 273.842773438 266.491210938 c 0
 273.842773438 273.625976562 273.965820312 280.262695312 274.193359375 286.4765625 c 1
 269.2890625 278.171875 254.40234375 251.547851562 241.41015625 216.516601562 c 1
 266.290039062 201.581054688 266.290039062 201.581054688 269.876953125 200.056640625 c 1
EndSplineSet
Validated: 1
EndChar

StartChar: asciicircum
Encoding: 94 94 82
GlifName: asciicircum
Width: 395
Flags: HW
HStem: 409.219 119.666
LayerCount: 2
Fore
SplineSet
182.739257812 528.884765625 m 1
 212.147460938 528.884765625 l 1
 281.698242188 409.21875 l 1
 250.34375 409.21875 l 1
 197.44140625 502.858398438 l 1
 144.5390625 409.21875 l 1
 113.188476562 409.21875 l 1
 182.739257812 528.884765625 l 1
EndSplineSet
Validated: 1
EndChar

StartChar: asterisk
Encoding: 42 42 83
GlifName: asterisk
Width: 351
Flags: HW
HStem: 472.375 39.6127<107.316 124.103>
VStem: 137.011 39.58<426.429 450.553>
LayerCount: 2
Fore
SplineSet
102.288085938 504.346679688 m 0
 102.288085938 509.059570312 102.288085938 511.98828125 108.705078125 511.98828125 c 0
 116.465820312 511.98828125 133.612304688 507.705078125 171.4921875 497.1171875 c 1
 171.30859375 489.599609375 l 1
 112.064453125 472.375 l 1
 108.515625 478.870117188 102.288085938 494.678710938 102.288085938 504.346679688 c 0
138.512695312 426.393554688 m 0
 137.708007812 427.166992188 137.010742188 427.836914062 137.010742188 429.296875 c 0
 137.010742188 433.662109375 143.239257812 445.091796875 171.4296875 487.4765625 c 1
 178.522460938 484.978515625 l 1
 176.590820312 423.310546875 l 1
 172.766601562 422.58984375 166.263671875 421.959960938 159.620117188 421.959960938 c 0
 150.932617188 421.959960938 142.005859375 423.037109375 138.512695312 426.393554688 c 0
219.506835938 437.600585938 m 0
 211.921875 445.893554688 196.9140625 463.80859375 180.578125 484.431640625 c 1
 185.143554688 490.404296875 l 1
 243.19921875 469.515625 l 2
 243.15625 469.180664062 237.46484375 433.896484375 226.083984375 433.896484375 c 0
 224.069335938 433.896484375 221.876953125 435.000976562 219.506835938 437.600585938 c 0
242.868164062 514.748046875 m 0
 232.626953125 510.099609375 210.954101562 501.354492188 186.297851562 492.189453125 c 1
 182.020507812 498.379882812 l 1
 219.826171875 547.134765625 l 1
 227.948242188 543.291992188 247.322265625 530.673828125 248.827148438 522.2578125 c 0
 249.400390625 519.166015625 248.569335938 517.338867188 242.868164062 514.748046875 c 0
170.400390625 568.861328125 m 0
 175.116210938 568.861328125 176.140625 565.860351562 176.708984375 560.801757812 c 0
 177.955078125 549.634765625 179.592773438 526.31640625 180.681640625 500.029296875 c 1
 173.478515625 497.8828125 l 1
 138.784179688 548.901367188 l 1
 144.727539062 555.189453125 161.577148438 568.861328125 170.400390625 568.861328125 c 0
EndSplineSet
Validated: 1
EndChar

StartChar: less
Encoding: 60 60 84
GlifName: less
Width: 424
Flags: HW
HStem: 87.1233 10.5G<276.504 293.479>
LayerCount: 2
Fore
SplineSet
111.98046875 203.983398438 m 5
 293.478515625 310.915039062 l 5
 293.478515625 278.405273438 l 5
 156.918945312 199.01953125 l 5
 293.478515625 119.6328125 l 5
 293.478515625 87.123046875 l 5
 111.98046875 194.047851562 l 5
 111.98046875 203.983398438 l 5
EndSplineSet
Validated: 1
EndChar

StartChar: asciitilde
Encoding: 126 126 85
GlifName: asciitilde
Width: 685
Flags: HW
HStem: 248.669 35.354<374.422 442.034> 288.602 35.352<242.546 309.49>
LayerCount: 2
Fore
SplineSet
399.384765625 248.668945312 m 0
 371.435546875 248.668945312 349.159179688 259.278320312 327.571289062 269.560546875 c 0
 307.276367188 279.2265625 287.590820312 288.602539062 264.373046875 288.602539062 c 0
 242.880859375 288.602539062 221.965820312 276.89453125 206.329101562 255.844726562 c 1
 194.885742188 261.469726562 l 1
 210.654296875 295.724609375 243.572265625 323.954101562 285.193359375 323.954101562 c 0
 312.592773438 323.954101562 334.52734375 313.500976562 355.950195312 303.291015625 c 0
 376.3984375 293.545898438 396.380859375 284.0234375 420.208007812 284.0234375 c 0
 441.700195312 284.0234375 462.615234375 295.731445312 478.251953125 316.778320312 c 1
 489.6953125 311.154296875 l 1
 473.926757812 276.897460938 441.004882812 248.668945312 399.384765625 248.668945312 c 0
EndSplineSet
Validated: 1
EndChar

StartChar: greater
Encoding: 62 62 86
GlifName: greater
Width: 424
Flags: HW
HStem: 87.1233 10.5G<130.932 147.906>
LayerCount: 2
Fore
SplineSet
312.4296875 203.983398438 m 5
 312.4296875 194.047851562 l 5
 130.931640625 87.123046875 l 5
 130.931640625 119.6328125 l 5
 267.491210938 199.01953125 l 5
 130.931640625 278.405273438 l 5
 130.931640625 310.915039062 l 5
 312.4296875 203.983398438 l 5
EndSplineSet
Validated: 1
EndChar

StartChar: equal
Encoding: 61 61 87
GlifName: equal
Width: 471
Flags: HW
HStem: 137.227 26.9145<137.145 333.57> 220.931 26.9145<137.145 333.57>
LayerCount: 2
Fore
SplineSet
137.14453125 247.845703125 m 1
 333.569335938 247.845703125 l 1
 333.569335938 220.930664062 l 1
 137.14453125 220.930664062 l 1
 137.14453125 247.845703125 l 1
137.14453125 164.141601562 m 1
 333.569335938 164.141601562 l 1
 333.569335938 137.2265625 l 1
 137.14453125 137.2265625 l 1
 137.14453125 164.141601562 l 1
EndSplineSet
Validated: 1
EndChar

StartChar: plus
Encoding: 43 43 88
GlifName: plus
Width: 471
Flags: HW
HStem: 90.5486 10.5G<220.922 249.791> 181.882 26.9145<137.144 220.922 249.791 333.569>
VStem: 220.922 28.8681<90.5486 181.882 208.797 290.866>
LayerCount: 2
Fore
SplineSet
220.921875 208.796875 m 1
 220.921875 290.866210938 l 1
 249.791015625 290.866210938 l 1
 249.791015625 208.796875 l 1
 333.568359375 208.796875 l 1
 333.568359375 181.881835938 l 1
 249.791015625 181.881835938 l 1
 249.791015625 90.548828125 l 1
 220.921875 90.548828125 l 1
 220.921875 181.881835938 l 1
 137.14453125 181.881835938 l 1
 137.14453125 208.796875 l 1
 220.921875 208.796875 l 1
EndSplineSet
Validated: 1
EndChar

StartChar: dollar
Encoding: 36 36 89
GlifName: dollar
Width: 413
Flags: HW
HStem: 137.671 17.6604<172.68 197.545 221.807 242.399> 431.608 16.0841<186.18 197.545 221.807 247.052>
VStem: 130.985 9.8911<215.937 221.396> 131.982 33.7636<359.743 406.531> 197.545 24.2622<102.194 138.511 155.582 272.735 341.362 429.672 447.686 484.072> 267.419 32.8847<184.231 241.707> 276.343 9.6338<379.503 386.436>
LayerCount: 2
Fore
SplineSet
197.544921875 484.072265625 m 1xd8
 221.807617188 484.072265625 l 1
 221.807617188 447.686523438 l 1
 222.197265625 447.690429688 222.588867188 447.69140625 222.981445312 447.69140625 c 0
 253.662109375 447.69140625 276.633789062 438.53125 292.465820312 426.20703125 c 1
 289.787109375 422.21875 288.139648438 410.534179688 287.529296875 401.75 c 2
 285.9765625 379.50390625 l 1
 276.34375 379.50390625 l 1xda
 275.497070312 386.436523438 l 2
 272.178710938 413.622070312 245.725585938 428.826171875 221.807617188 431.607421875 c 1
 221.807617188 324.278320312 l 1
 251.158203125 303.661132812 l 2
 276.744140625 285.69140625 300.3046875 268.71875 300.3046875 226.725585938 c 0
 300.3046875 188.75390625 275.421875 145.796875 221.807617188 138.51171875 c 1
 221.807617188 102.194335938 l 1
 197.544921875 102.194335938 l 1
 197.544921875 137.671875 l 1
 163.885742188 139.702148438 139.744140625 154.495117188 122.040039062 168.295898438 c 1
 125.478515625 179.258789062 127.454101562 191.427734375 130.985351562 221.396484375 c 1
 140.876953125 221.396484375 l 1xec
 141.443359375 215.9375 l 2
 143.920898438 191.997070312 158.497070312 160.797851562 197.544921875 155.33203125 c 1
 197.544921875 289.670898438 l 1
 171.9765625 307.51953125 l 2
 150.859375 322.259765625 131.982421875 341.522460938 131.982421875 370.330078125 c 0
 131.982421875 401.373046875 155.360351562 435.075195312 197.544921875 444.875 c 1
 197.544921875 484.072265625 l 1xd8
221.807617188 272.734375 m 1
 221.807617188 155.58203125 l 1
 248.872070312 160.657226562 267.419921875 182.830078125 267.419921875 207.092773438 c 0xcc
 267.419921875 240.711914062 247.040039062 255.12109375 221.807617188 272.734375 c 1
197.544921875 341.362304688 m 1
 197.544921875 429.671875 l 1
 176.557617188 423.067382812 165.74609375 403.9296875 165.74609375 385.890625 c 0xd8
 165.74609375 369.013671875 174.890625 357.758789062 197.544921875 341.362304688 c 1
EndSplineSet
Validated: 1
EndChar

StartChar: parenleft
Encoding: 40 40 90
GlifName: parenleft
Width: 353
Flags: HW
VStem: 119.789 43.0962<94.2096 280.697>
LayerCount: 2
Fore
SplineSet
162.884765625 187.456054688 m 0
 162.884765625 59.015625 201.03515625 21.2900390625 257.404296875 0.65625 c 1
 257.404296875 -13.1748046875 l 1
 200.0546875 -5.1103515625 152.301757812 27.630859375 132.64453125 86.9033203125 c 0
 123.739257812 113.751953125 119.7890625 146.008789062 119.7890625 187.456054688 c 0
 119.7890625 228.904296875 123.739257812 261.161132812 132.64453125 288.009765625 c 0
 152.301757812 347.282226562 200.0546875 380.022460938 257.404296875 388.086914062 c 1
 257.404296875 374.256835938 l 1
 201.018554688 353.616210938 162.884765625 315.874023438 162.884765625 187.456054688 c 0
EndSplineSet
Validated: 1
EndChar

StartChar: parenright
Encoding: 41 41 91
GlifName: parenright
Width: 353
Flags: HW
VStem: 190.437 43.0957<94.2151 280.703>
LayerCount: 2
Fore
SplineSet
190.436523438 187.456054688 m 0
 190.436523438 315.896484375 152.286132812 353.622070312 95.91796875 374.256835938 c 1
 95.91796875 388.086914062 l 1
 153.266601562 380.022460938 201.01953125 347.282226562 220.676757812 288.009765625 c 0
 229.58203125 261.161132812 233.532226562 228.904296875 233.532226562 187.456054688 c 0
 233.532226562 146.008789062 229.58203125 113.751953125 220.676757812 86.9033203125 c 0
 201.01953125 27.630859375 153.266601562 -5.1103515625 95.91796875 -13.1748046875 c 1
 95.91796875 0.65625 l 1
 152.302734375 21.2958984375 190.436523438 59.0380859375 190.436523438 187.456054688 c 0
EndSplineSet
Validated: 1
EndChar

StartChar: bracketleft
Encoding: 91 91 92
GlifName: bracketleft
Width: 310
Flags: HW
HStem: -11.6693 17.8242<170.792 232.284> 370.764 17.8247<170.792 232.284>
VStem: 130.161 40.6313<6.15524 370.764>
LayerCount: 2
Fore
SplineSet
130.161132812 390.53515625 m 1
 144.392578125 389.561523438 171.09765625 388.588867188 203.103515625 388.588867188 c 2
 232.283203125 388.588867188 l 1
 232.283203125 372.588867188 l 1
 170.791992188 370.763671875 l 1
 170.791992188 6.1552734375 l 1
 232.283203125 4.330078125 l 1
 232.283203125 -11.6689453125 l 1
 203.103515625 -11.6689453125 l 2
 171.09765625 -11.6689453125 144.396484375 -12.642578125 130.161132812 -13.6162109375 c 1
 130.161132812 390.53515625 l 1
EndSplineSet
Validated: 1
EndChar

StartChar: bracketright
Encoding: 93 93 93
GlifName: bracketright
Width: 310
Flags: HW
HStem: -11.6693 15.9995<78.1638 139.655> 372.589 15.9995<78.1638 139.655>
VStem: 139.655 40.6313<6.15524 370.764>
LayerCount: 2
Fore
SplineSet
180.286132812 390.53515625 m 1
 180.286132812 -13.6162109375 l 1
 166.05078125 -12.642578125 139.349609375 -11.6689453125 107.34375 -11.6689453125 c 2
 78.1640625 -11.6689453125 l 1
 78.1640625 4.330078125 l 1
 139.655273438 6.1552734375 l 1
 139.655273438 370.763671875 l 1
 78.1640625 372.588867188 l 1
 78.1640625 388.588867188 l 1
 107.34375 388.588867188 l 2
 139.349609375 388.588867188 166.0546875 389.561523438 180.286132812 390.53515625 c 1
EndSplineSet
Validated: 1
EndChar

StartChar: braceleft
Encoding: 123 123 94
GlifName: braceleft
Width: 248
Flags: HW
HStem: -13.175 14.2031<158.283 173.576> 181.617 11.6787<78.6191 94.0403> 373.884 14.2031<158.285 173.576>
VStem: 104.457 41.3331<8.24953 176.059 198.853 366.665>
LayerCount: 2
Fore
SplineSet
101.706054688 65.2216796875 m 0
 101.706054688 81.3984375 103.608398438 125.27734375 104.249023438 140.05859375 c 0
 104.37890625 143.052734375 104.45703125 144.852539062 104.45703125 144.987304688 c 0
 104.45703125 167.46484375 99.896484375 177.853515625 78.619140625 181.6171875 c 1
 78.619140625 193.295898438 l 1
 99.896484375 197.05859375 104.45703125 207.447265625 104.45703125 229.924804688 c 0
 104.45703125 236.134765625 104.01171875 244.73828125 103.479492188 255.024414062 c 0
 102.689453125 270.309570312 101.706054688 289.310546875 101.706054688 309.690429688 c 0
 101.706054688 373.254882812 115.06640625 388.086914062 173.576171875 388.086914062 c 1
 173.576171875 373.883789062 l 1
 148.674804688 369.470703125 143.775390625 354.108398438 143.775390625 320.662109375 c 0
 143.775390625 311.166992188 144.23046875 298.311523438 144.70703125 284.813476562 c 0
 145.235351562 269.890625 145.790039062 254.181640625 145.790039062 241.352539062 c 0
 145.790039062 211.375976562 143.306640625 197.137695312 125.06640625 187.456054688 c 1
 143.307617188 177.774414062 145.790039062 163.53515625 145.790039062 133.559570312 c 0
 145.790039062 129.79296875 144.747070312 90.7724609375 144.162109375 68.90234375 c 0
 143.93359375 60.3876953125 143.775390625 54.4716796875 143.775390625 54.25 c 0
 143.775390625 20.8037109375 148.674804688 5.44140625 173.576171875 1.0283203125 c 1
 173.576171875 -13.1748046875 l 1
 115.061523438 -13.1748046875 101.706054688 1.6630859375 101.706054688 65.2216796875 c 0
EndSplineSet
Validated: 1
EndChar

StartChar: braceright
Encoding: 125 125 95
GlifName: braceright
Width: 248
Flags: HW
HStem: -13.175 14.2031<74.5801 90.2896> 181.617 11.6787<154.116 169.537> 373.884 14.2031<74.5801 90.2902>
VStem: 104.381 42.0453<10.439 177.74 197.172 364.472>
LayerCount: 2
Fore
SplineSet
104.380859375 54.2509765625 m 0
 104.380859375 63.9140625 103.912109375 77.0625 103.42578125 90.7373046875 c 0
 102.897460938 105.553710938 102.34765625 120.98828125 102.34765625 133.278320312 c 0
 102.34765625 166.909179688 106.418945312 178.599609375 123.08984375 187.456054688 c 1
 106.418945312 196.3125 102.34765625 208.002929688 102.34765625 241.6328125 c 0
 102.34765625 253.923828125 102.897460938 269.357421875 103.42578125 284.173828125 c 0
 103.912109375 297.849609375 104.380859375 310.998046875 104.380859375 320.661132812 c 0
 104.380859375 354.107421875 99.4814453125 369.470703125 74.580078125 373.883789062 c 1
 74.580078125 388.086914062 l 1
 134.904296875 388.086914062 146.426757812 371.665039062 146.426757812 308.974609375 c 0
 146.426757812 288.5859375 145.45703125 269.979492188 144.673828125 254.956054688 c 0
 144.143554688 244.783203125 143.69921875 236.252929688 143.69921875 229.924804688 c 0
 143.69921875 207.447265625 148.259765625 197.05859375 169.537109375 193.295898438 c 1
 169.537109375 181.6171875 l 1
 148.259765625 177.853515625 143.69921875 167.46484375 143.69921875 144.987304688 c 0
 143.69921875 138.658203125 144.143554688 130.12890625 144.673828125 119.95703125 c 0
 145.45703125 104.93359375 146.426757812 86.3291015625 146.426757812 65.94140625 c 0
 146.426757812 3.2412109375 134.901367188 -13.1748046875 74.580078125 -13.1748046875 c 1
 74.580078125 1.0283203125 l 1
 99.4814453125 5.44140625 104.380859375 20.8046875 104.380859375 54.2509765625 c 0
EndSplineSet
Validated: 1
EndChar

StartChar: bar
Encoding: 124 124 96
GlifName: bar
Width: 213
Flags: HW
VStem: 92.7734 27.334<-11.669 388.589>
LayerCount: 2
Fore
SplineSet
92.7734375 388.588867188 m 1
 120.107421875 388.588867188 l 1
 120.107421875 -11.6689453125 l 1
 92.7734375 -11.6689453125 l 1
 92.7734375 388.588867188 l 1
EndSplineSet
Validated: 1
EndChar

StartChar: slash
Encoding: 47 47 97
GlifName: slash
Width: 217
Flags: HW
HStem: 147.179 10.5G<54.1604 84.6226>
VStem: 54.1604 108.321
LayerCount: 2
Fore
SplineSet
134.756835938 441.538085938 m 1
 162.481445312 441.538085938 l 1
 81.884765625 147.1796875 l 1
 54.16015625 147.1796875 l 1
 134.756835938 441.538085938 l 1
EndSplineSet
Validated: 1
EndChar

StartChar: backslash
Encoding: 92 92 98
GlifName: backslash
Width: 217
Flags: HW
HStem: 147.179 10.5G<132.019 162.481>
VStem: 54.1604 108.321
LayerCount: 2
Fore
SplineSet
81.884765625 441.538085938 m 1
 162.481445312 147.1796875 l 1
 134.7578125 147.1796875 l 1
 54.16015625 441.538085938 l 1
 81.884765625 441.538085938 l 1
EndSplineSet
Validated: 1
EndChar

StartChar: underscore
Encoding: 95 95 100
GlifName: underscore
Width: 781
Flags: HW
HStem: -188.631 30.8076<195.21 585.613>
LayerCount: 2
Fore
SplineSet
195.209960938 -157.82421875 m 1
 585.61328125 -157.82421875 l 1
 585.61328125 -188.630859375 l 1
 195.209960938 -188.630859375 l 1
 195.209960938 -157.82421875 l 1
EndSplineSet
Validated: 1
EndChar

StartChar: grave
Encoding: 96 96 101
GlifName: grave
Width: 309
Flags: HW
HStem: 505.948 88.1915
VStem: 110.408 91.433
LayerCount: 2
Fore
SplineSet
186.26953125 505.947265625 m 1
 110.407226562 583.12109375 l 2
 110.131835938 583.828125 110 584.498046875 110 585.133789062 c 0
 110 591.313476562 122.443359375 594.138671875 135.623046875 594.138671875 c 0
 149.145507812 594.138671875 163.442382812 591.1640625 165.866210938 585.787109375 c 2
 201.840820312 505.947265625 l 1
 186.26953125 505.947265625 l 1
EndSplineSet
Validated: 1
EndChar

StartChar: placeholder
Encoding: 263 57424 103
GlifName: placeholder
Width: 422
VWidth: 800
Flags: HMW
LayerCount: 2
Fore
SplineSet
130.5 340.5 m 1
 139 341 l 1
 139 300.5 l 1
 130.5 300 l 1
 130.5 340.5 l 1
130.5 291.5 m 1
 139 291.5 l 1
 139 253 l 1
 130.5 253 l 1
 130.5 291.5 l 1
130.5 245 m 1
 139 245 l 1
 139 202 l 1
 130.5 202 l 1
 130.5 245 l 1
130.5 193.5 m 1
 139 193.5 l 1
 139 154 l 1
 130.5 154 l 1
 130.5 193.5 l 1
130.5 145 m 1
 139 145.5 l 1
 139 105 l 1
 130.5 105 l 1
 130.5 145 l 1
130.5 96 m 1
 139 96 l 1
 139 57.5 l 1
 130.5 57.5 l 1
 130.5 96 l 1
130.5 49 m 1
 139 49 l 1
 139 14.5 l 1
 165.5 14.5 l 1
 165.5 6 l 1
 130.5 6 l 1
 130.5 49 l 1
130.5 394 m 1
 165.5 394 l 1
 165.5 385 l 1
 139 385 l 1
 139 349 l 1
 130.5 349 l 1
 130.5 364 130.5 379 130.5 394 c 1
172 394 m 1
 207.5 394 l 1
 207.5 385 l 1
 172 385 l 1
 172 394 l 1
214 394 m 1
 249.5 394 l 1
 249.5 385 l 1
 214 385 l 1
 214 394 l 1
255.5 394 m 1
 291.5 394 l 1
 291.5 351 l 1
 283 351 l 1
 283 385 l 1
 255.5 385 l 1
 255.5 394 l 1
291.5 343 m 1
 291.5 302.5 l 1
 283 302.5 l 1
 283 343 l 1
 291.5 343 l 1
291.5 293.5 m 1
 291.5 255.5 l 1
 283 255 l 1
 283 293.5 l 1
 291.5 293.5 l 1
291.5 247 m 1
 291.5 204.5 l 1
 283 204 l 1
 283 247 l 1
 291.5 247 l 1
199 218 m 1
 197 217 197 217 189.5 214 c 0
 186.5 214 179 214 176 220 c 1
 176 221.5 l 1
 180 222.5 180.5 223 180.5 223 c 1
 186.5 223 189 227 189 231 c 0
 189 233.5 188 237.5 181.5 237.5 c 1
 181.5 240 l 1
 185.5 241 l 2
 186.5 241 194 241 194 231 c 0
 194 223.5 187.5 221 183.5 219.5 c 1
 187 218.5 187 218.5 187.5 218.5 c 0
 192 217.5 197.5 221 199 225 c 1
 199 236.5 l 1
 199 236.5 196.5 239 196.5 239.5 c 2
 196.5 240 l 1
 196.688476562 240.188476562 196.805664062 240.234375 197.173828125 240.379882812 c 0
 197.78125 240.620117188 199.073242188 241.130859375 202.5 243 c 1
 204 241 l 1
 208.5 241 l 1
 209.5 241.5 209.5 241.5 214.5 242.5 c 1
 214.5 238 l 1
 217.5 239 220.5 240 223.5 241 c 1
 226 241 l 2
 231.15234375 241 234.37890625 237.02734375 234.37890625 232.153320312 c 0
 234.37890625 227.094726562 230.903320312 221.065429688 222.5 217.5 c 0
 220.5 217 214 214.5 214 214.5 c 1
 214 203 l 1
 212.25 202.25 211.5 201.875 211 201.625 c 0
 210.5 201.375 210.25 201.25 209.5 201 c 1
 209.5 237 l 1
 203.5 237 l 1
 203.5 215.5 l 1
 202.5 214.833007812 201.5 214.611328125 200.5 214.388671875 c 0
 200 214.27734375 199.5 214.166992188 199 214 c 1
 199 218 l 1
154.5 239.5 m 1
 160.5 243 l 1
 162 241 l 1
 167.5 241 l 1
 168.5 241.5 168.5 241.5 173.5 242.5 c 1
 173 241 173 239 173 236.5 c 2
 173 203 l 1
 169.5 201.5 169.5 201.5 168 201 c 1
 168 237 l 1
 161.5 237 l 1
 161.5 215.5 l 1
 160.5 214.833007812 159.5 214.611328125 158.5 214.388671875 c 0
 158 214.27734375 157.5 214.166992188 157 214 c 1
 157 236.5 l 1
 154.5 239.5 l 1
236 240.5 m 1
 237.5 241.5 241.5 243 241.5 243 c 1
 241.881835938 242.618164062 242.118164062 242.455078125 242.319335938 242.315429688 c 0
 242.645507812 242.08984375 242.881835938 241.926757812 243.5 241 c 1
 259 241 l 1
 260 241.5 260 241.5 265 242.5 c 1
 265 242.0859375 264.9140625 241.5859375 264.813476562 241 c 0
 264.671875 240.171875 264.5 239.171875 264.5 238 c 2
 264.5 228 l 1
 265.5 228 l 2
 266.819335938 228 268.139648438 228.139648438 269.385742188 228.270507812 c 0
 270.5 228.388671875 271.555664062 228.5 272.5 228.5 c 2
 275 228.5 l 1
 275 228 274.5 226.5 273.5 223.5 c 0
 273.490234375 223.5 273.442382812 223.512695312 273.356445312 223.534179688 c 0
 272.67578125 223.709960938 269.616210938 224.5 264.5 224.5 c 1
 264.5 203 l 1
 261 201.5 261 201.5 259.5 201 c 1
 259.5 237 l 1
 254 237 l 1
 254 215.5 l 1
 252.25 214.75 251.5 214.375 251 214.125 c 0
 250.5 213.875 250.25 213.75 249.5 213.5 c 1
 249.5 237 l 1
 243.5 237 l 1
 243.5 203 l 1
 240 201.5 240 201.5 238.5 201 c 1
 238.5 236.5 l 1
 236 240.5 l 1
215.5 219 m 0
 228 221 229 231 229 231 c 2
 229.5 232 230.5 237 223 237 c 0
 220 237 215 234.5 214 233.5 c 1
 214 219 l 1
 214.5 219 215 219 215.5 219 c 0
189.5 210.5 m 2
 190 210.5 190.5 210.5 190.5 210 c 2
 190.5 209 l 2
 190.5 208.899414062 189.915039062 205.219726562 186 200 c 1
 185 203 182 209.5 182 209.5 c 1
 182 210 l 2
 182 210.5 183 210.5 183.5 210.5 c 2
 183.5 210.5 184 210 186.5 208.5 c 1
 189.5 210.5 l 2
217 196.5 m 1
 215 199 l 1
 215 200 l 1
 215.5 200 l 1
 218 201 220 201.5 222 202 c 1
 222 189 l 1
 269.5 189 l 1
 269.5 189 270.5 189.5 271.5 189.5 c 0
 272.5 189.5 272.5 189 272.5 189 c 2
 272.5 188.776367188 272.400390625 188.552734375 272.200195312 188.10546875 c 0
 271.953125 187.552734375 271.552734375 186.658203125 271 185 c 0
 270.928710938 185.0234375 268.098632812 185.947265625 264.875976562 185.947265625 c 0
 260.54296875 185.947265625 255.5 184.27734375 255.5 176.5 c 1
 255.5 176.5 256.3203125 166.657226562 267.24609375 166.657226562 c 0
 268.384765625 166.657226562 269.631835938 166.763671875 271 167 c 1
 271 164.5 l 1
 262 163 l 1
 254.3671875 163 250.258789062 169.827148438 250.258789062 176.3203125 c 0
 250.258789062 179.610351562 251.314453125 182.814453125 253.5 185 c 1
 246 185 l 1
 246 170.5 l 1
 244 163.5 235.5 163 235.5 163 c 1
 228.5 163 227.5 169 227.5 171 c 2
 227.5 185 l 1
 222 185 l 1
 222 151.5 l 1
 220.5 150.5 219 150 217 149.5 c 1
 217 185 l 1
 211.5 185 l 1
 211.5 164 l 1
 210.362304688 163.241210938 209.512695312 163.05859375 208.295898438 162.795898438 c 0
 207.908203125 162.712890625 207.483398438 162.62109375 207 162.5 c 1
 207 185 l 1
 201.5 185 l 1
 201.5 168.5 l 1
 203 164 l 1
 201.97265625 163.315429688 200.711914062 163.099609375 199.375976562 162.87109375 c 0
 198.76171875 162.765625 198.130859375 162.657226562 197.5 162.5 c 1
 197 164.5 l 1
 195.5 163.5 190 162.5 187.5 162.5 c 0
 180 162.5 179.5 171 179.5 172 c 2
 179.5 185 l 1
 174 185 l 1
 174 170.5 l 1
 172 163.5 163.5 163 163.5 163 c 1
 159 162 155.5 166 155.5 171 c 2
 155.5 185 l 1
 146 185 l 1
 145 185.5 l 1
 145 187 145 187.5 151.5 193 c 1
 152.5 192 153.5 190.5 154.5 189 c 1
 196.5 189 l 1
 196.5 196.5 l 1
 196.5 196.5 194 198.5 194 199 c 0
 194.021484375 199.04296875 194.041992188 199.083984375 194.061523438 199.125 c 0
 194.510742188 200.04296875 194.754882812 200.54296875 200.5 201.5 c 0
 201 201.5 201 202 201 202 c 1
 201.5 202 l 1
 201.5 189 l 1
 217 189 l 1
 217 196.5 l 1
291.5 195.5 m 1
 291.5 156 l 1
 283 156 l 1
 283 195.5 l 1
 291.5 195.5 l 1
165 167 m 0
 167.5 167 169.5 168 169.5 171.5 c 2
 169.5 185 l 1
 160.5 185 l 1
 160.5 180.5 160.5 177 160.5 172.5 c 0
 160.5 167 164.5 167 165 167 c 0
184.5 185 m 1
 184.5 173 l 2
 184.5 172 186 168 187.5 167 c 1
 193.5 167 l 1
 194.5 167.5 195.5 168 196.5 169 c 1
 196.5 185 l 1
 184.5 185 l 1
237 167 m 0
 238.5 167 241.5 167 241.5 171.5 c 2
 241.5 185 l 1
 232.5 185 l 1
 232.5 173.5 l 2
 232.5 171.5 232.5 167 237 167 c 0
206 159 m 2
 206 159 206.5 158.5 209.5 157 c 1
 213.5 158.5 l 1
 213.5 157 l 1
 209 149 l 1
 208.5 150 208 151 205 158 c 1
 205 158.5 l 2
 205 159 205.5 159 206 159 c 2
291.5 147.5 m 1
 291.5 107 l 1
 283 107 l 1
 283 147.5 l 1
 291.5 147.5 l 1
291.5 98 m 1
 291.5 59.5 l 1
 283 59.5 l 1
 283 98 l 1
 291.5 98 l 1
291.5 51 m 1
 291.5 6 l 1
 255.5 6 l 1
 255.5 14.5 l 1
 283 14.5 l 1
 283 51 l 1
 291.5 51 l 1
172 14.5 m 1
 207.5 14.5 l 1
 207.5 6 l 1
 172 6 l 1
 172 14.5 l 1
214 14.5 m 1
 249.5 14.5 l 1
 249.5 6 l 1
 214 6 l 1
 214 14.5 l 1
EndSplineSet
Validated: 1
EndChar

StartChar: a.init
Encoding: 264 57344 104
GlifName: a.init
Width: 540
VWidth: 800
Flags: HW
HStem: 137.35 26.604<251.507 328.274> 331.748 17.9458<388.706 419.76> 333.439 20.3966<246.174 325.701>
VStem: 163.779 40.521<211.377 296.126> 348.075 40.6303<176.065 316.344 349.694 422.703>
LayerCount: 2
Fore
SplineSet
351.5859375 155.9375 m 1xd8
 349.865234375 155.2890625 298.849609375 137.349609375 281.678710938 137.349609375 c 0
 217.112304688 137.349609375 163.779296875 174.859375 163.779296875 248.411132812 c 0
 163.779296875 300.114257812 191.458007812 320.877929688 213.639648438 333.716796875 c 0
 220.885742188 336.610351562 266.2421875 350.1953125 275.896484375 351.89453125 c 0
 283.045898438 353.153320312 290.80859375 353.8359375 298.885742188 353.8359375 c 0xb8
 314.813476562 353.8359375 331.967773438 351.182617188 348.075195312 345.061523438 c 1
 348.075195312 422.704101562 l 1
 330.068359375 442.85546875 l 1
 345.65625 447.719726562 372.171875 454.064453125 388.705078125 456.322265625 c 1
 388.705078125 349.694335938 l 1
 419.759765625 349.694335938 l 1
 419.759765625 331.749023438 l 1
 388.705078125 331.748046875 l 1
 388.705078125 176.065429688 l 1
 405.626953125 153.1796875 l 1
 392.827148438 146.866210938 373.590820312 141.439453125 356.939453125 138.66015625 c 1
 351.5859375 155.9375 l 1xd8
348.075195312 307.826171875 m 1
 327.53515625 328.31640625 298.14453125 333.439453125 278.54296875 333.439453125 c 0
 236.630859375 333.439453125 204.30078125 301.182617188 204.30078125 257.400390625 c 0
 204.30078125 199.083007812 246.529296875 163.954101562 295.140625 163.954101562 c 0
 313.317382812 163.954101562 332.772460938 169.66015625 348.075195312 181.506835938 c 1
 348.075195312 307.826171875 l 1
EndSplineSet
Validated: 1
EndChar

StartChar: a.fina
Encoding: 265 57346 105
GlifName: a.fina
Width: 530
VWidth: 800
Flags: HW
HStem: -66.6146 10.5G<150.611 157.383> 233.24 17.9458<119.558 150.322> 235.201 21.3948<244.1 315.801> 256.254 10G<184.248 192.909>
VStem: 150.611 40.6309<-53.7411 46.9569 68.8425 210.567 229.15 232.714> 332.15 42.0928<146.863 219.459>
LayerCount: 2
Fore
SplineSet
280.084960938 256.146484375 m 1xdc
 284.7578125 256.4453125 289.288085938 256.596679688 293.66796875 256.596679688 c 0xac
 343.716796875 256.596679688 374.243164062 236.939453125 374.243164062 194.232421875 c 0
 374.243164062 128.536132812 317.419921875 87.4658203125 268.922851562 69.287109375 c 0
 224.688476562 52.70703125 207.286132812 47.1787109375 191.2421875 44.927734375 c 1
 191.2421875 -52.095703125 l 1
 180.375976562 -57.962890625 164.154296875 -63.736328125 150.611328125 -66.6142578125 c 1
 150.611328125 233.240234375 l 1
 119.557617188 233.240234375 l 1
 119.557617188 251.186523438 l 1
 142.01171875 251.186523438 l 1
 160.18359375 257.635742188 175.188476562 262.1171875 193.307617188 266.25390625 c 1
 192.51171875 259.62890625 191.716796875 244.373046875 191.393554688 229.150390625 c 1
 235.162109375 244.250976562 266.909179688 252.8671875 280.084960938 256.146484375 c 1xdc
191.2421875 68.8427734375 m 1
 192.39453125 68.806640625 193.5546875 68.7890625 194.719726562 68.7890625 c 0
 255.48828125 68.7890625 332.150390625 116.817382812 332.150390625 185.959960938 c 0
 332.150390625 225.717773438 305.631835938 235.201171875 274.245117188 235.201171875 c 0
 243.640625 235.201171875 203.274414062 214.37890625 191.2421875 202.443359375 c 1
 191.2421875 68.8427734375 l 1
EndSplineSet
Validated: 1
EndChar

StartChar: b.init
Encoding: 266 57347 106
GlifName: b.init
Width: 493
VWidth: 800
Flags: HW
HStem: -63.1891 10.5G<307.292 314.064> 42.7082 22.6248<219.701 290.103> 136.649 53.2265<243.234 285.886> 236.666 17.9461<198.342 378.918>
VStem: 155.586 40.6303<89.8387 230.249> 237.947 53.2265<141.936 184.588> 307.292 40.6309<-50.3156 59.7617>
LayerCount: 2
Fore
SplineSet
291.172851562 163.26171875 m 0
 291.172851562 148.564453125 279.258789062 136.6484375 264.559570312 136.6484375 c 0
 249.862304688 136.6484375 237.946289062 148.564453125 237.946289062 163.26171875 c 0
 237.946289062 177.9609375 249.862304688 189.875 264.559570312 189.875 c 0
 279.258789062 189.875 291.172851562 177.9609375 291.172851562 163.26171875 c 0
307.291992188 59.76171875 m 1
 286.793945312 52.08203125 261.717773438 42.7080078125 233.033203125 42.7080078125 c 0
 184.94921875 42.7080078125 155.5859375 70.9189453125 155.5859375 121.62890625 c 2
 155.5859375 230.249023438 l 1
 134.72265625 252.62890625 l 1
 146.21484375 259.095703125 171.490234375 271.555664062 185.086914062 276.533203125 c 1
 198.341796875 254.612304688 l 1
 378.977539062 254.612304688 l 1
 378.977539062 236.666015625 l 1
 378.977539062 236.666015625 297.75 236.666015625 243.598632812 236.666015625 c 0
 216.5234375 236.666015625 196.216796875 236.666015625 196.215820312 236.666015625 c 6
 196.215820312 133.40625 l 6
 196.215820312 92.169921875 215.217773438 65.3330078125 256.9296875 65.3330078125 c 0
 273.448242188 65.3330078125 291.135742188 72.8935546875 307.291992188 91.3984375 c 1
 322.510742188 95.541015625 337.319335938 99.068359375 351.821289062 102.135742188 c 1
 350.879882812 95.5498046875 347.922851562 71.00390625 347.922851562 57.697265625 c 2
 347.922851562 -48.669921875 l 1
 337.055664062 -54.537109375 320.8359375 -60.310546875 307.291992188 -63.189453125 c 1
 307.291992188 59.76171875 l 1
EndSplineSet
Validated: 1
EndChar

StartChar: b.medi
Encoding: 267 57348 107
GlifName: b.medi
Width: 445
VWidth: 800
Flags: HW
HStem: 137.927 22.9063<194.447 252.878> 329.419 17.9458<107.318 138.081 308.597 337.525> 352.436 10G<172.007 180.55> 393.205 53.2265<201.508 244.16>
VStem: 138.37 40.6303<177.092 329.307> 196.221 53.2265<398.493 441.145> 265.841 40.6303<177.526 323.003>
LayerCount: 2
Fore
SplineSet
249.447265625 419.818359375 m 0
 249.447265625 405.120117188 237.532226562 393.205078125 222.833984375 393.205078125 c 0
 208.135742188 393.205078125 196.220703125 405.120117188 196.220703125 419.818359375 c 0
 196.220703125 434.516601562 208.135742188 446.431640625 222.833984375 446.431640625 c 0
 237.532226562 446.431640625 249.447265625 434.516601562 249.447265625 419.818359375 c 0
306.470703125 329.418945312 m 1
 306.470703125 221.643554688 l 2
 306.470703125 180.236328125 288.52734375 164.828125 269.362304688 155.64453125 c 0
 258.1484375 150.270507812 229.725585938 137.926757812 205.3203125 137.926757812 c 0
 172.819335938 137.926757812 138.370117188 154.674804688 138.370117188 205.994140625 c 2
 138.370117188 329.419921875 l 1
 107.317382812 329.419921875 l 1
 107.317382812 347.366210938 l 1
 129.771484375 347.3671875 l 1
 147.942382812 353.817382812 162.947265625 358.298828125 181.06640625 362.435546875 c 1
 180.034179688 353.83203125 179 330.686523438 179 311.94921875 c 2
 179 217.771484375 l 2
 179 176.53515625 198.142578125 160.833007812 224.72265625 160.833007812 c 0
 247.69921875 160.833007812 265.840820312 175.171875 265.840820312 209.866210938 c 2
 265.840820312 323.002929688 l 1
 244.9765625 345.3828125 l 1
 256.46875 351.849609375 281.745117188 364.307617188 295.341796875 369.284179688 c 1
 308.596679688 347.365234375 l 1
 337.525390625 347.365234375 l 1
 337.525390625 329.418945312 l 1
 306.470703125 329.418945312 l 1
EndSplineSet
Validated: 1
EndChar

StartChar: b.fina
Encoding: 268 57349 108
GlifName: b.fina
Width: 440
VWidth: 800
Flags: HW
HStem: 90.5387 19.5615<219.942 282.498> 176.024 53.2265<218.188 260.841> 281.655 17.9458<98.6143 177.608 188.507 301.538>
VStem: 116.779 40.5566<167.4 246.576> 212.901 53.2265<181.311 223.963>
LayerCount: 2
Fore
SplineSet
266.127929688 202.637695312 m 0
 266.127929688 187.939453125 254.212890625 176.024414062 239.514648438 176.024414062 c 0
 224.81640625 176.024414062 212.901367188 187.939453125 212.901367188 202.637695312 c 0
 212.901367188 217.3359375 224.81640625 229.250976562 239.514648438 229.250976562 c 0
 254.212890625 229.250976562 266.127929688 217.3359375 266.127929688 202.637695312 c 0
311.416992188 302.764648438 m 1
 302.279296875 276.302734375 l 1
 286.477539062 280.537109375 269.603515625 284.6875 241.673828125 284.6875 c 0
 185.111328125 284.6875 157.3359375 259.583984375 157.3359375 212.931640625 c 0
 157.3359375 149.247070312 207.66796875 110.100585938 267.926757812 110.100585938 c 0
 278.244140625 110.100585938 288.8515625 111.248046875 299.548828125 113.616210938 c 1
 299.548828125 104.323242188 l 1
 257.310546875 94.0966796875 l 2
 247.4140625 91.7001953125 237.514648438 90.5390625 227.811523438 90.5390625 c 0
 168.662109375 90.5390625 116.779296875 133.705078125 116.779296875 203.484375 c 0
 116.779296875 242.04296875 137.501953125 270.0546875 169.880859375 279.504882812 c 0
 172.245117188 280.194335938 174.279296875 280.763671875 177.608398438 281.655273438 c 1
 98.6142578125 281.655273438 l 1
 98.6142578125 299.6015625 l 1
 255.934570312 299.6015625 l 2
 267.657226562 299.6015625 303.388671875 302.15625 311.416992188 302.764648438 c 1
EndSplineSet
Validated: 1
EndChar

StartChar: c.init
Encoding: 269 57350 109
GlifName: c.init
Width: 424
VWidth: 800
Flags: HW
HStem: -63.1925 10.5G<138.012 144.784> 42.7954 10.5G<254.573 261.345> 236.664 17.9463<180.768 254.573 295.204 326.26>
VStem: 138.012 40.6309<-50.3195 230.247> 254.573 40.6309<55.6687 236.664>
LayerCount: 2
Fore
SplineSet
178.643554688 236.6640625 m 1
 178.643554688 -48.6748046875 l 1
 167.776367188 -54.541015625 151.556640625 -60.3134765625 138.012695312 -63.1923828125 c 1
 138.012695312 230.247070312 l 1
 117.1484375 252.627929688 l 1
 128.641601562 259.094726562 153.916992188 271.552734375 167.514648438 276.530273438 c 1
 180.767578125 254.610351562 l 1
 326.259765625 254.610351562 l 1
 326.259765625 236.6640625 l 1
 295.204101562 236.6640625 l 1
 295.204101562 57.3134765625 l 1
 284.338867188 51.447265625 268.1171875 45.673828125 254.573242188 42.794921875 c 1
 254.573242188 236.6640625 l 1
 178.643554688 236.6640625 l 1
EndSplineSet
Validated: 1
EndChar

StartChar: c.medi
Encoding: 270 57351 110
GlifName: c.medi
Width: 423
VWidth: 800
Flags: HW
HStem: -74.1522 10.5G<132.918 139.69> 31.8357 10.5G<249.479 256.251> 225.705 17.9458<101.865 132.918 173.549 249.479 290.11 321.166>
VStem: 132.918 40.6309<-61.2792 225.705> 249.479 40.6309<44.709 225.705>
LayerCount: 2
Fore
SplineSet
101.865234375 243.651367188 m 1
 321.166015625 243.651367188 l 1
 321.166015625 225.705078125 l 1
 290.110351562 225.705078125 l 1
 290.110351562 46.3544921875 l 1
 279.244140625 40.4873046875 263.0234375 34.7138671875 249.479492188 31.8359375 c 1
 249.479492188 225.705078125 l 1
 173.548828125 225.705078125 l 1
 173.548828125 -59.6337890625 l 1
 162.681640625 -65.5009765625 146.461914062 -71.2734375 132.91796875 -74.15234375 c 1
 132.91796875 225.705078125 l 1
 101.865234375 225.705078125 l 1
 101.865234375 243.651367188 l 1
EndSplineSet
Validated: 1
EndChar

StartChar: c.fina
Encoding: 271 57352 111
GlifName: c.fina
Width: 424
VWidth: 800
Flags: HW
HStem: -66.6886 10.5G<118.423 125.194> 39.2993 10.5G<234.983 241.755> 233.099 17.8748<87.3694 118.423 159.053 234.693> 256.042 10G<268.619 277.162>
VStem: 118.423 40.6309<-53.8156 233.099> 234.983 40.6309<52.1726 232.912>
LayerCount: 2
Fore
SplineSet
277.678710938 266.041992188 m 1
 276.646484375 257.439453125 275.614257812 234.291992188 275.614257812 215.553710938 c 2
 275.614257812 53.8173828125 l 1
 264.747070312 47.951171875 248.52734375 42.177734375 234.983398438 39.298828125 c 1
 234.983398438 233.024414062 l 1
 159.053710938 233.098632812 l 1
 159.053710938 -52.1708984375 l 1
 148.186523438 -58.037109375 131.965820312 -63.8095703125 118.422851562 -66.6884765625 c 1
 118.422851562 233.138671875 l 1
 87.369140625 233.168945312 l 1
 87.369140625 251.114257812 l 1
 226.383789062 250.973632812 l 1
 244.5546875 257.422851562 259.559570312 261.904296875 277.678710938 266.041992188 c 1
EndSplineSet
Validated: 1
EndChar

StartChar: d.init
Encoding: 272 57353 112
GlifName: d.init
Width: 190
VWidth: 800
Flags: HW
HStem: -20.839 10.5G<81.1594 87.9312> 279.018 17.946<121.79 152.844>
VStem: 81.1594 40.6309<-7.96552 279.018 296.964 369.974>
LayerCount: 2
Fore
SplineSet
121.790039062 296.96484375 m 1
 152.84375 296.96484375 l 1
 152.84375 279.018554688 l 1
 121.790039062 279.018554688 l 1
 121.790039062 -6.3203125 l 1
 110.922851562 -12.1865234375 94.703125 -17.9599609375 81.1591796875 -20.8388671875 c 1
 81.1591796875 369.973632812 l 1
 63.1533203125 390.125976562 l 1
 78.7412109375 394.990234375 105.255859375 401.334960938 121.790039062 403.592773438 c 1
 121.790039062 296.96484375 l 1
EndSplineSet
Validated: 1
EndChar

StartChar: d.medi
Encoding: 273 57354 113
GlifName: d.medi
Width: 190
VWidth: 800
Flags: HW
HStem: -20.839 10.5G<74.6375 81.4092> 279.018 17.9458<43.5833 74.6375 115.268 146.322>
VStem: 74.6375 40.6303<-7.96552 279.018 296.964 369.974>
LayerCount: 2
Fore
SplineSet
74.6376953125 296.963867188 m 1
 74.6376953125 369.973632812 l 1
 56.630859375 390.125976562 l 1
 72.21875 394.990234375 98.7333984375 401.334960938 115.267578125 403.592773438 c 1
 115.267578125 296.963867188 l 1
 146.322265625 296.963867188 l 1
 146.322265625 279.018554688 l 1
 115.267578125 279.018554688 l 1
 115.267578125 -6.3203125 l 1
 104.401367188 -12.1865234375 88.1806640625 -17.9599609375 74.6376953125 -20.8388671875 c 1
 74.6376953125 279.018554688 l 1
 43.5830078125 279.018554688 l 1
 43.5830078125 296.963867188 l 1
 74.6376953125 296.963867188 l 1
EndSplineSet
Validated: 1
EndChar

StartChar: d.fina
Encoding: 274 57355 114
GlifName: d.fina
Width: 190
VWidth: 800
Flags: HW
HStem: -20.839 10.5G<59.1099 65.8816> 279.018 17.9463<28.0562 59.1099>
VStem: 59.1099 40.6309<-7.96552 279.018 296.964 369.974>
LayerCount: 2
Fore
SplineSet
99.740234375 403.592773438 m 1
 99.740234375 -6.3203125 l 1
 88.873046875 -12.1865234375 72.6533203125 -17.9599609375 59.109375 -20.8388671875 c 1
 59.109375 279.018554688 l 1
 28.0556640625 279.018554688 l 1
 28.0556640625 296.96484375 l 5
 59.109375 296.96484375 l 5
 59.109375 369.973632812 l 1
 41.103515625 390.125976562 l 1
 56.69140625 394.990234375 83.20703125 401.334960938 99.740234375 403.592773438 c 1
EndSplineSet
Validated: 1
EndChar

StartChar: e.init
Encoding: 275 57356 115
GlifName: e.init
Width: 190
VWidth: 800
Flags: HW
HStem: -63.1925 10.5G<79.731 86.503> 236.664 17.9458<122.487 151.415>
VStem: 79.731 40.6309<-50.3195 230.247>
LayerCount: 2
Fore
SplineSet
120.361328125 236.6640625 m 5
 120.361328125 -48.6748046875 l 1
 109.494140625 -54.541015625 93.275390625 -60.3134765625 79.73046875 -63.1923828125 c 1
 79.73046875 230.247070312 l 5
 58.8671875 252.627929688 l 1
 70.359375 259.094726562 95.6357421875 271.552734375 109.232421875 276.530273438 c 1
 122.487304688 254.610351562 l 1
 151.416015625 254.610351562 l 1
 151.416015625 236.6640625 l 5
 120.361328125 236.6640625 l 5
EndSplineSet
Validated: 1
EndChar

StartChar: e.medi
Encoding: 276 57357 116
GlifName: e.medi
Width: 445
VWidth: 800
Flags: HW
HStem: 88.3955 22.9074<194.449 252.877> 279.887 17.9461<107.319 138.372 179.002 265.843 306.473 337.526>
VStem: 138.372 40.6303<127.56 279.887> 265.843 40.6309<127.995 279.888>
LayerCount: 2
Fore
SplineSet
107.318359375 297.833984375 m 1
 337.526367188 297.833984375 l 1
 337.526367188 279.887695312 l 1
 306.473632812 279.887695312 l 1
 306.473632812 172.112304688 l 2
 306.473632812 130.705078125 288.529296875 115.297851562 269.364257812 106.11328125 c 0
 258.142578125 100.736328125 229.723632812 88.3955078125 205.321289062 88.3955078125 c 0
 172.821289062 88.3955078125 138.372070312 105.142578125 138.372070312 156.461914062 c 2
 138.372070312 279.887695312 l 1
 107.318359375 279.887695312 l 1
 107.318359375 297.833984375 l 1
179.001953125 279.887695312 m 1
 179.001953125 168.239257812 l 2
 179.001953125 127.002929688 198.143554688 111.302734375 224.724609375 111.302734375 c 0
 247.701171875 111.302734375 265.842773438 125.640625 265.842773438 160.334960938 c 2
 265.842773438 279.887695312 l 1
 179.001953125 279.887695312 l 1
EndSplineSet
Validated: 1
EndChar

StartChar: e.fina
Encoding: 277 57358 117
GlifName: e.fina
Width: 344
VWidth: 800
Flags: HW
HStem: -66.6191 10.5G<105.017 111.789> 128.214 17.9458<145.648 227.837> 233.238 17.9463<73.9639 104.728> 256.252 10G<138.653 147.196>
VStem: 105.017 40.6309<-53.7456 128.214 146.16 233.123>
LayerCount: 2
Fore
SplineSet
237.461914062 149.323242188 m 1
 228.323242188 122.861328125 l 1
 218.170898438 125.614257812 194.22265625 128.213867188 183.680664062 128.213867188 c 2
 145.647460938 128.213867188 l 1
 145.647460938 -52.1005859375 l 1
 134.78125 -57.966796875 118.560546875 -63.740234375 105.017578125 -66.619140625 c 1
 105.017578125 233.23828125 l 1
 73.9638671875 233.23828125 l 1
 73.9638671875 251.184570312 l 1
 96.41796875 251.184570312 l 1
 114.588867188 257.633789062 129.59375 262.115234375 147.711914062 266.252929688 c 1
 146.680664062 257.650390625 145.647460938 234.502929688 145.647460938 215.764648438 c 2
 145.647460938 146.16015625 l 1
 183.924804688 146.16015625 l 2
 195.646484375 146.16015625 229.432617188 148.71484375 237.461914062 149.323242188 c 1
EndSplineSet
Validated: 1
EndChar

StartChar: f.init
Encoding: 278 57359 118
GlifName: f.init
Width: 675
VWidth: 800
Flags: HW
HStem: -63.1928 10.5G<202.3 209.072> 43.7735 20.0993<366.357 425.592> 236.665 17.9463<487.336 516.265> 239.088 19.6345<276.764 361.87> 259.679 10G<234.664 242.931>
VStem: 202.3 40.6303<-50.3193 227.948> 294.121 40.4385<94.4074 169.733> 444.581 40.6309<85.5048 230.248>
LayerCount: 2
Fore
SplineSet
242.930664062 238.40234375 m 1xdf
 268.82421875 246.913085938 291.77734375 253.553710938 307.036132812 257.328125 c 0
 314.569335938 258.270507812 322.055664062 258.72265625 329.422851562 258.72265625 c 0xdf
 359.1953125 258.72265625 387.026367188 251.34375 408.212890625 239.135742188 c 1
 408.212890625 229.935546875 l 1
 365.810546875 210.049804688 334.559570312 172.501953125 334.559570312 130.7109375 c 0
 334.559570312 86.8076171875 370.702148438 63.873046875 398.755859375 63.873046875 c 0
 420.510742188 63.873046875 444.581054688 82.3896484375 444.581054688 119.146484375 c 2
 444.581054688 230.248046875 l 1
 423.717773438 252.627929688 l 1
 435.209960938 259.094726562 460.484375 271.5546875 474.08203125 276.53125 c 1
 487.334960938 254.611328125 l 1
 516.264648438 254.611328125 l 1
 516.264648438 236.665039062 l 1
 485.211914062 236.665039062 l 25xef
 485.211914062 128.603515625 l 2
 485.211914062 82.6689453125 455.979492188 55.4150390625 428.422851562 50.482421875 c 0
 422.588867188 49.4384765625 390.904296875 43.7734375 376.9765625 43.7734375 c 0
 340.916992188 43.7734375 294.120117188 67.9794921875 294.120117188 121.548828125 c 0
 294.120117188 168.2734375 319.950195312 204.12109375 365.19921875 227.8828125 c 1
 351.405273438 235.405273438 333.413085938 239.087890625 311.166015625 239.087890625 c 0
 292.2109375 239.087890625 263.748046875 233.620117188 242.930664062 223.579101562 c 1
 242.930664062 -48.673828125 l 1
 232.063476562 -54.541015625 215.84375 -60.3134765625 202.299804688 -63.1923828125 c 1
 202.299804688 236.061523438 l 1
 184.29296875 256.211914062 l 1
 199.881835938 261.077148438 226.396484375 267.420898438 242.930664062 269.6796875 c 1
 242.930664062 238.40234375 l 1xdf
EndSplineSet
Validated: 1
EndChar

StartChar: f.medi
Encoding: 279 57360 119
GlifName: f.medi
Width: 190
VWidth: 800
Flags: HW
HStem: -74.153 10.5G<74.6377 81.4094> 225.705 17.9458<43.584 74.6377 115.268 146.322>
VStem: 74.6377 40.6303<-61.2795 225.705>
LayerCount: 2
Fore
SplineSet
43.583984375 243.650390625 m 1
 146.322265625 243.650390625 l 1
 146.322265625 225.705078125 l 1
 115.267578125 225.705078125 l 1
 115.267578125 -59.634765625 l 1
 104.401367188 -65.5009765625 88.181640625 -71.2734375 74.6376953125 -74.15234375 c 1
 74.6376953125 225.705078125 l 1
 43.583984375 225.705078125 l 1
 43.583984375 243.650390625 l 1
EndSplineSet
Validated: 1
EndChar

StartChar: f.fina
Encoding: 280 57361 120
GlifName: f.fina
Width: 472
VWidth: 800
Flags: HW
HStem: -66.6198 10.5G<130.663 137.435> 42.8872 10.5G<252.32 280.712> 79.1577 9.73195<202.861 228.409> 233.238 17.9463<99.6101 271.414> 256.252 10G<305.339 313.883>
VStem: 130.663 40.6309<-53.7458 168.477> 271.703 40.6309<86.5021 233.123>
LayerCount: 2
Fore
SplineSet
202.860351562 88.8896484375 m 1
 202.930664062 88.88671875 203.770507812 88.8369140625 205.196289062 88.75390625 c 0
 215.03515625 88.17578125 252.790039062 85.958984375 258.49609375 85.958984375 c 0
 268.216796875 85.958984375 271.703125 88.80078125 271.703125 96.951171875 c 2
 271.703125 233.23828125 l 1
 99.6103515625 233.23828125 l 1
 99.6103515625 251.184570312 l 1
 263.104492188 251.184570312 l 1
 281.275390625 257.633789062 296.279296875 262.115234375 314.3984375 266.251953125 c 1
 313.366210938 257.650390625 312.333984375 234.501953125 312.333984375 215.763671875 c 2
 312.333984375 89.216796875 l 2
 312.333984375 59.701171875 305.38671875 48.18359375 256.036132812 42.88671875 c 1
 248.602539062 69.830078125 238.41015625 74.849609375 202.860351562 79.158203125 c 1
 202.860351562 88.8896484375 l 1
171.293945312 202.094726562 m 1
 171.293945312 -52.1005859375 l 1
 160.426757812 -57.966796875 144.206054688 -63.740234375 130.663085938 -66.619140625 c 1
 130.663085938 168.4765625 l 1
 112.65625 188.626953125 l 1
 128.244140625 193.4921875 154.759765625 199.8359375 171.293945312 202.094726562 c 1
EndSplineSet
Validated: 1
EndChar

StartChar: g.init
Encoding: 281 57362 121
GlifName: g.init
Width: 423
VWidth: 800
Flags: HW
HStem: -24.6193 10.5G<138.012 144.784> 81.3687 10.5G<254.573 261.345> 275.238 17.9458<180.768 254.573 295.204 326.26> 339.023 53.2265<195.281 237.934>
VStem: 138.012 40.6309<-11.7463 268.821> 189.994 53.227<344.311 386.963> 254.573 40.6309<94.242 275.238>
LayerCount: 2
Fore
SplineSet
243.220703125 365.63671875 m 0
 243.220703125 350.938476562 231.305664062 339.0234375 216.607421875 339.0234375 c 0
 201.909179688 339.0234375 189.994140625 350.938476562 189.994140625 365.63671875 c 0
 189.994140625 380.334960938 201.909179688 392.25 216.607421875 392.25 c 0
 231.305664062 392.25 243.220703125 380.334960938 243.220703125 365.63671875 c 0
178.643554688 275.23828125 m 1
 178.643554688 -10.1015625 l 1
 167.776367188 -15.9677734375 151.556640625 -21.740234375 138.012695312 -24.619140625 c 1
 138.012695312 268.8203125 l 1
 117.1484375 291.201171875 l 1
 128.640625 297.66796875 153.916992188 310.125976562 167.514648438 315.103515625 c 1
 180.767578125 293.18359375 l 1
 326.259765625 293.18359375 l 1
 326.259765625 275.23828125 l 1
 295.204101562 275.23828125 l 1
 295.204101562 95.88671875 l 1
 284.337890625 90.0205078125 268.1171875 84.2470703125 254.573242188 81.3681640625 c 1
 254.573242188 275.23828125 l 1
 178.643554688 275.23828125 l 1
EndSplineSet
Validated: 1
EndChar

StartChar: g.medi
Encoding: 282 57363 122
GlifName: g.medi
Width: 424
VWidth: 800
Flags: HW
HStem: -24.6193 10.5G<132.918 139.69> 81.3687 10.5G<249.479 256.251> 275.238 17.9458<101.865 132.918 173.549 249.479 290.11 321.166> 339.023 53.2265<190.187 232.839>
VStem: 132.918 40.6313<-11.7463 275.238> 184.9 53.2265<344.311 386.963> 249.479 40.6303<94.242 275.238>
LayerCount: 2
Fore
SplineSet
238.126953125 365.63671875 m 0
 238.126953125 350.938476562 226.2109375 339.0234375 211.513671875 339.0234375 c 0
 196.814453125 339.0234375 184.900390625 350.938476562 184.900390625 365.63671875 c 0
 184.900390625 380.334960938 196.814453125 392.25 211.513671875 392.25 c 0
 226.2109375 392.25 238.126953125 380.334960938 238.126953125 365.63671875 c 0
101.865234375 293.18359375 m 1
 321.166015625 293.18359375 l 1
 321.166015625 275.23828125 l 1
 290.109375 275.23828125 l 1
 290.109375 95.88671875 l 1
 279.244140625 90.0205078125 263.0234375 84.2470703125 249.479492188 81.3681640625 c 1
 249.479492188 275.23828125 l 1
 173.548828125 275.23828125 l 1
 173.548828125 -10.1015625 l 1
 162.681640625 -15.9677734375 146.461914062 -21.740234375 132.91796875 -24.619140625 c 1
 132.91796875 275.23828125 l 1
 101.865234375 275.23828125 l 1
 101.865234375 293.18359375 l 1
EndSplineSet
Validated: 1
EndChar

StartChar: g.fina
Encoding: 283 57364 123
GlifName: g.fina
Width: 423
VWidth: 800
Flags: HW
HStem: -24.6193 10.5G<118.422 125.194> 81.3687 10.5G<234.982 241.754> 275.168 17.8748<87.3684 118.422 159.052 234.693> 298.111 10G<268.618 277.161> 339.023 53.2265<175.69 218.343>
VStem: 118.422 40.6309<-11.7463 275.168> 170.403 53.227<344.311 386.963> 234.982 40.6309<94.242 274.982>
LayerCount: 2
Fore
SplineSet
223.629882812 365.63671875 m 0
 223.629882812 350.938476562 211.71484375 339.0234375 197.016601562 339.0234375 c 0
 182.318359375 339.0234375 170.403320312 350.938476562 170.403320312 365.63671875 c 0
 170.403320312 380.334960938 182.318359375 392.25 197.016601562 392.25 c 0
 211.71484375 392.25 223.629882812 380.334960938 223.629882812 365.63671875 c 0
277.677734375 308.111328125 m 1
 276.645507812 299.508789062 275.61328125 276.361328125 275.61328125 257.623046875 c 2
 275.61328125 95.88671875 l 1
 264.74609375 90.0205078125 248.526367188 84.2470703125 234.982421875 81.3681640625 c 1
 234.982421875 275.09375 l 1
 159.052734375 275.16796875 l 1
 159.052734375 -10.1015625 l 1
 148.185546875 -15.9677734375 131.965820312 -21.740234375 118.421875 -24.619140625 c 1
 118.421875 275.208007812 l 1
 87.3681640625 275.23828125 l 1
 87.3681640625 293.18359375 l 1
 226.3828125 293.04296875 l 1
 244.553710938 299.4921875 259.55859375 303.973632812 277.677734375 308.111328125 c 1
EndSplineSet
Validated: 1
EndChar

StartChar: h.init
Encoding: 284 57365 124
GlifName: h.init
Width: 590
VWidth: 800
Flags: HW
HStem: 104.798 22.9082<300.259 358.687> 296.29 17.9463<218.27 244.182 284.812 371.653 412.283 443.336>
VStem: 244.182 40.6303<143.963 296.29> 371.653 40.6303<144.397 296.29>
LayerCount: 2
Fore
SplineSet
190.708007812 347.04296875 m 1
 218.270507812 314.236328125 l 1
 443.3359375 314.236328125 l 1
 443.3359375 296.290039062 l 1
 412.283203125 296.290039062 l 1
 412.283203125 188.513671875 l 2
 412.283203125 147.106445312 394.33984375 131.700195312 375.174804688 122.516601562 c 0
 363.950195312 117.137695312 335.536132812 104.797851562 311.131835938 104.797851562 c 0
 278.631835938 104.797851562 244.181640625 121.544921875 244.181640625 172.864257812 c 2
 244.181640625 296.290039062 l 1
 141.513671875 296.290039062 l 2
 134.627929688 296.290039062 133.48046875 298.260742188 138.100585938 302.575195312 c 0
 151.338867188 314.926757812 174.733398438 334.55078125 190.708007812 347.04296875 c 1
371.65234375 296.290039062 m 1
 284.8125 296.290039062 l 1
 284.8125 184.642578125 l 2
 284.8125 143.405273438 303.954101562 127.706054688 330.53515625 127.706054688 c 0
 353.51171875 127.706054688 371.65234375 142.041992188 371.65234375 176.736328125 c 2
 371.65234375 296.290039062 l 1
EndSplineSet
Validated: 1
EndChar

StartChar: h.medi
Encoding: 285 57366 125
GlifName: h.medi
Width: 190
VWidth: 800
Flags: HW
HStem: 138.143 10.5G<74.6372 81.4092> 332.012 17.9458<43.584 74.6372 115.269 146.322>
VStem: 74.6372 40.6313<151.016 332.012 349.958 422.967>
LayerCount: 2
Fore
SplineSet
115.268554688 332.01171875 m 5
 115.268554688 152.661132812 l 1
 104.40234375 146.794921875 88.181640625 141.021484375 74.63671875 138.142578125 c 1
 74.63671875 332.01171875 l 1
 43.583984375 332.012695312 l 1
 43.583984375 349.958007812 l 1
 74.63671875 349.958007812 l 1
 74.63671875 422.967773438 l 1
 56.6318359375 443.118164062 l 1
 72.220703125 447.984375 98.734375 454.328125 115.268554688 456.5859375 c 1
 115.268554688 349.958007812 l 1
 146.322265625 349.958007812 l 1
 146.322265625 332.01171875 l 5
 115.268554688 332.01171875 l 5
EndSplineSet
Validated: 1
EndChar

StartChar: h.fina
Encoding: 286 57367 126
GlifName: h.fina
Width: 190
VWidth: 800
Flags: HW
HStem: 138.143 10.5G<59.1104 65.8823> 332.012 17.9458<28.0571 59.1104>
VStem: 59.1104 40.6313<151.016 332.012 349.958 422.967>
LayerCount: 2
Fore
SplineSet
99.7421875 456.5859375 m 1
 99.7421875 152.661132812 l 1
 88.8759765625 146.794921875 72.654296875 141.021484375 59.1103515625 138.142578125 c 1
 59.1103515625 332.01171875 l 1
 28.056640625 332.012695312 l 1
 28.056640625 349.958007812 l 5
 59.1103515625 349.958007812 l 5
 59.1103515625 422.967773438 l 1
 41.10546875 443.118164062 l 1
 56.693359375 447.984375 83.20703125 454.328125 99.7421875 456.5859375 c 1
EndSplineSet
Validated: 1
EndChar

StartChar: i.init
Encoding: 287 57368 127
GlifName: i.init
Width: 445
VWidth: 800
Flags: HW
HStem: 99.3544 22.9082<199.547 257.971> 290.847 17.9462<186.226 270.94 311.571 342.624>
VStem: 143.469 40.6303<138.519 284.43> 270.94 40.6309<138.954 290.847>
LayerCount: 2
Fore
SplineSet
311.571289062 290.846679688 m 5
 311.571289062 183.071289062 l 2
 311.571289062 141.663085938 293.626953125 126.256835938 274.462890625 117.073242188 c 0
 263.225585938 111.689453125 234.818359375 99.3544921875 210.419921875 99.3544921875 c 0
 177.918945312 99.3544921875 143.469726562 116.102539062 143.469726562 167.420898438 c 2
 143.469726562 284.4296875 l 1
 122.60546875 306.810546875 l 1
 134.09765625 313.27734375 159.373046875 325.736328125 172.970703125 330.713867188 c 1
 186.225585938 308.79296875 l 1
 342.624023438 308.79296875 l 1
 342.624023438 290.846679688 l 5
 311.571289062 290.846679688 l 5
270.940429688 290.846679688 m 1
 184.099609375 290.846679688 l 5
 184.099609375 179.19921875 l 2
 184.099609375 137.961914062 203.2421875 122.262695312 229.823242188 122.262695312 c 0
 252.799804688 122.262695312 270.940429688 136.598632812 270.940429688 171.29296875 c 2
 270.940429688 290.846679688 l 1
EndSplineSet
Validated: 1
EndChar

StartChar: i.medi
Encoding: 288 57369 128
GlifName: i.medi
Width: 397
VWidth: 800
Flags: HW
HStem: 435.885 38.3857<186.8 213.277> 435.885 17.9463<95.4692 185.83 214.233 301.984> 523.583 17.9463<199.298 273.861>
LayerCount: 2
Fore
SplineSet
171.734375 574.3359375 m 1x20
 199.297851562 541.529296875 l 1
 229.947265625 541.529296875 l 2
 241.668945312 541.529296875 275.458007812 544.083984375 283.486328125 544.692382812 c 1
 274.34765625 518.23046875 l 1
 264.196289062 520.983398438 240.247070312 523.583007812 229.705078125 523.583007812 c 2
 122.540039062 523.583007812 l 2
 115.655273438 523.583007812 114.504882812 525.553710938 119.127929688 529.868164062 c 0
 132.36328125 542.219726562 155.760742188 561.84375 171.734375 574.3359375 c 1x20
176.560546875 453.83203125 m 1x60
 179.012695312 456.229492188 197.547851562 474.271484375 199.916015625 474.271484375 c 0xa0
 202.270507812 474.271484375 220.247070312 456.791015625 223.275390625 453.83203125 c 1
 301.984375 453.83203125 l 1
 301.984375 435.885742188 l 1
 95.4697265625 435.885742188 l 1
 95.4697265625 453.83203125 l 1
 176.560546875 453.83203125 l 1x60
EndSplineSet
Validated: 1
EndChar

StartChar: i.fina
Encoding: 289 57370 129
GlifName: i.fina
Width: 320
VWidth: 800
Flags: HW
HStem: -24.9349 9.7324<69.3943 105.255> 45.6204 10.5G<95.4675 100.439> 235.044 17.9458<61.6072 157.411> 258.06 10G<191.336 199.88>
VStem: 95.4675 29.8276<54.6707 173.724> 157.701 40.6309<-17.5904 234.93>
LayerCount: 2
Fore
SplineSet
125.294921875 198.403320312 m 1
 125.294921875 56.2783203125 l 1
 117.318359375 51.9716796875 105.41015625 47.7333984375 95.4677734375 45.6201171875 c 1
 95.4677734375 173.723632812 l 1
 82.25 188.516601562 l 1
 93.693359375 192.087890625 113.157226562 196.745117188 125.294921875 198.403320312 c 1
69.39453125 -15.2021484375 m 1
 103.287109375 -16.7021484375 135.62109375 -18.1337890625 144.493164062 -18.1337890625 c 0
 154.213867188 -18.1337890625 157.701171875 -15.291015625 157.701171875 -7.1396484375 c 2
 157.701171875 235.045898438 l 1
 61.607421875 235.043945312 l 1
 61.607421875 252.990234375 l 1
 149.1015625 252.9921875 l 1
 167.272460938 259.44140625 182.27734375 263.922851562 200.395507812 268.059570312 c 1
 199.36328125 259.458007812 198.33203125 236.309570312 198.33203125 217.571289062 c 2
 198.33203125 -14.8759765625 l 2
 198.33203125 -44.390625 191.38671875 -55.9091796875 142.036132812 -61.205078125 c 1
 134.5234375 -33.9765625 134.1953125 -32.787109375 69.39453125 -24.9345703125 c 1
 69.39453125 -15.2021484375 l 1
EndSplineSet
Validated: 1
EndChar

StartChar: j.fina
Encoding: 290 57373 130
GlifName: j.fina
Width: 493
VWidth: 800
Flags: HW
HStem: 92.2331 22.6249<207.536 277.755> 286.192 17.9444<112.369 143.422 184.052 294.838> 309.208 10G<328.764 337.307>
VStem: 143.422 40.6309<139.363 286.191> 295.13 40.6285<130.507 286.079>
LayerCount: 2
Fore
SplineSet
298.578125 110.580078125 m 1
 273.321289062 100.967773438 248.831054688 92.2333984375 220.868164062 92.2333984375 c 0
 172.78515625 92.2333984375 143.421875 120.444335938 143.421875 171.153320312 c 2
 143.421875 286.19140625 l 5
 112.369140625 286.19140625 l 5
 112.369140625 304.13671875 l 1
 286.528320312 304.140625 l 1
 304.69921875 310.58984375 319.704101562 315.071289062 337.823242188 319.208984375 c 1
 336.791015625 310.606445312 335.758789062 287.458984375 335.758789062 268.720703125 c 2
 335.758789062 130.5078125 l 1
 352.680664062 107.62109375 l 1
 339.879882812 101.30859375 320.643554688 95.8818359375 303.9921875 93.1025390625 c 1
 298.578125 110.580078125 l 1
295.129882812 134.19921875 m 1
 295.127929688 286.194335938 l 1
 184.052734375 286.192382812 l 5
 184.052734375 182.930664062 l 2
 184.052734375 141.694335938 203.0546875 114.858398438 244.765625 114.858398438 c 0
 261.286132812 114.858398438 273.861328125 116.495117188 295.129882812 134.19921875 c 1
EndSplineSet
Validated: 1
EndChar

StartChar: k.init
Encoding: 291 57374 131
GlifName: k.init
Width: 566
VWidth: 800
Flags: HW
HStem: -18.7157 17.9463<197.068 271.629> 47.4418 23.234<219.911 304.585> 240.899 17.9458<405.59 433.895> 245.78 16.5176<216.594 239.499>
VStem: 271.007 41.0283<144.187 220.115> 362.21 40.6303<59.9031 84.0631 108.926 235.514>
LayerCount: 2
Fore
SplineSet
192.341796875 109.631835938 m 1xec
 199.80078125 109.551757812 199.80078125 109.551757812 203.27734375 109.551757812 c 0
 243.403320312 109.551757812 271.006835938 140.637695312 271.006835938 178.55859375 c 0
 271.006835938 221.501953125 249.153320312 245.780273438 200.49609375 245.780273438 c 0
 200.2265625 245.780273438 199.955078125 245.779296875 199.68359375 245.77734375 c 1
 199.68359375 254.477539062 l 1
 230.294921875 262.286132812 l 2
 230.947265625 262.293945312 231.595703125 262.297851562 232.240234375 262.297851562 c 0xdc
 285.076171875 262.297851562 312.03515625 237.4609375 312.03515625 187.407226562 c 0
 312.03515625 145.774414062 285.954101562 114.802734375 251.291992188 104.212890625 c 0
 250.822265625 104.069335938 215.979492188 93.9658203125 203.645507812 92.1962890625 c 1
 218.477539062 78.560546875 243.653320312 70.67578125 272.703125 70.67578125 c 0
 311.438476562 70.67578125 347.447265625 92.5595703125 362.209960938 126.838867188 c 1
 362.209960938 235.513671875 l 1
 341.345703125 257.89453125 l 1
 352.837890625 264.361328125 378.11328125 276.8203125 391.7109375 281.797851562 c 1
 405.58984375 258.844726562 l 1
 433.89453125 258.844726562 l 1
 433.89453125 240.899414062 l 1
 402.83984375 240.899414062 l 1
 402.83984375 61.5478515625 l 1
 391.97265625 55.681640625 375.752929688 49.908203125 362.209960938 47.029296875 c 1
 362.209960938 84.0634765625 l 1
 336.590820312 64.8134765625 270.627929688 48.1376953125 269.66015625 47.91015625 c 0
 266.172851562 47.595703125 262.569335938 47.44140625 258.883789062 47.44140625 c 0
 217.243164062 47.44140625 165.250976562 67.07421875 154.180664062 95.470703125 c 1
 154.180664062 100.090820312 l 1
 192.341796875 109.631835938 l 1xec
299.193359375 -51.5224609375 m 1
 271.62890625 -18.7158203125 l 1
 240.98046875 -18.7158203125 l 2
 229.2578125 -18.7158203125 195.471679688 -21.2705078125 187.442382812 -21.87890625 c 1
 196.58203125 4.5830078125 l 1
 206.732421875 1.830078125 230.681640625 -0.76953125 241.223632812 -0.76953125 c 2
 348.387695312 -0.76953125 l 2
 355.272460938 -0.76953125 356.421875 -2.740234375 351.799804688 -7.0546875 c 0
 338.564453125 -19.40625 315.166015625 -39.0302734375 299.193359375 -51.5224609375 c 1
EndSplineSet
Validated: 1
EndChar

StartChar: k.medi
Encoding: 292 57375 132
GlifName: k.medi
Width: 310
VWidth: 800
Flags: HW
HStem: -30.1912 17.9458<91.0737 143.007> 35.4668 10.5G<134.777 141.548> 229.423 17.9458<73.6528 134.777 175.407 236.531>
VStem: 134.777 40.6303<48.3406 229.423>
LayerCount: 2
Fore
SplineSet
170.571289062 -62.998046875 m 1
 143.006835938 -30.19140625 l 1
 134.985351562 -30.19140625 l 2
 123.263671875 -30.19140625 89.4775390625 -32.74609375 81.4482421875 -33.3544921875 c 1
 90.587890625 -6.892578125 l 1
 100.73828125 -9.6455078125 124.6875 -12.2451171875 135.229492188 -12.2451171875 c 2
 219.765625 -12.2451171875 l 2
 226.650390625 -12.2451171875 227.799804688 -14.2158203125 223.177734375 -18.5302734375 c 0
 209.942382812 -30.8818359375 186.543945312 -50.505859375 170.571289062 -62.998046875 c 1
73.65234375 247.369140625 m 1
 236.530273438 247.369140625 l 1
 236.530273438 229.422851562 l 1
 175.407226562 229.422851562 l 1
 175.407226562 49.986328125 l 1
 164.540039062 44.119140625 148.319335938 38.345703125 134.776367188 35.466796875 c 1
 134.776367188 229.422851562 l 1
 73.65234375 229.422851562 l 1
 73.65234375 247.369140625 l 1
EndSplineSet
Validated: 1
EndChar

StartChar: k.fina
Encoding: 293 57376 133
GlifName: k.fina
Width: 472
VWidth: 800
Flags: HW
HStem: -27.6847 10.5G<130.661 137.433> 81.8228 10.5G<252.318 280.71> 118.093 9.7324<202.859 228.407> 272.173 17.9463<99.6082 271.412> 295.187 10G<305.337 313.881> 332.305 17.9463<204.322 278.886>
VStem: 130.661 40.6303<-14.8107 207.412> 271.702 40.6309<125.437 272.058>
LayerCount: 2
Fore
SplineSet
202.859375 127.825195312 m 1
 202.9296875 127.822265625 203.767578125 127.772460938 205.192382812 127.689453125 c 0
 215.025390625 127.111328125 252.783203125 124.89453125 258.494140625 124.89453125 c 0
 268.215820312 124.89453125 271.702148438 127.736328125 271.702148438 135.88671875 c 2
 271.702148438 272.173828125 l 1
 99.6083984375 272.173828125 l 1
 99.6083984375 290.120117188 l 1
 263.102539062 290.120117188 l 1
 281.2734375 296.569335938 296.278320312 301.05078125 314.396484375 305.1875 c 1
 313.365234375 296.5859375 312.333007812 273.4375 312.333007812 254.69921875 c 2
 312.333007812 128.15234375 l 2
 312.333007812 98.63671875 305.385742188 87.1181640625 256.03515625 81.8232421875 c 1
 248.6015625 108.765625 238.408203125 113.78515625 202.859375 118.092773438 c 1
 202.859375 127.825195312 l 1
171.291992188 241.030273438 m 1
 171.291992188 -13.1650390625 l 1
 160.424804688 -19.0322265625 144.205078125 -24.8056640625 130.661132812 -27.6845703125 c 1
 130.661132812 207.412109375 l 1
 112.654296875 227.5625 l 1
 128.243164062 232.427734375 154.7578125 238.771484375 171.291992188 241.030273438 c 1
176.7578125 383.057617188 m 1
 204.322265625 350.250976562 l 1
 234.97265625 350.250976562 l 2
 246.694335938 350.250976562 280.479492188 352.805664062 288.508789062 353.4140625 c 1
 279.37109375 326.952148438 l 1
 269.219726562 329.705078125 245.270507812 332.3046875 234.729492188 332.3046875 c 2
 127.563476562 332.3046875 l 2
 120.678710938 332.3046875 119.529296875 334.275390625 124.151367188 338.58984375 c 0
 137.387695312 350.94140625 160.784179688 370.565429688 176.7578125 383.057617188 c 1
EndSplineSet
Validated: 1
EndChar

StartChar: l.init
Encoding: 294 57377 134
GlifName: l.init
Width: 566
VWidth: 800
Flags: HW
HStem: 38.5395 23.234<219.911 304.585> 231.997 17.9458<405.59 433.895> 236.878 16.5176<216.594 239.499>
VStem: 271.007 41.0283<135.285 211.213> 362.21 40.6303<51.1433 75.1606 100.024 226.612>
LayerCount: 2
Fore
SplineSet
280.15234375 -5.59375 m 5x98
 279.833984375 -6.333984375 248.258789062 -78.2294921875 245.1171875 -78.2294921875 c 4
 241.9765625 -78.2294921875 210.401367188 -6.333984375 210.083007812 -5.59375 c 5
 216.186523438 -5.59375 l 5
 245.1171875 -20.1123046875 l 5
 274.048828125 -5.59375 l 5
 280.15234375 -5.59375 l 5x98
192.341796875 100.729492188 m 1
 199.799804688 100.649414062 199.799804688 100.649414062 203.27734375 100.649414062 c 0
 243.403320312 100.649414062 271.006835938 131.735351562 271.006835938 169.65625 c 0
 271.006835938 212.599609375 249.154296875 236.877929688 200.49609375 236.877929688 c 0
 200.2265625 236.877929688 199.956054688 236.876953125 199.684570312 236.875 c 1
 199.684570312 245.575195312 l 1
 230.294921875 253.383789062 l 2
 230.947265625 253.391601562 231.595703125 253.395507812 232.240234375 253.395507812 c 0xb8
 285.076171875 253.395507812 312.03515625 228.55859375 312.03515625 178.504882812 c 0
 312.03515625 136.872070312 285.954101562 105.900390625 251.291992188 95.310546875 c 0
 250.822265625 95.1669921875 215.98046875 85.0634765625 203.645507812 83.2939453125 c 1
 218.477539062 69.658203125 243.653320312 61.7734375 272.703125 61.7734375 c 0
 311.438476562 61.7734375 347.447265625 83.6572265625 362.209960938 117.936523438 c 1
 362.209960938 226.611328125 l 1
 341.345703125 248.9921875 l 1
 352.837890625 255.458984375 378.11328125 267.91796875 391.7109375 272.895507812 c 1
 405.58984375 249.942382812 l 1
 433.89453125 249.942382812 l 1
 433.89453125 231.997070312 l 1
 402.83984375 231.997070312 l 1xd8
 402.83984375 52.7880859375 l 1
 391.97265625 46.921875 375.752929688 41.1484375 362.209960938 38.26953125 c 1
 362.209960938 75.16015625 l 1
 336.590820312 55.9111328125 270.627929688 39.2353515625 269.661132812 39.0078125 c 0
 266.173828125 38.693359375 262.569335938 38.5390625 258.884765625 38.5390625 c 0
 217.243164062 38.5390625 165.250976562 58.171875 154.180664062 86.568359375 c 1
 154.180664062 91.1884765625 l 1
 192.341796875 100.729492188 l 1
EndSplineSet
Validated: 1
EndChar

StartChar: l.medi
Encoding: 295 57378 135
GlifName: l.medi
Width: 190
VWidth: 800
Flags: HW
HStem: 26.5652 10.5G<74.6379 81.4097> 220.521 17.9458<43.5833 74.6379 115.268 146.322>
VStem: 74.6379 40.6303<39.4386 220.521>
LayerCount: 2
Fore
SplineSet
129.986328125 -17.0693359375 m 1
 129.668945312 -17.810546875 98.09375 -89.7060546875 94.9521484375 -89.7060546875 c 0
 91.8115234375 -89.7060546875 60.2353515625 -17.810546875 59.91796875 -17.0693359375 c 1
 66.021484375 -17.0693359375 l 1
 94.9521484375 -31.587890625 l 1
 123.8828125 -17.0693359375 l 1
 129.986328125 -17.0693359375 l 1
43.5830078125 238.466796875 m 1
 146.322265625 238.466796875 l 1
 146.322265625 220.520507812 l 1
 115.268554688 220.520507812 l 1
 115.268554688 41.083984375 l 1
 104.401367188 35.2177734375 88.181640625 29.4443359375 74.6376953125 26.5654296875 c 1
 74.6376953125 220.520507812 l 1
 43.5830078125 220.520507812 l 1
 43.5830078125 238.466796875 l 1
EndSplineSet
Validated: 1
EndChar

StartChar: l.fina
Encoding: 296 57379 136
GlifName: l.fina
Width: 472
VWidth: 800
Flags: HW
HStem: -15.9511 10.5G<130.662 137.434> 93.5559 10.5G<252.319 280.711> 129.826 9.7324<202.86 228.408> 283.907 17.9458<99.6091 271.413> 306.92 10G<305.338 313.882>
VStem: 130.662 40.6303<-3.07758 219.145> 271.703 40.6309<137.17 283.791>
LayerCount: 2
Fore
SplineSet
202.859375 139.55859375 m 1
 202.9296875 139.555664062 203.768554688 139.505859375 205.192382812 139.421875 c 0
 215.026367188 138.844726562 252.784179688 136.626953125 258.495117188 136.626953125 c 0
 268.215820312 136.626953125 271.703125 139.46875 271.703125 147.620117188 c 2
 271.703125 283.907226562 l 1
 99.609375 283.907226562 l 1
 99.609375 301.852539062 l 1
 263.103515625 301.852539062 l 1
 281.274414062 308.302734375 296.279296875 312.783203125 314.397460938 316.920898438 c 1
 313.365234375 308.318359375 312.333984375 285.170898438 312.333984375 266.432617188 c 2
 312.333984375 139.884765625 l 2
 312.333984375 110.370117188 305.385742188 98.8515625 256.036132812 93.5556640625 c 1
 248.602539062 120.499023438 238.409179688 125.518554688 202.859375 129.826171875 c 1
 202.859375 139.55859375 l 1
171.29296875 252.762695312 m 1
 171.29296875 -1.4326171875 l 1
 160.42578125 -7.298828125 144.206054688 -13.072265625 130.662109375 -15.951171875 c 1
 130.662109375 219.14453125 l 1
 112.655273438 239.295898438 l 1
 128.244140625 244.161132812 154.758789062 250.504882812 171.29296875 252.762695312 c 1
171.212890625 345.620117188 m 1
 171.53125 346.361328125 203.106445312 418.256835938 206.247070312 418.256835938 c 0
 209.388671875 418.256835938 240.963867188 346.361328125 241.282226562 345.620117188 c 1
 235.178710938 345.620117188 l 1
 206.247070312 360.138671875 l 1
 177.31640625 345.620117188 l 1
 171.212890625 345.620117188 l 1
EndSplineSet
Validated: 1
EndChar

StartChar: m.init
Encoding: 297 57380 137
GlifName: m.init
Width: 566
VWidth: 800
Flags: HW
HStem: -24.6173 10.5G<362.21 368.982> 81.7812 23.234<219.912 304.585> 275.238 17.9458<405.59 433.895> 280.119 16.5176<216.595 239.5> 339.023 53.2265<267.069 309.721>
VStem: 261.782 53.226<344.311 386.963> 271.008 41.0288<178.526 254.454> 362.21 40.6303<-11.7433 118.402 143.265 269.854>
LayerCount: 2
Fore
SplineSet
315.0078125 365.63671875 m 0xcd
 315.0078125 350.938476562 303.092773438 339.0234375 288.39453125 339.0234375 c 0
 273.697265625 339.0234375 261.78125 350.938476562 261.78125 365.63671875 c 0
 261.78125 380.334960938 273.697265625 392.25 288.39453125 392.25 c 0
 303.092773438 392.25 315.0078125 380.334960938 315.0078125 365.63671875 c 0xcd
192.341796875 143.970703125 m 1
 199.6796875 143.890625 199.6796875 143.890625 203.27734375 143.890625 c 0
 243.403320312 143.890625 271.0078125 174.9765625 271.0078125 212.8984375 c 0
 271.0078125 255.840820312 249.154296875 280.119140625 200.497070312 280.119140625 c 0
 200.2265625 280.119140625 199.956054688 280.119140625 199.684570312 280.1171875 c 1
 199.684570312 288.817382812 l 1
 230.294921875 296.625976562 l 2
 230.947265625 296.633789062 231.595703125 296.63671875 232.240234375 296.63671875 c 0xdb
 285.076171875 296.63671875 312.036132812 271.80078125 312.036132812 221.747070312 c 0
 312.036132812 180.11328125 285.955078125 149.141601562 251.29296875 138.552734375 c 0
 250.823242188 138.409179688 215.982421875 128.305664062 203.645507812 126.53515625 c 1
 218.477539062 112.900390625 243.653320312 105.015625 272.703125 105.015625 c 0
 311.438476562 105.015625 347.447265625 126.8984375 362.209960938 161.176757812 c 1
 362.209960938 269.853515625 l 1
 341.345703125 292.234375 l 1
 352.837890625 298.701171875 378.11328125 311.16015625 391.7109375 316.13671875 c 1
 405.58984375 293.18359375 l 1
 433.89453125 293.18359375 l 1
 433.89453125 275.23828125 l 1
 402.83984375 275.23828125 l 1xeb
 402.83984375 -10.09765625 l 1
 391.973632812 -15.96484375 375.75390625 -21.73828125 362.209960938 -24.6171875 c 1
 362.209960938 118.40234375 l 1
 336.590820312 99.1533203125 270.627929688 82.4775390625 269.661132812 82.25 c 0
 266.173828125 81.9345703125 262.569335938 81.78125 258.884765625 81.78125 c 0
 217.243164062 81.78125 165.251953125 101.413085938 154.181640625 129.810546875 c 1
 154.181640625 134.430664062 l 1
 192.341796875 143.970703125 l 1
EndSplineSet
Validated: 1
EndChar

StartChar: m.medi
Encoding: 298 57381 138
GlifName: m.medi
Width: 190
VWidth: 800
Flags: HW
HStem: -63.1627 53.2265<76.059 118.711> 35.4128 10.5G<74.6379 81.4097> 229.368 17.9458<43.5833 74.6379 115.269 146.322>
VStem: 70.7717 53.2265<-57.8757 -15.2232> 74.6379 40.6309<48.2863 229.368>
LayerCount: 2
Fore
SplineSet
43.5830078125 247.314453125 m 1xe8
 146.322265625 247.314453125 l 1
 146.322265625 229.368164062 l 1
 115.268554688 229.368164062 l 1
 115.268554688 49.931640625 l 1
 104.401367188 44.0654296875 88.181640625 38.2919921875 74.6376953125 35.4130859375 c 1
 74.6376953125 229.368164062 l 1
 43.5830078125 229.368164062 l 1
 43.5830078125 247.314453125 l 1xe8
123.998046875 -36.5498046875 m 0xf0
 123.998046875 -51.248046875 112.083007812 -63.1630859375 97.384765625 -63.1630859375 c 0
 82.6875 -63.1630859375 70.771484375 -51.248046875 70.771484375 -36.5498046875 c 0
 70.771484375 -21.8515625 82.6875 -9.9365234375 97.384765625 -9.9365234375 c 0
 112.083007812 -9.9365234375 123.998046875 -21.8515625 123.998046875 -36.5498046875 c 0xf0
EndSplineSet
Validated: 1
EndChar

StartChar: m.fina
Encoding: 299 57382 139
GlifName: m.fina
Width: 472
VWidth: 800
Flags: HW
HStem: -24.62 10.5G<130.662 137.433> 84.887 10.5G<252.318 280.71> 121.157 9.7324<202.859 228.407> 275.238 17.9458<99.6084 271.412> 298.252 10G<305.338 313.881> 339.023 53.2265<191.443 234.096>
VStem: 130.662 40.6303<-11.7465 210.476> 186.156 53.227<344.31 386.962> 271.702 40.6309<128.502 275.122>
LayerCount: 2
Fore
SplineSet
202.859375 130.889648438 m 1
 202.9296875 130.88671875 203.76953125 130.836914062 205.197265625 130.752929688 c 0
 215.038085938 130.174804688 252.791015625 127.958007812 258.495117188 127.958007812 c 0
 268.215820312 127.958007812 271.702148438 130.799804688 271.702148438 138.951171875 c 2
 271.702148438 275.23828125 l 1
 99.6083984375 275.23828125 l 1
 99.6083984375 293.18359375 l 1
 263.102539062 293.18359375 l 1
 281.2734375 299.633789062 296.278320312 304.115234375 314.397460938 308.251953125 c 1
 313.365234375 299.649414062 312.333007812 276.501953125 312.333007812 257.763671875 c 2
 312.333007812 131.216796875 l 2
 312.333007812 101.701171875 305.385742188 90.1826171875 256.03515625 84.88671875 c 1
 248.6015625 111.830078125 238.408203125 116.849609375 202.859375 121.157226562 c 1
 202.859375 130.889648438 l 1
171.291992188 244.094726562 m 1
 171.291992188 -10.1015625 l 1
 160.42578125 -15.9677734375 144.205078125 -21.7412109375 130.662109375 -24.6201171875 c 1
 130.662109375 210.475585938 l 1
 112.655273438 230.626953125 l 1
 128.243164062 235.4921875 154.7578125 241.8359375 171.291992188 244.094726562 c 1
239.383789062 365.63671875 m 0
 239.383789062 350.938476562 227.467773438 339.0234375 212.770507812 339.0234375 c 0
 198.072265625 339.0234375 186.15625 350.938476562 186.15625 365.63671875 c 0
 186.15625 380.334960938 198.072265625 392.25 212.770507812 392.25 c 0
 227.467773438 392.25 239.383789062 380.334960938 239.383789062 365.63671875 c 0
EndSplineSet
Validated: 1
EndChar

StartChar: n.fina
Encoding: 300 57385 140
GlifName: n.fina
Width: 190
VWidth: 800
Flags: HW
HStem: -66.6191 10.5G<60.1433 66.915> 233.238 17.9463<29.0896 59.8539> 256.252 10G<93.7797 102.323>
VStem: 60.1433 40.6309<-53.7456 233.123>
LayerCount: 2
Fore
SplineSet
102.838867188 266.252929688 m 1
 101.806640625 257.650390625 100.774414062 234.502929688 100.774414062 215.764648438 c 2
 100.774414062 -52.1005859375 l 1
 89.9072265625 -57.966796875 73.6865234375 -63.740234375 60.1435546875 -66.619140625 c 1
 60.1435546875 233.23828125 l 1
 29.08984375 233.23828125 l 1
 29.08984375 251.184570312 l 1
 51.5439453125 251.184570312 l 1
 69.71484375 257.634765625 84.7197265625 262.115234375 102.838867188 266.252929688 c 1
EndSplineSet
Validated: 1
EndChar

StartChar: o.init
Encoding: 301 57386 141
GlifName: o.init
Width: 493
VWidth: 800
Flags: HW
HStem: 140.312 22.6248<219.701 289.92> 334.269 17.9462<198.342 307.294 347.924 378.977> 410.219 53.2265<230.146 272.798>
VStem: 155.586 40.6309<187.442 327.852> 224.858 53.227<415.506 458.159> 307.294 40.6303<178.586 334.269>
LayerCount: 2
Fore
SplineSet
278.084960938 436.83203125 m 0
 278.084960938 422.133789062 266.169921875 410.21875 251.471679688 410.21875 c 0
 236.774414062 410.21875 224.858398438 422.133789062 224.858398438 436.83203125 c 0
 224.858398438 451.530273438 236.774414062 463.4453125 251.471679688 463.4453125 c 0
 266.169921875 463.4453125 278.084960938 451.530273438 278.084960938 436.83203125 c 0
307.293945312 334.26953125 m 1
 196.216796875 334.26953125 l 1
 196.216796875 231.009765625 l 2
 196.216796875 189.772460938 215.21875 162.936523438 256.930664062 162.936523438 c 0
 273.450195312 162.936523438 286.026367188 164.57421875 307.293945312 182.27734375 c 1
 307.293945312 334.26953125 l 1
198.341796875 352.215820312 m 1
 378.9765625 352.21484375 l 1
 378.9765625 334.26953125 l 1
 347.924804688 334.26953125 l 1
 347.924804688 178.5859375 l 1
 364.845703125 155.69921875 l 1
 352.045898438 149.38671875 332.80859375 143.959960938 316.157226562 141.180664062 c 1
 310.7421875 158.659179688 l 1
 285.485351562 149.046875 260.998046875 140.311523438 233.033203125 140.311523438 c 0
 184.94921875 140.311523438 155.5859375 168.522460938 155.5859375 219.231445312 c 2
 155.5859375 327.8515625 l 1
 134.72265625 350.232421875 l 1
 146.21484375 356.69921875 171.490234375 369.158203125 185.086914062 374.135742188 c 1
 198.341796875 352.215820312 l 1
EndSplineSet
Validated: 1
EndChar

StartChar: o.medi
Encoding: 302 57387 142
GlifName: o.medi
Width: 493
VWidth: 800
Flags: HW
HStem: 138.011 22.6246<214.603 284.821> 331.969 17.9457<119.436 150.489 191.119 302.194 342.825 373.879>
VStem: 150.489 40.6303<185.141 331.969> 302.195 40.6309<176.285 331.969 349.915 422.924>
LayerCount: 2
Fore
SplineSet
191.119140625 331.96875 m 1
 191.119140625 228.708007812 l 2
 191.119140625 187.471679688 210.12109375 160.635742188 251.83203125 160.635742188 c 0
 268.352539062 160.635742188 280.927734375 162.272460938 302.1953125 179.975585938 c 1
 302.193359375 331.969726562 l 1
 191.119140625 331.96875 l 1
305.643554688 156.357421875 m 1
 280.385742188 146.745117188 255.896484375 138.010742188 227.934570312 138.010742188 c 0
 179.8515625 138.010742188 150.48828125 166.221679688 150.48828125 216.930664062 c 2
 150.48828125 331.96875 l 1
 119.436523438 331.96875 l 1
 119.436523438 349.915039062 l 1
 302.193359375 349.915039062 l 1
 302.193359375 422.923828125 l 1
 284.188476562 443.075195312 l 1
 299.776367188 447.940429688 326.290039062 454.284179688 342.82421875 456.54296875 c 1
 342.825195312 349.915039062 l 1
 373.87890625 349.915039062 l 1
 373.87890625 331.969726562 l 1
 342.825195312 331.969726562 l 1
 342.826171875 176.28515625 l 1
 359.747070312 153.399414062 l 1
 346.947265625 147.086914062 327.709960938 141.659179688 311.05859375 138.879882812 c 1
 305.643554688 156.357421875 l 1
EndSplineSet
Validated: 1
EndChar

StartChar: o.fina
Encoding: 303 57388 143
GlifName: o.fina
Width: 493
VWidth: 800
Flags: HW
HStem: 140.312 22.6249<207.537 277.757> 334.272 17.9447<112.37 143.422 184.053 294.839> 357.288 10G<328.764 337.308> 410.22 53.2265<217.981 260.633>
VStem: 143.422 40.6309<187.443 334.271> 212.694 53.2265<415.507 458.16> 295.13 40.629<178.587 334.158>
LayerCount: 2
Fore
SplineSet
265.920898438 436.833007812 m 0
 265.920898438 422.134765625 254.004882812 410.219726562 239.307617188 410.219726562 c 0
 224.609375 410.219726562 212.694335938 422.134765625 212.694335938 436.833007812 c 0
 212.694335938 451.53125 224.609375 463.446289062 239.307617188 463.446289062 c 0
 254.004882812 463.446289062 265.920898438 451.53125 265.920898438 436.833007812 c 0
298.578125 158.659179688 m 1
 273.323242188 149.048828125 248.8359375 140.3125 220.869140625 140.3125 c 0
 172.78515625 140.3125 143.421875 168.5234375 143.421875 219.232421875 c 2
 143.421875 334.270507812 l 5
 112.370117188 334.270507812 l 5
 112.370117188 352.216796875 l 1
 286.529296875 352.219726562 l 1
 304.700195312 358.669921875 319.705078125 363.150390625 337.823242188 367.288085938 c 1
 336.791992188 358.685546875 335.758789062 335.538085938 335.758789062 316.799804688 c 2
 335.758789062 178.586914062 l 1
 352.680664062 155.700195312 l 1
 339.880859375 149.387695312 320.643554688 143.9609375 303.993164062 141.181640625 c 1
 298.578125 158.659179688 l 1
295.129882812 182.278320312 m 1
 295.12890625 334.274414062 l 1
 184.053710938 334.271484375 l 5
 184.053710938 231.009765625 l 2
 184.053710938 189.7734375 203.055664062 162.9375 244.766601562 162.9375 c 0
 261.287109375 162.9375 273.862304688 164.575195312 295.129882812 182.278320312 c 1
EndSplineSet
Validated: 1
EndChar

StartChar: p.fina
Encoding: 304 57391 144
GlifName: p.fina
Width: 190
VWidth: 800
Flags: HW
HStem: 92.5823 10.5G<60.1428 66.9145> 286.307 17.9458<29.0891 59.8529> 309.325 10G<93.7782 102.322>
VStem: 60.1428 40.6309<105.456 286.195>
LayerCount: 2
Fore
SplineSet
102.837890625 319.325195312 m 1
 101.805664062 310.72265625 100.7734375 287.575195312 100.7734375 268.836914062 c 2
 100.7734375 107.100585938 l 1
 89.90625 101.234375 73.6865234375 95.4609375 60.142578125 92.58203125 c 1
 60.142578125 286.307617188 l 1
 29.0888671875 286.307617188 l 1
 29.0888671875 304.252929688 l 1
 51.54296875 304.256835938 l 1
 69.7138671875 310.706054688 84.71875 315.1875 102.837890625 319.325195312 c 1
EndSplineSet
Validated: 1
EndChar

StartChar: q.fina
Encoding: 305 57394 145
GlifName: q.fina
Width: 530
VWidth: 800
Flags: HW
HStem: -13.8973 10.5G<150.611 157.383> 285.957 17.9463<119.557 150.322> 287.919 21.3948<244.338 315.8> 308.972 10G<184.247 192.909> 373.655 17.9463<233.575 333.198>
VStem: 150.611 40.6309<-1.02381 99.6744 121.56 263.285 281.868 285.432> 332.15 42.0923<199.581 272.176>
LayerCount: 2
Fore
SplineSet
280.084960938 308.864257812 m 1xde
 284.7578125 309.163085938 289.287109375 309.313476562 293.66796875 309.313476562 c 0xae
 343.715820312 309.313476562 374.2421875 289.657226562 374.2421875 246.950195312 c 0
 374.2421875 181.25390625 317.419921875 140.182617188 268.921875 122.004882812 c 0
 224.688476562 105.424804688 207.286132812 99.896484375 191.2421875 97.6455078125 c 1
 191.2421875 0.62109375 l 1
 180.375 -5.2451171875 164.154296875 -11.0185546875 150.611328125 -13.8974609375 c 1
 150.611328125 285.95703125 l 1
 119.557617188 285.95703125 l 1
 119.557617188 303.903320312 l 1
 142.01171875 303.903320312 l 1
 160.182617188 310.353515625 175.1875 314.833984375 193.306640625 318.971679688 c 1
 192.51171875 312.345703125 191.715820312 297.090820312 191.392578125 281.8671875 c 1
 235.161132812 296.96875 266.909179688 305.584960938 280.084960938 308.864257812 c 1xde
206.01171875 424.408203125 m 1
 233.575195312 391.6015625 l 1
 289.286132812 391.6015625 l 2
 301.0078125 391.6015625 334.793945312 394.15625 342.823242188 394.764648438 c 1
 333.68359375 368.302734375 l 1
 323.533203125 371.0546875 299.583984375 373.655273438 289.041992188 373.655273438 c 2
 156.815429688 373.655273438 l 2
 149.930664062 373.655273438 148.78125 375.625 153.403320312 379.939453125 c 0
 166.639648438 392.291992188 190.038085938 411.915039062 206.01171875 424.408203125 c 1
191.2421875 121.559570312 m 1
 192.39453125 121.524414062 193.553710938 121.506835938 194.71875 121.506835938 c 0
 255.487304688 121.506835938 332.150390625 169.53515625 332.150390625 238.677734375 c 0
 332.150390625 278.434570312 305.630859375 287.918945312 274.244140625 287.918945312 c 0
 244.715820312 287.918945312 203.275390625 267.096679688 191.2421875 255.161132812 c 1
 191.2421875 121.559570312 l 1
EndSplineSet
Validated: 1
EndChar

StartChar: r.init
Encoding: 306 57395 146
GlifName: r.init
Width: 493
VWidth: 800
Flags: HW
HStem: -63.1891 10.5G<307.292 314.064> 42.7082 22.6248<219.701 290.103> 236.666 17.9461<198.342 378.918>
VStem: 155.586 40.6303<89.8387 230.249> 307.292 40.6309<-50.3156 59.7617>
LayerCount: 2
Fore
SplineSet
307.291992188 59.76171875 m 1
 286.793945312 52.08203125 261.717773438 42.7080078125 233.033203125 42.7080078125 c 0
 184.94921875 42.7080078125 155.5859375 70.9189453125 155.5859375 121.62890625 c 0
 155.5859375 157.8359375 155.5859375 194.041992188 155.5859375 230.249023438 c 1
 134.72265625 252.62890625 l 1
 146.21484375 259.095703125 171.490234375 271.555664062 185.086914062 276.533203125 c 1
 198.341796875 254.612304688 l 1
 378.977539062 254.612304688 l 1
 378.977539062 236.666015625 l 5
 378.977539062 236.666015625 297.75 236.666015625 243.598632812 236.666015625 c 0
 216.5234375 236.666015625 196.216796875 236.666015625 196.215820312 236.666015625 c 0
 196.215820312 202.24609375 196.215820312 167.826171875 196.215820312 133.40625 c 0
 196.215820312 92.169921875 215.21875 65.3330078125 256.9296875 65.3330078125 c 0
 273.448242188 65.3330078125 291.135742188 72.8935546875 307.291992188 91.3984375 c 1
 322.510742188 95.541015625 337.319335938 99.068359375 351.821289062 102.135742188 c 1
 350.879882812 95.5498046875 347.922851562 71.00390625 347.922851562 57.697265625 c 2
 347.922851562 -48.669921875 l 1
 337.056640625 -54.537109375 320.8359375 -60.310546875 307.291992188 -63.189453125 c 1
 307.291992188 59.76171875 l 1
EndSplineSet
Validated: 1
EndChar

StartChar: r.medi
Encoding: 307 57396 147
GlifName: r.medi
Width: 445
VWidth: 800
Flags: HW
HStem: 99.3534 22.9063<194.447 252.88> 290.846 17.9458<107.318 138.082 308.597 337.525> 313.862 10G<172.007 180.551>
VStem: 138.37 40.6303<138.518 290.733> 265.841 40.6309<138.952 284.429>
LayerCount: 2
Fore
SplineSet
306.471679688 290.845703125 m 1
 306.471679688 183.069335938 l 2
 306.471679688 141.662109375 288.528320312 126.25390625 269.36328125 117.0703125 c 0
 258.15625 111.700195312 229.728515625 99.353515625 205.3203125 99.353515625 c 0
 172.819335938 99.353515625 138.370117188 116.1015625 138.370117188 167.419921875 c 2
 138.370117188 290.845703125 l 1
 107.317382812 290.845703125 l 1
 107.317382812 308.791992188 l 1
 129.772460938 308.793945312 l 1
 147.942382812 315.243164062 162.947265625 319.724609375 181.06640625 323.862304688 c 1
 180.034179688 315.258789062 179 292.112304688 179 273.375 c 2
 179 179.197265625 l 2
 179 137.9609375 198.142578125 122.259765625 224.723632812 122.259765625 c 0
 247.700195312 122.259765625 265.840820312 136.59765625 265.840820312 171.291992188 c 2
 265.840820312 284.428710938 l 1
 244.977539062 306.809570312 l 1
 256.469726562 313.276367188 281.74609375 325.733398438 295.341796875 330.7109375 c 1
 308.59765625 308.791015625 l 1
 337.525390625 308.791015625 l 1
 337.525390625 290.845703125 l 1
 306.471679688 290.845703125 l 1
EndSplineSet
Validated: 1
EndChar

StartChar: r.fina
Encoding: 308 57397 148
GlifName: r.fina
Width: 441
VWidth: 800
Flags: HW
HStem: 90.5387 19.5615<219.942 282.497> 281.655 17.9458<98.6143 177.608 188.507 301.538>
VStem: 116.779 40.5566<167.4 246.576>
LayerCount: 2
Fore
SplineSet
311.416992188 302.764648438 m 1
 302.279296875 276.302734375 l 1
 286.477539062 280.537109375 269.603515625 284.6875 241.673828125 284.6875 c 0
 185.111328125 284.6875 157.3359375 259.583984375 157.3359375 212.931640625 c 0
 157.3359375 149.247070312 207.66796875 110.100585938 267.92578125 110.100585938 c 0
 278.243164062 110.100585938 288.8515625 111.248046875 299.547851562 113.616210938 c 1
 299.547851562 104.323242188 l 1
 257.310546875 94.0966796875 l 2
 247.413085938 91.7001953125 237.514648438 90.5390625 227.811523438 90.5390625 c 0
 168.662109375 90.5390625 116.779296875 133.705078125 116.779296875 203.484375 c 0
 116.779296875 242.04296875 137.501953125 270.0546875 169.880859375 279.504882812 c 0
 172.245117188 280.194335938 174.279296875 280.763671875 177.607421875 281.655273438 c 1
 98.6142578125 281.655273438 l 1
 98.6142578125 299.6015625 l 1
 255.934570312 299.6015625 l 2
 267.65625 299.6015625 303.388671875 302.15625 311.416992188 302.764648438 c 1
EndSplineSet
Validated: 1
EndChar

StartChar: s.init
Encoding: 309 57398 149
GlifName: s.init
Width: 566
VWidth: 800
Flags: HW
HStem: 96.7883 23.234<219.911 304.585> 290.245 17.9463<405.59 433.895> 295.126 16.5176<216.594 239.499>
VStem: 271.007 41.0283<193.533 269.461> 362.21 40.6303<109.392 133.41 158.273 284.861>
LayerCount: 2
Fore
SplineSet
192.341796875 158.978515625 m 1xd8
 199.80078125 158.8984375 199.80078125 158.8984375 203.27734375 158.8984375 c 0
 243.403320312 158.8984375 271.006835938 189.984375 271.006835938 227.905273438 c 0
 271.006835938 270.84765625 249.153320312 295.126953125 200.49609375 295.126953125 c 0
 200.2265625 295.126953125 199.956054688 295.125976562 199.684570312 295.124023438 c 1
 199.684570312 303.82421875 l 1
 230.294921875 311.6328125 l 2
 230.947265625 311.640625 231.595703125 311.64453125 232.240234375 311.64453125 c 0xb8
 285.076171875 311.64453125 312.03515625 286.807617188 312.03515625 236.75390625 c 0
 312.03515625 195.12109375 285.954101562 164.149414062 251.291992188 153.559570312 c 0
 250.822265625 153.416015625 215.98046875 143.3125 203.645507812 141.54296875 c 1
 218.477539062 127.907226562 243.653320312 120.022460938 272.703125 120.022460938 c 0
 311.438476562 120.022460938 347.447265625 141.90625 362.209960938 176.185546875 c 1
 362.209960938 284.860351562 l 1
 341.345703125 307.241210938 l 1
 352.837890625 313.708007812 378.11328125 326.166992188 391.7109375 331.14453125 c 1
 405.58984375 308.19140625 l 1
 433.89453125 308.19140625 l 1
 433.89453125 290.245117188 l 1
 402.83984375 290.245117188 l 1
 402.83984375 111.037109375 l 1
 391.97265625 105.170898438 375.752929688 99.3974609375 362.209960938 96.5185546875 c 1
 362.209960938 133.409179688 l 1
 336.590820312 114.16015625 270.627929688 97.484375 269.661132812 97.2568359375 c 0
 266.173828125 96.9423828125 262.569335938 96.7880859375 258.884765625 96.7880859375 c 0
 217.243164062 96.7880859375 165.250976562 116.420898438 154.180664062 144.817382812 c 1
 154.180664062 149.4375 l 1
 192.341796875 158.978515625 l 1xd8
EndSplineSet
Validated: 1
EndChar

StartChar: s.medi
Encoding: 310 57399 150
GlifName: s.medi
Width: 339
VWidth: 800
Flags: HW
HStem: 149.726 12.7027<154.277 186.904> 229.409 12.7021<154.077 187.112> 300.331 17.9458<80.8716 161.576 189.711 258.189>
VStem: 124.26 18.164<171.246 220.599> 198.486 18.1636<171.079 220.76>
LayerCount: 2
Fore
SplineSet
80.87109375 318.276367188 m 1
 258.189453125 318.276367188 l 1
 258.189453125 300.331054688 l 1
 194.689453125 300.331054688 l 1
 190.108398438 292.595703125 183.1953125 279.708007812 173.934570312 259.162109375 c 1
 162.255859375 259.162109375 l 1
 163.861328125 268.387695312 164.637695312 276.813476562 164.637695312 282.696289062 c 0
 164.637695312 296.698242188 147.619140625 300.330078125 121.876953125 300.330078125 c 2
 80.87109375 300.331054688 l 1
 80.87109375 318.276367188 l 1
170.453125 229.409179688 m 0
 156.29296875 229.409179688 142.423828125 216.797851562 142.423828125 195.905273438 c 0
 142.423828125 175.083007812 156.256835938 162.428710938 170.452148438 162.428710938 c 0
 184.658203125 162.4296875 198.486328125 174.682617188 198.486328125 195.918945312 c 0
 198.486328125 217.16015625 184.653320312 229.409179688 170.453125 229.409179688 c 0
170.45703125 242.111328125 m 0
 197.634765625 242.111328125 216.649414062 223.725585938 216.649414062 195.91796875 c 0
 216.646484375 168.114257812 196.595703125 149.7265625 170.453125 149.7265625 c 0
 144.318359375 149.7265625 124.259765625 168.530273438 124.259765625 195.918945312 c 0
 124.265625 223.307617188 143.272460938 242.111328125 170.45703125 242.111328125 c 0
EndSplineSet
Validated: 1
EndChar

StartChar: s.fina
Encoding: 311 57400 151
GlifName: s.fina
Width: 472
VWidth: 800
Flags: HW
HStem: -14.1916 10.5G<130.662 137.433> 95.3159 10.5G<252.318 280.71> 131.586 9.7324<202.859 228.407> 285.667 17.9458<99.6084 271.412> 308.681 10G<305.338 313.881> 331.154 12.7021<189.608 222.233> 410.837 12.7021<189.406 222.443>
VStem: 130.662 40.6309<-1.31759 220.905> 159.59 18.1636<352.673 402.024> 233.816 18.164<352.505 402.187> 271.702 40.6309<138.93 285.551>
LayerCount: 2
Fore
SplineSet
171.29296875 254.522460938 m 1xff60
 171.29296875 0.3271484375 l 1
 160.42578125 -5.5390625 144.205078125 -11.3125 130.662109375 -14.19140625 c 1
 130.662109375 220.905273438 l 1
 112.655273438 241.055664062 l 1
 128.243164062 245.920898438 154.7578125 252.264648438 171.29296875 254.522460938 c 1xff60
202.859375 141.318359375 m 1
 202.9296875 141.315429688 203.768554688 141.265625 205.192382812 141.182617188 c 0
 215.025390625 140.604492188 252.784179688 138.38671875 258.495117188 138.38671875 c 0
 268.215820312 138.38671875 271.702148438 141.228515625 271.702148438 149.379882812 c 2
 271.702148438 285.666992188 l 1
 99.6083984375 285.666992188 l 1
 99.6083984375 303.612304688 l 1
 263.103515625 303.612304688 l 1
 281.274414062 310.0625 296.278320312 314.543945312 314.397460938 318.680664062 c 1
 313.365234375 310.079101562 312.333007812 286.930664062 312.333007812 268.192382812 c 2
 312.333007812 141.64453125 l 2
 312.333007812 112.129882812 305.385742188 100.611328125 256.03515625 95.31640625 c 1
 248.6015625 122.258789062 238.409179688 127.278320312 202.859375 131.5859375 c 1
 202.859375 141.318359375 l 1
205.787109375 423.5390625 m 0
 232.96484375 423.5390625 251.98046875 405.15234375 251.98046875 377.345703125 c 0
 251.9765625 349.541015625 231.92578125 331.153320312 205.784179688 331.153320312 c 0
 179.6484375 331.153320312 159.590820312 349.958007812 159.590820312 377.346679688 c 0xfee0
 159.595703125 404.735351562 178.602539062 423.5390625 205.787109375 423.5390625 c 0
205.784179688 410.836914062 m 0
 191.6171875 410.836914062 177.75390625 398.216796875 177.75390625 377.333984375 c 0
 177.75390625 356.509765625 191.586914062 343.856445312 205.783203125 343.856445312 c 0
 219.984375 343.856445312 233.81640625 356.10546875 233.81640625 377.346679688 c 0
 233.81640625 398.586914062 219.984375 410.836914062 205.784179688 410.836914062 c 0
EndSplineSet
Validated: 1
EndChar

StartChar: t.init
Encoding: 312 57401 152
GlifName: t.init
Width: 190
VWidth: 800
Flags: HW
HStem: -17.577 10.5G<79.7307 86.5027> 282.28 17.946<122.487 151.415>
VStem: 79.7307 40.6309<-4.70455 275.862>
LayerCount: 2
Fore
SplineSet
65.009765625 340.740234375 m 1
 65.3271484375 341.481445312 96.9033203125 413.376953125 100.043945312 413.376953125 c 0
 103.184570312 413.376953125 134.760742188 341.481445312 135.078125 340.740234375 c 1
 128.974609375 340.740234375 l 1
 100.043945312 355.258789062 l 1
 71.11328125 340.740234375 l 1
 65.009765625 340.740234375 l 1
120.361328125 282.280273438 m 5
 120.361328125 -3.0595703125 l 1
 109.494140625 -8.92578125 93.2744140625 -14.6982421875 79.73046875 -17.5771484375 c 1
 79.73046875 275.862304688 l 1
 58.8671875 298.243164062 l 1
 70.359375 304.709960938 95.6357421875 317.16796875 109.232421875 322.145507812 c 1
 122.486328125 300.225585938 l 1
 151.415039062 300.225585938 l 1
 151.415039062 282.280273438 l 5
 120.361328125 282.280273438 l 5
EndSplineSet
Validated: 1
EndChar

StartChar: t.medi
Encoding: 313 57402 153
GlifName: t.medi
Width: 190
VWidth: 800
Flags: HW
HStem: -17.5741 10.5G<74.637 81.4087> 282.281 17.9458<43.5837 74.637 115.268 146.321>
VStem: 74.637 40.6309<-4.70057 282.281>
LayerCount: 2
Fore
SplineSet
59.9169921875 340.741210938 m 1
 60.234375 341.482421875 91.8095703125 413.377929688 94.951171875 413.377929688 c 0
 98.091796875 413.377929688 129.66796875 341.482421875 129.985351562 340.741210938 c 1
 123.881835938 340.741210938 l 1
 94.951171875 355.259765625 l 1
 66.0205078125 340.741210938 l 1
 59.9169921875 340.741210938 l 1
43.583984375 300.2265625 m 1
 146.321289062 300.2265625 l 1
 146.321289062 282.28125 l 1
 115.267578125 282.28125 l 1
 115.267578125 -3.0556640625 l 1
 104.400390625 -8.921875 88.1806640625 -14.6953125 74.63671875 -17.57421875 c 1
 74.63671875 282.28125 l 1
 43.583984375 282.28125 l 1
 43.583984375 300.2265625 l 1
EndSplineSet
Validated: 1
EndChar

StartChar: t.fina
Encoding: 314 57403 154
GlifName: t.fina
Width: 190
VWidth: 800
Flags: HW
HStem: -17.5785 10.5G<66.4693 73.241> 282.279 17.9458<35.4155 66.1798> 305.293 10G<100.105 108.649>
VStem: 66.4693 40.6309<-4.70504 282.163>
LayerCount: 2
Fore
SplineSet
51.748046875 340.740234375 m 1
 52.0654296875 341.481445312 83.640625 413.375976562 86.7822265625 413.375976562 c 0
 89.923828125 413.375976562 121.499023438 341.481445312 121.81640625 340.740234375 c 1
 115.712890625 340.740234375 l 1
 86.7822265625 355.258789062 l 1
 57.8515625 340.740234375 l 1
 51.748046875 340.740234375 l 1
109.1640625 315.29296875 m 1
 108.1328125 306.69140625 107.099609375 283.54296875 107.099609375 264.8046875 c 2
 107.099609375 -3.0595703125 l 1
 96.2333984375 -8.9267578125 80.0126953125 -14.69921875 66.46875 -17.578125 c 1
 66.46875 282.279296875 l 1
 35.416015625 282.279296875 l 1
 35.416015625 300.225585938 l 1
 57.8701171875 300.225585938 l 1
 76.041015625 306.674804688 91.044921875 311.15625 109.1640625 315.29296875 c 1
EndSplineSet
Validated: 1
EndChar

StartChar: u.fina
Encoding: 315 57406 155
GlifName: u.fina
Width: 190
VWidth: 800
Flags: HW
HStem: -24.62 10.5G<62.2593 69.031> 275.237 17.9463<31.2056 61.9698> 298.251 10G<95.8951 104.439> 339.023 53.2265<61.2472 103.9>
VStem: 55.9599 53.227<344.31 386.962> 62.2593 40.6309<-11.7465 275.122>
LayerCount: 2
Fore
SplineSet
109.1875 365.63671875 m 0xf8
 109.1875 350.938476562 97.271484375 339.0234375 82.57421875 339.0234375 c 0
 67.875 339.0234375 55.9599609375 350.938476562 55.9599609375 365.63671875 c 0
 55.9599609375 380.334960938 67.875 392.25 82.57421875 392.25 c 0
 97.271484375 392.25 109.1875 380.334960938 109.1875 365.63671875 c 0xf8
104.955078125 308.251953125 m 1
 103.921875 299.649414062 102.890625 276.501953125 102.890625 257.763671875 c 2
 102.890625 -10.1015625 l 1
 92.0234375 -15.9677734375 75.802734375 -21.7412109375 62.259765625 -24.6201171875 c 1
 62.259765625 275.237304688 l 1xf4
 31.205078125 275.237304688 l 1
 31.205078125 293.18359375 l 1
 53.66015625 293.18359375 l 1
 71.8310546875 299.633789062 86.8359375 304.114257812 104.955078125 308.251953125 c 1
EndSplineSet
Validated: 1
EndChar

StartChar: v.fina
Encoding: 316 57409 156
GlifName: v.fina
Width: 530
VWidth: 800
Flags: HW
HStem: 141.404 10.5G<150.611 166.354> 335.274 17.9458<119.557 150.321> 337.235 21.3953<244.219 315.8> 358.288 10G<184.246 192.908>
VStem: 150.611 40.6309<170.769 312.6 331.183 334.748> 332.149 42.0928<250.216 321.492>
LayerCount: 2
Fore
SplineSet
219.51953125 393.734375 m 1x8c
 219.837890625 394.475585938 251.413085938 466.370117188 254.5546875 466.370117188 c 0
 257.6953125 466.370117188 289.270507812 394.475585938 289.588867188 393.734375 c 1
 283.485351562 393.734375 l 1
 254.5546875 408.252929688 l 1
 225.623046875 393.734375 l 1
 219.51953125 393.734375 l 1x8c
274.244140625 337.235351562 m 0xac
 244.177734375 337.235351562 203.274414062 316.411132812 191.2421875 304.475585938 c 1
 191.2421875 170.76953125 l 1
 256.938476562 173.119140625 332.149414062 217.524414062 332.149414062 287.994140625 c 0
 332.149414062 327.750976562 305.630859375 337.235351562 274.244140625 337.235351562 c 0xac
193.305664062 368.287109375 m 1xdc
 192.510742188 361.661132812 191.721679688 346.407226562 191.397460938 331.182617188 c 1
 235.162109375 346.282226562 266.91015625 354.901367188 280.0859375 358.180664062 c 1
 284.7578125 358.479492188 289.288085938 358.630859375 293.66796875 358.630859375 c 0xac
 343.715820312 358.630859375 374.2421875 338.97265625 374.2421875 296.266601562 c 0
 374.2421875 230.5703125 317.10546875 190.318359375 268.921875 171.321289062 c 0
 232.393554688 156.919921875 182.09765625 145.251953125 150.611328125 141.404296875 c 1
 150.611328125 335.2734375 l 1
 119.557617188 335.2734375 l 1
 119.557617188 353.219726562 l 1
 142.01171875 353.219726562 l 1
 160.182617188 359.668945312 175.1875 364.150390625 193.305664062 368.287109375 c 1xdc
EndSplineSet
Validated: 1
EndChar

StartChar: w.fina
Encoding: 317 57412 157
GlifName: w.fina
Width: 494
VWidth: 800
Flags: HW
HStem: -66.6173 10.5G<287.699 294.471> 39.2824 22.6244<200.108 270.534> 233.242 17.9444<104.941 135.993 176.624 287.41> 256.258 10G<321.335 329.878>
VStem: 135.993 40.6309<86.4122 233.241> 287.699 40.6309<-53.7453 56.3272 73.4694 233.128>
LayerCount: 2
Fore
SplineSet
287.69921875 56.3271484375 m 1
 267.060546875 48.6005859375 242.043945312 39.2822265625 213.439453125 39.2822265625 c 0
 165.356445312 39.2822265625 135.993164062 67.4931640625 135.993164062 118.202148438 c 2
 135.993164062 233.241210938 l 5
 104.940429688 233.240234375 l 5
 104.940429688 251.185546875 l 1
 279.099609375 251.189453125 l 1
 297.270507812 257.638671875 312.275390625 262.12109375 330.39453125 266.2578125 c 1
 329.362304688 257.65625 328.330078125 234.5078125 328.330078125 215.76953125 c 2
 328.330078125 -52.099609375 l 1
 317.462890625 -57.966796875 301.243164062 -63.73828125 287.69921875 -66.6171875 c 1
 287.69921875 56.3271484375 l 1
176.624023438 233.241210938 m 5
 176.624023438 129.979492188 l 2
 176.624023438 88.7431640625 195.625976562 61.90625 237.336914062 61.90625 c 0
 253.857421875 61.90625 266.432617188 63.5439453125 287.69921875 81.2470703125 c 1
 287.69921875 233.244140625 l 1
 176.624023438 233.241210938 l 5
EndSplineSet
Validated: 1
EndChar

StartChar: x.init
Encoding: 318 57413 158
GlifName: x.init
Width: 566
VWidth: 800
Flags: HW
HStem: -62.6729 10.5G<362.21 368.981> 43.7251 23.234<219.912 304.585> 240.115 10.6465<199.684 213.405> 240.117 18.4638<216.594 241.843 405.59 433.895>
VStem: 271.007 41.0283<140.47 216.064> 362.21 40.6303<-49.7994 80.346 105.209 231.798>
LayerCount: 2
Fore
SplineSet
192.341796875 105.915039062 m 1xdc
 199.799804688 105.834960938 199.799804688 105.834960938 203.27734375 105.834960938 c 0
 243.403320312 105.834960938 271.006835938 136.920898438 271.006835938 174.841796875 c 0
 271.006835938 217.764648438 249.174804688 240.1171875 200.565429688 240.1171875 c 0xdc
 200.272460938 240.1171875 199.979492188 240.116210938 199.684570312 240.114257812 c 1
 199.684570312 250.760742188 l 1xec
 230.294921875 258.569335938 l 2
 230.947265625 258.577148438 231.595703125 258.581054688 232.240234375 258.581054688 c 0
 285.076171875 258.581054688 312.03515625 233.744140625 312.03515625 183.690429688 c 0
 312.03515625 142.057617188 285.954101562 111.0859375 251.29296875 100.49609375 c 0
 250.823242188 100.352539062 215.98046875 90.2490234375 203.645507812 88.4794921875 c 1
 218.477539062 74.84375 243.653320312 66.958984375 272.703125 66.958984375 c 0
 311.438476562 66.958984375 347.447265625 88.841796875 362.209960938 123.12109375 c 1
 362.209960938 231.796875 l 1
 341.345703125 254.177734375 l 1
 352.837890625 260.64453125 378.11328125 273.103515625 391.7109375 278.081054688 c 1
 405.58984375 255.127929688 l 1
 433.89453125 255.127929688 l 1
 433.89453125 237.182617188 l 1
 402.83984375 237.182617188 l 1
 402.83984375 -48.154296875 l 1
 391.973632812 -54.021484375 375.752929688 -59.7939453125 362.209960938 -62.6728515625 c 1
 362.209960938 80.345703125 l 1
 336.590820312 61.0966796875 270.627929688 44.4208984375 269.661132812 44.193359375 c 0
 266.173828125 43.87890625 262.569335938 43.724609375 258.884765625 43.724609375 c 0
 217.243164062 43.724609375 165.250976562 63.357421875 154.180664062 91.75390625 c 1
 154.180664062 96.3740234375 l 1
 192.341796875 105.915039062 l 1xdc
EndSplineSet
Validated: 1
EndChar

StartChar: x.medi
Encoding: 319 57414 159
GlifName: x.medi
Width: 190
VWidth: 800
Flags: HW
HStem: 425.166 38.3857<81.8361 108.313> 425.166 17.9458<43.5823 80.8659 109.269 146.319> 488.952 53.2265<73.6271 116.273>
VStem: 68.3371 53.2265<494.242 536.888>
LayerCount: 2
Fore
SplineSet
71.5947265625 443.112304688 m 1x70
 74.05078125 445.513671875 92.5830078125 463.551757812 94.9501953125 463.551757812 c 0xb0
 97.3056640625 463.551757812 115.283203125 446.069335938 118.309570312 443.112304688 c 1
 146.319335938 443.112304688 l 1
 146.319335938 425.166015625 l 1
 43.58203125 425.166015625 l 1
 43.58203125 443.112304688 l 1
 71.5947265625 443.112304688 l 1x70
121.563476562 515.565429688 m 0
 121.563476562 500.876953125 109.637695312 488.952148438 94.9501953125 488.952148438 c 0
 80.26171875 488.952148438 68.3369140625 500.876953125 68.3369140625 515.565429688 c 0
 68.3369140625 530.252929688 80.26171875 542.177734375 94.9501953125 542.178710938 c 0
 109.637695312 542.178710938 121.563476562 530.25390625 121.563476562 515.565429688 c 0
EndSplineSet
Validated: 1
EndChar

StartChar: x.fina
Encoding: 320 57415 160
GlifName: x.fina
Width: 190
VWidth: 800
Flags: HW
HStem: 17.0602 9.7324<-54.6741 -18.8132> 277.041 17.9463<2.57788 33.3426> 300.055 10G<67.2679 75.8114> 340.826 53.2265<32.6203 75.2729>
VStem: 27.3332 53.2265<346.114 388.766> 33.6326 40.6309<24.4052 276.925>
LayerCount: 2
Fore
SplineSet
-54.673828125 26.79296875 m 1xf4
 -20.298828125 25.2724609375 11.5869140625 23.861328125 20.4248046875 23.861328125 c 0
 30.146484375 23.861328125 33.6328125 26.7041015625 33.6328125 34.85546875 c 2
 33.6328125 277.041015625 l 1
 2.578125 277.041015625 l 1
 2.578125 294.987304688 l 1
 25.033203125 294.987304688 l 1
 43.2041015625 301.436523438 58.208984375 305.91796875 76.3271484375 310.0546875 c 1
 75.2958984375 301.453125 74.263671875 278.3046875 74.263671875 259.56640625 c 2
 74.263671875 27.1201171875 l 2
 74.263671875 -2.3955078125 67.318359375 -13.9140625 17.9677734375 -19.2099609375 c 1
 10.455078125 8.0185546875 10.126953125 9.2080078125 -54.673828125 17.060546875 c 1
 -54.673828125 26.79296875 l 1xf4
80.5595703125 367.439453125 m 0xf8
 80.5595703125 352.741210938 68.64453125 340.826171875 53.9462890625 340.826171875 c 0
 39.248046875 340.826171875 27.3330078125 352.741210938 27.3330078125 367.439453125 c 0
 27.3330078125 382.137695312 39.248046875 394.052734375 53.9462890625 394.052734375 c 0
 68.64453125 394.052734375 80.5595703125 382.137695312 80.5595703125 367.439453125 c 0xf8
EndSplineSet
Validated: 1
EndChar

StartChar: y.init
Encoding: 321 57416 161
GlifName: y.init
Width: 392
VWidth: 800
Flags: HW
HStem: -62.6784 10.5G<131.654 138.425> 43.3105 10.5G<232.642 239.413> 134.512 21.1862<172.837 219.693> 237.18 17.9458<276.022 304.327> 260.194 10G<164.017 172.284>
VStem: 131.654 40.6303<-49.8044 134.512 148.03 236.576> 232.642 40.6303<56.1839 114.119 153.574 231.795>
LayerCount: 2
Fore
SplineSet
172.284179688 148.030273438 m 1
 192.159179688 152.3984375 207.169921875 155.698242188 216.93359375 155.698242188 c 0
 222.453125 155.698242188 227.713867188 154.999023438 232.641601562 153.57421875 c 1
 232.641601562 231.794921875 l 1
 211.778320312 254.17578125 l 1
 223.270507812 260.642578125 248.545898438 273.1015625 262.142578125 278.078125 c 1
 276.022460938 255.125976562 l 1
 304.327148438 255.125976562 l 1
 304.327148438 237.1796875 l 1
 273.272460938 237.1796875 l 1
 273.272460938 57.8291015625 l 1
 262.405273438 51.962890625 246.185546875 46.189453125 232.641601562 43.310546875 c 1
 232.641601562 68.1591796875 l 2
 232.641601562 111.043945312 215.127929688 134.512695312 183.221679688 134.512695312 c 0
 179.745117188 134.512695312 176.098632812 134.233398438 172.284179688 133.670898438 c 1
 172.284179688 -48.1591796875 l 1
 161.416992188 -54.025390625 145.197265625 -59.798828125 131.653320312 -62.677734375 c 1
 131.653320312 236.576171875 l 1
 113.646484375 256.7265625 l 1
 129.235351562 261.591796875 155.75 267.935546875 172.284179688 270.194335938 c 1
 172.284179688 148.030273438 l 1
EndSplineSet
Validated: 1
EndChar

StartChar: y.medi
Encoding: 322 57417 162
GlifName: y.medi
Width: 190
VWidth: 800
Flags: HW
HStem: -24.6208 10.5G<74.6377 81.4094> 275.237 17.9458<43.584 74.6377 115.268 146.322> 339.023 53.2265<73.6256 116.278>
VStem: 68.3384 53.227<344.31 386.962> 74.6377 40.6303<-11.7468 275.237>
LayerCount: 2
Fore
SplineSet
121.565429688 365.635742188 m 0xf0
 121.565429688 350.938476562 109.650390625 339.022460938 94.9521484375 339.022460938 c 0
 80.25390625 339.022460938 68.337890625 350.938476562 68.337890625 365.635742188 c 0
 68.337890625 380.334960938 80.25390625 392.249023438 94.9521484375 392.249023438 c 0
 109.650390625 392.249023438 121.565429688 380.334960938 121.565429688 365.635742188 c 0xf0
43.583984375 293.182617188 m 1
 146.322265625 293.182617188 l 1
 146.322265625 275.237304688 l 1
 115.267578125 275.237304688 l 1
 115.267578125 -10.1015625 l 1
 104.401367188 -15.9677734375 88.181640625 -21.7412109375 74.6376953125 -24.6201171875 c 1
 74.6376953125 275.237304688 l 1xe8
 43.583984375 275.237304688 l 1
 43.583984375 293.182617188 l 1
EndSplineSet
Validated: 1
EndChar

StartChar: y.fina
Encoding: 323 57418 163
GlifName: y.fina
Width: 472
VWidth: 800
Flags: HW
HStem: -18.5395 10.5G<130.662 137.434> 90.968 10.5G<252.319 280.711> 127.238 9.7324<202.86 228.408> 281.319 17.9458<99.6091 271.413> 304.333 10G<305.338 313.882> 330.709 15.2846<153.339 200.541 218.096 262.322> 364.615 45.8803<187.205 214.212>
VStem: 130.662 40.6309<-5.66549 216.557> 182.666 53.228<368.427 405.344> 271.702 40.6309<134.582 281.203>
LayerCount: 2
Fore
SplineSet
202.859375 136.970703125 m 1
 202.9296875 136.967773438 203.768554688 136.91796875 205.192382812 136.833984375 c 0
 215.025390625 136.256835938 252.784179688 134.0390625 258.495117188 134.0390625 c 0
 268.215820312 134.0390625 271.702148438 136.880859375 271.702148438 145.032226562 c 2
 271.702148438 281.319335938 l 1
 99.609375 281.319335938 l 1
 99.609375 299.264648438 l 1
 263.103515625 299.264648438 l 1
 281.274414062 305.71484375 296.278320312 310.1953125 314.397460938 314.333007812 c 1
 313.365234375 305.73046875 312.333007812 282.583007812 312.333007812 263.844726562 c 2
 312.333007812 137.296875 l 2
 312.333007812 107.782226562 305.385742188 96.263671875 256.03515625 90.9677734375 c 1
 248.6015625 117.911132812 238.409179688 122.930664062 202.859375 127.23828125 c 1
 202.859375 136.970703125 l 1
171.29296875 250.174804688 m 1
 171.29296875 -4.0205078125 l 1
 160.42578125 -9.88671875 144.205078125 -15.66015625 130.662109375 -18.5390625 c 1
 130.662109375 216.556640625 l 1
 112.655273438 236.708007812 l 1
 128.243164062 241.573242188 154.758789062 247.916992188 171.29296875 250.174804688 c 1
209.279296875 410.495117188 m 0
 223.977539062 410.495117188 235.893554688 399.5546875 235.893554688 382.765625 c 0
 235.893554688 370.3203125 229.692382812 356.399414062 218.095703125 345.994140625 c 1
 228.715820312 345.994140625 l 2
 240.438476562 345.994140625 261.858398438 347.069335938 269.888671875 347.677734375 c 1
 262.799804688 326.700195312 l 1
 252.647460938 329.453125 240.553710938 330.708984375 225.2578125 330.708984375 c 2
 174.8359375 330.708984375 l 2
 161.790039062 330.708984375 154.466796875 330.575195312 150.770507812 330.305664062 c 1
 153.872070312 346.799804688 l 1
 156.358398438 346.330078125 162.3828125 345.994140625 166.177734375 345.994140625 c 0
 185.801757812 345.994140625 204.240234375 351.813476562 214.296875 365.10546875 c 1
 212.4765625 364.790039062 210.465820312 364.615234375 208.237304688 364.615234375 c 0
 193.866210938 364.615234375 182.666015625 373.555664062 182.666015625 386.732421875 c 0
 182.666015625 398.389648438 193.250976562 410.495117188 209.279296875 410.495117188 c 0
EndSplineSet
Validated: 1
EndChar

StartChar: z.fina
Encoding: 324 57421 164
GlifName: z.fina
Width: 190
VWidth: 800
Flags: HW
HStem: -24.9388 9.7324<-56.7903 -20.9294> 235.042 17.9463<0.46167 31.2264> 258.056 10G<65.1517 73.6952>
VStem: 31.5164 40.6309<-17.5938 234.926>
LayerCount: 2
Fore
SplineSet
-56.7900390625 -15.2060546875 m 1
 -22.4150390625 -16.7265625 9.470703125 -18.1376953125 18.30859375 -18.1376953125 c 0
 28.0302734375 -18.1376953125 31.5166015625 -15.294921875 31.5166015625 -7.1435546875 c 2
 31.5166015625 235.041992188 l 1
 0.4619140625 235.041992188 l 1
 0.4619140625 252.98828125 l 1
 22.9169921875 252.98828125 l 1
 41.087890625 259.4375 56.0927734375 263.918945312 74.2109375 268.055664062 c 1
 73.1796875 259.454101562 72.1474609375 236.305664062 72.1474609375 217.567382812 c 2
 72.1474609375 -14.87890625 l 2
 72.1474609375 -44.39453125 65.2021484375 -55.9130859375 15.8515625 -61.208984375 c 1
 8.3388671875 -33.98046875 8.0107421875 -32.791015625 -56.7900390625 -24.9384765625 c 1
 -56.7900390625 -15.2060546875 l 1
EndSplineSet
Validated: 1
EndChar

StartChar: xy_kashida
Encoding: 325 57423 165
GlifName: xy_kashida
Width: 87
VWidth: 800
Flags: HW
HStem: 375.634 17.9458<17.8569 69.1372>
VStem: 17.8569 51.2805<375.634 393.58>
LayerCount: 2
Fore
SplineSet
17.857421875 393.580078125 m 1
 69.13671875 393.580078125 l 1
 69.13671875 375.633789062 l 1
 17.857421875 375.633789062 l 1
 17.857421875 393.580078125 l 1
EndSplineSet
Validated: 1
EndChar

StartChar: x.long
Encoding: 326 57425 166
GlifName: x.long
Width: 308
VWidth: 800
Flags: HW
HStem: 17.0629 9.73195<60.6353 96.4962> 277.041 17.9458<58.6875 148.652> 300.057 10G<182.578 191.121> 340.826 53.2265<104.355 147.007>
VStem: 99.0679 53.2265<346.114 388.766> 148.942 40.6309<24.4074 276.927>
LayerCount: 2
Fore
SplineSet
152.293945312 367.439453125 m 0xf8
 152.293945312 352.7421875 140.37890625 340.826171875 125.680664062 340.826171875 c 0
 110.982421875 340.826171875 99.068359375 352.7421875 99.068359375 367.439453125 c 0
 99.068359375 382.138671875 110.982421875 394.052734375 125.680664062 394.052734375 c 0
 140.37890625 394.052734375 152.293945312 382.138671875 152.293945312 367.439453125 c 0xf8
60.634765625 26.794921875 m 1
 94.853515625 25.28125 126.885742188 23.8642578125 135.734375 23.8642578125 c 0
 145.455078125 23.8642578125 148.942382812 26.70703125 148.942382812 34.857421875 c 2
 148.942382812 277.04296875 l 1
 58.6875 277.041015625 l 1
 58.6875 294.987304688 l 1
 140.342773438 294.989257812 l 1
 158.512695312 301.439453125 173.518554688 305.919921875 191.63671875 310.057617188 c 1
 190.604492188 301.455078125 189.573242188 278.306640625 189.573242188 259.568359375 c 2
 189.573242188 27.1220703125 l 2xf4
 189.573242188 -2.3935546875 182.627929688 -13.912109375 133.27734375 -19.20703125 c 1
 125.764648438 8.021484375 125.436523438 9.2109375 60.634765625 17.0625 c 1
 60.634765625 26.794921875 l 1
EndSplineSet
Validated: 1
EndChar

StartChar: z.long
Encoding: 327 57426 167
GlifName: z.long
Width: 308
VWidth: 800
Flags: HW
HStem: -24.9349 9.7324<60.6345 96.4955> 235.044 17.9458<58.6873 148.651> 258.06 10G<182.577 191.12>
VStem: 148.941 40.6309<-17.5899 234.93>
LayerCount: 2
Fore
SplineSet
60.634765625 -15.2021484375 m 1
 94.5048828125 -16.701171875 126.860351562 -18.1337890625 135.733398438 -18.1337890625 c 0
 145.454101562 -18.1337890625 148.94140625 -15.291015625 148.94140625 -7.1396484375 c 2
 148.94140625 235.045898438 l 1
 58.6875 235.043945312 l 1
 58.6875 252.990234375 l 1
 140.341796875 252.9921875 l 1
 158.512695312 259.44140625 173.517578125 263.922851562 191.635742188 268.059570312 c 1
 190.603515625 259.458007812 189.572265625 236.309570312 189.572265625 217.571289062 c 2
 189.572265625 -14.875 l 2
 189.572265625 -44.390625 182.626953125 -55.9091796875 133.276367188 -61.205078125 c 1
 125.763671875 -33.9765625 125.435546875 -32.787109375 60.634765625 -24.9345703125 c 1
 60.634765625 -15.2021484375 l 1
EndSplineSet
Validated: 1
EndChar

StartChar: xy_fullstop
Encoding: 328 57472 168
GlifName: xy_fullstop
Width: 257
VWidth: 800
Flags: HW
HStem: 265.167 12.7315<109.731 146.984> 343.904 12.7319<109.733 146.979>
VStem: 82.6272 14.9492<289.149 332.654> 159.126 14.9527<289.073 332.734>
LayerCount: 2
Fore
SplineSet
128.360351562 356.635742188 m 0
 153.630859375 356.635742188 174.079101562 336.16015625 174.079101562 310.901367188 c 0
 174.079101562 285.642578125 153.631835938 265.166992188 128.361328125 265.166992188 c 0
 103.08203125 265.166992188 82.626953125 285.642578125 82.626953125 310.901367188 c 0
 82.626953125 336.16015625 103.083007812 356.635742188 128.360351562 356.635742188 c 0
128.360351562 343.903320312 m 0
 111.340820312 343.903320312 97.576171875 330.842773438 97.576171875 310.901367188 c 0
 97.576171875 290.961914062 111.337890625 277.8984375 128.354492188 277.8984375 c 0
 145.387695312 277.900390625 159.125976562 290.592773438 159.125976562 310.901367188 c 0
 159.125976562 331.23046875 145.365234375 343.903320312 128.360351562 343.903320312 c 0
EndSplineSet
Validated: 1
EndChar

StartChar: xy_comma
Encoding: 329 57473 169
GlifName: xy_comma
Width: 267
VWidth: 800
Flags: HW
HStem: 287.491 84.1845
VStem: 78.241 92.6985
LayerCount: 2
Fore
SplineSet
78.2412109375 365.106445312 m 1
 80.671875 371.676757812 l 1
 135.416992188 367.053710938 170.939453125 340.532226562 170.939453125 318.391601562 c 0
 170.939453125 301.360351562 159.75 287.491210938 148.556640625 287.491210938 c 0
 139.5 287.491210938 134.557617188 296.356445312 127.479492188 309.052734375 c 0
 118.581054688 325.013671875 106.306640625 347.029296875 78.2412109375 365.106445312 c 1
EndSplineSet
Validated: 1
EndChar

StartChar: xy_commacn
Encoding: 330 57474 170
GlifName: xy_commacn
Width: 179
VWidth: 800
Flags: HW
HStem: 360.987 51.5105<67.577 97.4016>
VStem: 97.5036 28.7427<390.901 440.114>
LayerCount: 2
Fore
SplineSet
88.650390625 360.987304688 m 0
 72.7958984375 360.987304688 61.7607421875 373.38671875 61.7607421875 385.12890625 c 0
 61.7607421875 399.591796875 70.4677734375 408.958007812 90.0400390625 412.497070312 c 0
 94.759765625 413.3515625 97.50390625 415.584960938 97.50390625 421.252929688 c 0
 97.50390625 434.043945312 87.314453125 450.166992188 60.8564453125 465.813476562 c 1
 71.6669921875 478.51171875 l 1
 106.173828125 461.049804688 126.24609375 433.71484375 126.24609375 404.59375 c 0
 126.24609375 377.208984375 113.504882812 360.987304688 88.650390625 360.987304688 c 0
EndSplineSet
Validated: 1
EndChar

StartChar: xy_exclamdown
Encoding: 331 57475 171
GlifName: xy_exclamdown
Width: 201
VWidth: 800
Flags: HW
VStem: 73.24 50.5705<-57.4933 80.3964> 79.9568 35.562<-22.0743 137.448> 87.3757 53.811<199.741 230.314>
LayerCount: 2
Fore
SplineSet
70.904296875 206.224609375 m 1x20
 87.3759765625 213.6328125 87.3759765625 213.6328125 87.3759765625 217.33984375 c 0
 87.3759765625 223.953125 80.7138671875 236.624023438 65.974609375 251.412109375 c 1
 68.818359375 256.2421875 l 1
 93.6103515625 254.229492188 141.186523438 240.1328125 141.186523438 203.3828125 c 0
 141.186523438 194.409179688 137.54296875 187.666992188 127.596679688 187.666992188 c 0
 122.5234375 187.666992188 116.28515625 189.80859375 108.5859375 192.452148438 c 0
 98.9501953125 195.759765625 87.02734375 199.852539062 72.2392578125 201.515625 c 1
 70.904296875 206.224609375 l 1x20
73.240234375 -24.0390625 m 0x80
 73.240234375 -16.671875 74.0888671875 -9.7021484375 75.1826171875 -0.7177734375 c 0
 77.166015625 15.576171875 79.95703125 38.498046875 79.95703125 82.44140625 c 0
 79.95703125 169.784179688 78.640625 174.279296875 65.08984375 182.883789062 c 0
 64.123046875 183.498046875 63.109375 184.141601562 61.888671875 185.083984375 c 1
 65.9453125 185.762695312 69.443359375 185.861328125 72.5302734375 185.861328125 c 0
 88.306640625 185.861328125 133.330078125 157.83984375 133.330078125 148.3828125 c 0
 133.330078125 143.799804688 131.247070312 141.900390625 128.505859375 139.401367188 c 0
 123.23046875 134.591796875 115.518554688 127.559570312 115.518554688 94.916015625 c 0x40
 115.518554688 37.0390625 121.969726562 -8.8515625 123.491210938 -19.67578125 c 0
 123.6953125 -21.123046875 123.810546875 -21.943359375 123.810546875 -22.08203125 c 0
 123.810546875 -50.30859375 106.42578125 -69.185546875 97.3330078125 -69.185546875 c 0
 83.3330078125 -69.185546875 73.240234375 -53.0546875 73.240234375 -24.0390625 c 0x80
EndSplineSet
Validated: 1
EndChar

StartChar: xy_questiondown
Encoding: 332 57476 172
GlifName: xy_questiondown
Width: 361
VWidth: 800
Flags: HW
HStem: -63.3049 32.8809<136.579 195.926> 241.459 10G<142.568 157.938>
VStem: 118.04 21.2265<132.866 163.406> 172.723 48.9961<194.915 223.278> 207.822 44.9571<-18.2919 51.2577>
LayerCount: 2
Fore
SplineSet
213.0703125 188.661132812 m 0xf0
 209.508789062 188.661132812 207.005859375 189.346679688 204.1875 190.118164062 c 0
 200.557617188 191.112304688 196.404296875 192.25 188.790039062 192.25 c 0
 184.998046875 192.25 179.16015625 190.911132812 169.603515625 187.274414062 c 1
 160.375 196.657226562 l 1
 168.772460938 201.505859375 172.72265625 204.481445312 172.72265625 209.98046875 c 0
 172.72265625 218.483398438 161.6328125 231.774414062 142.568359375 244.981445312 c 1
 146.4921875 251.458984375 l 1
 169.3828125 247.431640625 221.71875 232.830078125 221.71875 198.728515625 c 0
 221.71875 193.987304688 218.05859375 188.661132812 213.0703125 188.661132812 c 0xf0
139.266601562 155.356445312 m 0
 139.266601562 135.192382812 159.056640625 123.776367188 182.109375 110.477539062 c 0
 214.268554688 91.9267578125 252.779296875 69.7109375 252.779296875 14.974609375 c 0
 252.779296875 -33.4892578125 225.4296875 -63.3046875 179.1015625 -63.3046875 c 0
 140.4453125 -63.3046875 109.775390625 -38.5361328125 93.7734375 -9.9453125 c 1
 100.123046875 -3.4833984375 l 1
 123.208984375 -20.3984375 144.017578125 -30.423828125 167.513671875 -30.423828125 c 0
 190.489257812 -30.423828125 207.822265625 -15.798828125 207.822265625 12.5517578125 c 0xe8
 207.822265625 54.751953125 178.736328125 75.2333984375 144.751953125 98.0849609375 c 0
 126.63671875 110.265625 118.040039062 120.6953125 118.040039062 139.330078125 c 0
 118.040039062 151.467773438 125.014648438 163.290039062 135.541992188 168.391601562 c 1
 141.44921875 166.159179688 l 1
 139.931640625 162.3984375 139.266601562 158.7890625 139.266601562 155.356445312 c 0
EndSplineSet
Validated: 1
EndChar

